<?xml version="1.0" encoding="UTF-8"?>
<svg version="1.1" xmlns="http://www.w3.org/2000/svg" width="64" height="64">
<path d="M0 0 C13.2 0 26.4 0 40 0 C40 21.12 40 42.24 40 64 C26.8 64 13.6 64 0 64 C0 42.88 0 21.76 0 0 Z " fill="#FBFAFA" transform="translate(12,0)"/>
<path d="M0 0 C13.2 0 26.4 0 40 0 C40 5.28 40 10.56 40 16 C26.8 16 13.6 16 0 16 C0 10.72 0 5.44 0 0 Z " fill="#CD0E20" transform="translate(12,48)"/>
<path d="M0 0 C0.66 0.66 1.32 1.32 2 2 C3.65261839 3.02304948 5.31791365 4.02616054 7 5 C6.57688773 7.53867364 6.19812542 9.64322803 4.94140625 11.90625 C3.8433467 14.34840734 3.99598291 15.6233806 4.3125 18.25 C4.46139912 22.52553179 3.31801984 24.38305076 0.5 27.5625 C-0.64601933 28.72898396 -1.80626426 29.88239537 -3 31 C-1.02 31.66 0.96 32.32 3 33 C2.67 33.99 2.34 34.98 2 36 C0.22925083 36.02705729 -1.54161711 36.04642195 -3.3125 36.0625 C-4.79169922 36.07990234 -4.79169922 36.07990234 -6.30078125 36.09765625 C-9 36 -9 36 -12 35 C-13.485 35.495 -13.485 35.495 -15 36 C-15.99 36 -16.98 36 -18 36 C-18 34.68 -18 33.36 -18 32 C-16.9275 32.020625 -15.855 32.04125 -14.75 32.0625 C-11.80196101 32.01336602 -9.76595853 31.77716091 -7 31 C-7.5053125 30.52691406 -8.010625 30.05382813 -8.53125 29.56640625 C-13.81649808 24.18677874 -13.81649808 24.18677874 -14.359375 20.67578125 C-14.28686206 19.15041987 -14.18169644 17.62623833 -14.04296875 16.10546875 C-13.97847395 12.94522359 -15.53749641 10.73424584 -17 8 C-17.0625 5.75 -17.0625 5.75 -16 4 C-12.9375 2.75 -12.9375 2.75 -10 2 C-10 1.34 -10 0.68 -10 0 C-6.23252887 -2.60824924 -4.05477525 -1.76294576 0 0 Z " fill="#F4EFE9" transform="translate(37,7)"/>
<path d="M0 0 C1.98 0.99 3.96 1.98 6 3 C5.57720818 5.53675093 5.20121883 7.63914261 3.94140625 9.8984375 C2.83443384 12.36960412 2.9999066 13.71562328 3.3125 16.375 C3.41652031 19.37177555 3.35853214 20.55657611 1.44921875 22.91796875 C-0.3091503 24.40148252 -2.07238581 25.7460673 -4 27 C-3.98259766 26.02160156 -3.98259766 26.02160156 -3.96484375 25.0234375 C-3.85491318 19.48396771 -3.85491318 19.48396771 -4.8125 14.0625 C-5.13082236 8.86323476 -2.33654344 4.54372806 0 0 Z " fill="#EA311D" transform="translate(38,9)"/>
<path d="M0 0 C4.70539957 5.60166615 6.31313552 9.9635272 5.75 17.1875 C5.38819481 20.54281242 4.90066637 23.74673096 4 27 C-1.83127109 22.26209224 -1.83127109 22.26209224 -2.29296875 18.80859375 C-2.22235844 17.26301247 -2.12707158 15.71837147 -2.0078125 14.17578125 C-1.99635728 10.98550312 -3.5210769 8.76494319 -5 6 C-4.9375 3.75 -4.9375 3.75 -4 2 C-1.9375 0.75 -1.9375 0.75 0 0 Z " fill="#11B12F" transform="translate(25,9)"/>
<path d="M0 0 C9.9 0 19.8 0 30 0 C30 1.32 30 2.64 30 4 C19.77 4 9.54 4 -1 4 C-0.67 2.68 -0.34 1.36 0 0 Z " fill="#E6B1B2" transform="translate(18,54)"/>
<path d="M0 0 C2.625 0.9375 2.625 0.9375 5 2 C4.47731534 4.76276177 3.89130413 7.3260876 3 10 C1.68 10 0.36 10 -1 10 C-3.06878307 5.61904762 -3.06878307 5.61904762 -2.75 2.75 C-2 1 -2 1 0 0 Z " fill="#FCBA08" transform="translate(31,5)"/>
<path d="M0 0 C1.43739513 -0.02712066 2.87493863 -0.04645067 4.3125 -0.0625 C5.51326172 -0.07990234 5.51326172 -0.07990234 6.73828125 -0.09765625 C9 0 9 0 12 1 C12 1.66 12 2.32 12 3 C11.071875 2.979375 10.14375 2.95875 9.1875 2.9375 C5.97713989 2.84230396 5.97713989 2.84230396 3 4 C2.01 4 1.02 4 0 4 C0 2.68 0 1.36 0 0 Z " fill="#9D9DAB" transform="translate(19,39)"/>
<path d="M0 0 C1.62463842 -0.05395478 3.24978541 -0.09277195 4.875 -0.125 C5.77992187 -0.14820313 6.68484375 -0.17140625 7.6171875 -0.1953125 C10 0 10 0 12 2 C9.47524538 3.26237731 7.68799534 3.09856404 4.875 3.0625 C3.96492188 3.05347656 3.05484375 3.04445312 2.1171875 3.03515625 C1.41851563 3.02355469 0.71984375 3.01195312 0 3 C0 2.01 0 1.02 0 0 Z " fill="#AD8578" transform="translate(17,55)"/>
<path d="M0 0 C3.63 0 7.26 0 11 0 C11.33 0.66 11.66 1.32 12 2 C8.84493858 2.93619813 6.03413498 3.1057123 2.75 3.0625 C1.85796875 3.05347656 0.9659375 3.04445312 0.046875 3.03515625 C-0.62859375 3.02355469 -1.3040625 3.01195312 -2 3 C-1.34 2.67 -0.68 2.34 0 2 C0 1.34 0 0.68 0 0 Z " fill="#E2A5A7" transform="translate(29,55)"/>
<path d="M0 0 C1.98 0 3.96 0 6 0 C6.33 1.32 6.66 2.64 7 4 C4.69 4 2.38 4 0 4 C0 2.68 0 1.36 0 0 Z " fill="#ABAAB6" transform="translate(33,39)"/>
<path d="M0 0 C0.66 0.33 1.32 0.66 2 1 C1.67 2.65 1.34 4.3 1 6 C1.66 6.33 2.32 6.66 3 7 C1.68 7.99 0.36 8.98 -1 10 C-0.67 6.7 -0.34 3.4 0 0 Z " fill="#D40E0B" transform="translate(35,26)"/>
<path d="M0 0 C0.99 1.32 1.98 2.64 3 4 C2.01 4.495 2.01 4.495 1 5 C0.34 4.34 -0.32 3.68 -1 3 C-1.99 4.485 -1.99 4.485 -3 6 C-3.66 6 -4.32 6 -5 6 C-4.75 4.125 -4.75 4.125 -4 2 C-1.9375 0.75 -1.9375 0.75 0 0 Z " fill="#13D240" transform="translate(25,9)"/>
</svg>
