<?xml version="1.0" encoding="UTF-8"?>
<svg version="1.1" xmlns="http://www.w3.org/2000/svg" width="50" height="50">
<path d="M0 0 C3.63 0 7.26 0 11 0 C11 1.65 11 3.3 11 5 C10.67 5.33 10.34 5.66 10 6 C12.64 6.99 15.28 7.98 18 9 C18.33 8.01 18.66 7.02 19 6 C21.4375 6.75 21.4375 6.75 24 8 C25.32284898 10.92916561 25.04059132 11.87822605 24 15 C24.474375 15.94875 24.94875 16.8975 25.4375 17.875 C28.15385273 23.75834463 28.0721931 31.22267604 26.3203125 37.39453125 C25.5 39.3125 25.5 39.3125 24 42 C23.34 42 22.68 42 22 42 C21.79375 42.5775 21.5875 43.155 21.375 43.75 C19.41374517 46.95932608 17.28897468 48.18152253 14 50 C11.21062047 50.601438 8.53435978 50.66741014 5.6875 50.625 C4.93637939 50.61807129 4.18525879 50.61114258 3.41137695 50.60400391 C-4.69680767 50.28624242 -8.95965872 47.11634981 -14.5 41.4375 C-17.48742422 34.5913195 -18.00155145 26.97147825 -15.5625 19.875 C-15.27503906 19.19179688 -14.98757812 18.50859375 -14.69140625 17.8046875 C-13.82112011 15.85519304 -13.82112011 15.85519304 -14 13 C-14 9 -14 9 -12.5 7.25 C-11.7575 6.63125 -11.7575 6.63125 -11 6 C-10.113125 6.37125 -9.22625 6.7425 -8.3125 7.125 C-4.59173995 8.10784228 -3.32561865 7.76062164 0 6 C0 4.02 0 2.04 0 0 Z " fill="#DFE3E8" transform="translate(20,0)"/>
<path d="M0 0 C3.63 0 7.26 0 11 0 C11 1.65 11 3.3 11 5 C10.67 5.33 10.34 5.66 10 6 C12.64 6.99 15.28 7.98 18 9 C18.33 8.01 18.66 7.02 19 6 C21.4375 6.75 21.4375 6.75 24 8 C25.32284898 10.92916561 25.04059132 11.87822605 24 15 C24.515625 16.03125 25.03125 17.0625 25.5625 18.125 C27.4098721 22.07165857 26.79738307 24.8632441 25.73828125 28.984375 C23.71872721 34.49807808 19.07699272 40.46698156 14.375 43.9375 C8.9058191 46.38423882 3.71182594 46.94083757 -2.0625 44.9375 C-6.26578938 42.16511765 -9.73229118 38.53541764 -12 34 C-12.13415472 31.3276379 -12.04318541 28.67749512 -12 26 C-11.67 26.66 -11.34 27.32 -11 28 C-9.68 28 -8.36 28 -7 28 C-7 28.66 -7 29.32 -7 30 C-7.99 30 -8.98 30 -10 30 C-9.67 31.65 -9.34 33.3 -9 35 C-8.01 35 -7.02 35 -6 35 C-5.67 36.65 -5.34 38.3 -5 40 C-2.525 39.505 -2.525 39.505 0 39 C0.33 39.99 0.66 40.98 1 42 C2.485 42.495 2.485 42.495 4 43 C4 42.34 4 41.68 4 41 C4.99 41 5.98 41 7 41 C7 41.66 7 42.32 7 43 C8.32 43 9.64 43 11 43 C11 42.01 11 41.02 11 40 C12.98 39.505 12.98 39.505 15 39 C15.33 37.68 15.66 36.36 16 35 C16.99 35 17.98 35 19 35 C19.33 33.35 19.66 31.7 20 30 C19.01 30 18.02 30 17 30 C17 29.34 17 28.68 17 28 C18.32 28 19.64 28 21 28 C20.505 25.03 20.505 25.03 20 22 C19.443125 22.268125 18.88625 22.53625 18.3125 22.8125 C17.549375 22.874375 16.78625 22.93625 16 23 C14.31126121 21.35570171 12.64694485 19.68615782 11 18 C7.83298577 16.66436389 7.83298577 16.66436389 5 16 C5 15.01 5 14.02 5 13 C3.02 13.33 1.04 13.66 -1 14 C-1.33 15.32 -1.66 16.64 -2 18 C-3.65 18 -5.3 18 -7 18 C-6.67 19.65 -6.34 21.3 -6 23 C-6.99 23 -7.98 23 -9 23 C-9.66 23.66 -10.32 24.32 -11 25 C-11.33 24.67 -11.66 24.34 -12 24 C-12.33 26.97 -12.66 29.94 -13 33 C-16.01003824 29.98996176 -15.72042864 26.88604175 -16.0546875 22.76171875 C-15.98525713 19.25548497 -14.69456454 17.02074549 -13 14 C-13.67424167 11.64539322 -13.67424167 11.64539322 -15 10 C-13.68 8.68 -12.36 7.36 -11 6 C-10.113125 6.37125 -9.22625 6.7425 -8.3125 7.125 C-4.59173995 8.10784228 -3.32561865 7.76062164 0 6 C0 4.02 0 2.04 0 0 Z " fill="#E7EBEF" transform="translate(20,0)"/>
<path d="M0 0 C3 0 3 0 5 1 C4.67 2.65 4.34 4.3 4 6 C3.01 6 2.02 6 1 6 C0.49342713 11.31901517 1.67389957 13.86484812 5 18 C8.67715864 21.31841146 11.18675304 22.85778455 16.1875 23.25 C21.55279688 22.89817725 25.79730589 22.07396523 29.8046875 18.30078125 C33.70296627 13.55383414 34.49014061 10.01634082 35 4 C36.5625 2 36.5625 2 38 1 C39.69669132 2.69669132 39.21209414 4.80642509 39.25 7.125 C39.22348915 12.20845464 38.3774647 15.5422537 36 20 C35.34 20 34.68 20 34 20 C33.79375 20.5775 33.5875 21.155 33.375 21.75 C31.41374517 24.95932608 29.28897468 26.18152253 26 28 C23.21062047 28.601438 20.53435978 28.66741014 17.6875 28.625 C16.93637939 28.61807129 16.18525879 28.61114258 15.41137695 28.60400391 C7.30319233 28.28624242 3.04034128 25.11634981 -2.5 19.4375 C-4.81272698 14.13750067 -4.83000302 8.72889817 -5 3 C-4.34 2.67 -3.68 2.34 -3 2 C-2.67 4.31 -2.34 6.62 -2 9 C-1.34 6.03 -0.68 3.06 0 0 Z " fill="#CDD6DE" transform="translate(8,22)"/>
<path d="M0 0 C3.01170756 1.1799969 4.87164417 2.58957291 7 5 C7.804375 5.86625 8.60875 6.7325 9.4375 7.625 C11.69271476 12.49626387 11.99305767 16.72858108 11 22 C8.183414 27.70803142 4.11126598 31.49253581 -1.875 33.6875 C-7.75761178 34.55258997 -11.97005398 34.31762397 -17 31 C-23.89769897 24.03783656 -23.89769897 24.03783656 -24.09765625 20.0546875 C-24.06510417 18.03645833 -24.03255208 16.01822917 -24 14 C-23.67 14.66 -23.34 15.32 -23 16 C-21.68 16 -20.36 16 -19 16 C-19 16.66 -19 17.32 -19 18 C-19.99 18 -20.98 18 -22 18 C-21.67 19.65 -21.34 21.3 -21 23 C-20.01 23 -19.02 23 -18 23 C-17.67 24.65 -17.34 26.3 -17 28 C-15.35 27.67 -13.7 27.34 -12 27 C-11.67 27.99 -11.34 28.98 -11 30 C-10.01 30.33 -9.02 30.66 -8 31 C-8 30.34 -8 29.68 -8 29 C-7.01 29 -6.02 29 -5 29 C-5 29.66 -5 30.32 -5 31 C-3.68 31 -2.36 31 -1 31 C-1 30.01 -1 29.02 -1 28 C0.32 27.67 1.64 27.34 3 27 C3.33 25.68 3.66 24.36 4 23 C4.99 23 5.98 23 7 23 C7.33 21.35 7.66 19.7 8 18 C7.01 18 6.02 18 5 18 C5 17.34 5 16.68 5 16 C6.32 16 7.64 16 9 16 C8.505 13.03 8.505 13.03 8 10 C7.443125 10.268125 6.88625 10.53625 6.3125 10.8125 C5.549375 10.874375 4.78625 10.93625 4 11 C2.31126121 9.35570171 0.64694485 7.68615782 -1 6 C-4.16701423 4.66436389 -4.16701423 4.66436389 -7 4 C-7 3.01 -7 2.02 -7 1 C-8.98 1.33 -10.96 1.66 -13 2 C-13.33 3.32 -13.66 4.64 -14 6 C-15.65 6 -17.3 6 -19 6 C-18.67 7.65 -18.34 9.3 -18 11 C-18.99 11 -19.98 11 -21 11 C-21.66 11.66 -22.32 12.32 -23 13 C-23.25206703 10.06264749 -23.20635787 8.37777336 -21.77734375 5.76171875 C-15.55041773 -1.25844625 -8.99280487 -1.51215316 0 0 Z " fill="#89B1D2" transform="translate(32,12)"/>
<path d="M0 0 C4.38793032 1.82180629 7.55476879 4.95075414 10 9 C10.29296875 12.015625 10.29296875 12.015625 10.1875 15.25 C10.14689453 16.86648437 10.14689453 16.86648437 10.10546875 18.515625 C10.07066406 19.33546875 10.03585938 20.1553125 10 21 C9.8453125 20.0409375 9.8453125 20.0409375 9.6875 19.0625 C9.460625 18.381875 9.23375 17.70125 9 17 C8.01 16.67 7.02 16.34 6 16 C6.99 16 7.98 16 9 16 C8.67 14.02 8.34 12.04 8 10 C7.443125 10.268125 6.88625 10.53625 6.3125 10.8125 C5.549375 10.874375 4.78625 10.93625 4 11 C2.31126121 9.35570171 0.64694485 7.68615782 -1 6 C-4.16701423 4.66436389 -4.16701423 4.66436389 -7 4 C-7 3.01 -7 2.02 -7 1 C-8.98 1.33 -10.96 1.66 -13 2 C-13.33 3.32 -13.66 4.64 -14 6 C-15.65 6 -17.3 6 -19 6 C-18.67 7.65 -18.34 9.3 -18 11 C-18.99 11 -19.98 11 -21 11 C-21.66 11.66 -22.32 12.32 -23 13 C-23.25206703 10.06264749 -23.20635787 8.37777336 -21.77734375 5.76171875 C-15.55779003 -1.25013481 -8.98522563 -1.52918745 0 0 Z " fill="#3C67B2" transform="translate(32,12)"/>
<path d="M0 0 C0.66 0.33 1.32 0.66 2 1 C2.05429959 2.74965358 2.09292823 4.49979787 2.125 6.25 C2.14820312 7.22453125 2.17140625 8.1990625 2.1953125 9.203125 C1.99862781 12.0196498 1.44568916 13.60949036 0 16 C-0.66 15.67 -1.32 15.34 -2 15 C-2.25910156 15.59296875 -2.51820312 16.1859375 -2.78515625 16.796875 C-4.93166638 20.68958147 -8.03567695 23.05906744 -12 25 C-15.72871572 25.48017627 -19.26523248 25.3707306 -23 25 C-23.33 24.34 -23.66 23.68 -24 23 C-22.91332031 22.85304688 -22.91332031 22.85304688 -21.8046875 22.703125 C-14.42350387 21.56150193 -9.64535678 20.14582969 -4.6875 14.25 C-2.63566778 10.29832314 -2.43368846 7.40916599 -2 3 C-1.34 2.01 -0.68 1.02 0 0 Z " fill="#DCE2E7" transform="translate(45,23)"/>
<path d="M0 0 C3.63 0 7.26 0 11 0 C11 1.65 11 3.3 11 5 C9 7 9 7 7.08984375 7.23046875 C1.11111111 7.11111111 1.11111111 7.11111111 0 6 C-0.04080783 4.00041636 -0.04254356 1.99954746 0 0 Z " fill="#EEB833" transform="translate(20,0)"/>
<path d="M0 0 C0.33 0 0.66 0 1 0 C1.60028025 6.04726769 1.86708124 10.63091961 -1.9375 15.625 C-3.2478945 17.14295108 -4.58335896 18.58335896 -6 20 C-7.66617115 20.04063832 -9.33388095 20.042721 -11 20 C-11 19.01 -11 18.02 -11 17 C-9.68 16.67 -8.36 16.34 -7 16 C-6.67 14.68 -6.34 13.36 -6 12 C-5.01 12 -4.02 12 -3 12 C-2.67 10.35 -2.34 8.7 -2 7 C-2.99 7 -3.98 7 -5 7 C-4.67 6.34 -4.34 5.68 -4 5 C-3.01 5.33 -2.02 5.66 -1 6 C-0.67 4.02 -0.34 2.04 0 0 Z " fill="#92B2CC" transform="translate(42,23)"/>
<path d="M0 0 C0 3.93602341 -1.58022978 4.99361881 -4 8 C-4.77833534 10.18214568 -4.77833534 10.18214568 -5 12 C-7.31 12.33 -9.62 12.66 -12 13 C-12 9 -12 9 -10 6 C-8.37890625 4.90234375 -8.37890625 4.90234375 -6.5625 3.9375 C-4.26947187 2.7043164 -2.1792857 1.45285713 0 0 Z " fill="#D7914C" transform="translate(33,20)"/>
<path d="M0 0 C0.66 0 1.32 0 2 0 C1.67 1.32 1.34 2.64 1 4 C0.34 4 -0.32 4 -1 4 C-1.20625 4.5775 -1.4125 5.155 -1.625 5.75 C-3.59827314 8.9789924 -5.67356027 10.19411116 -9 12 C-11.93976042 12.48354545 -14.77955439 12.42713984 -17.75 12.3125 C-18.51699219 12.30283203 -19.28398437 12.29316406 -20.07421875 12.28320312 C-25.65935497 12.17032252 -25.65935497 12.17032252 -28 11 C-28 10.34 -28 9.68 -28 9 C-27.45730469 9.15597656 -26.91460938 9.31195313 -26.35546875 9.47265625 C-20.70683391 10.73727599 -14.68229506 11.20038569 -9.3203125 8.80078125 C-6.15299184 6.73942666 -3.63002305 4.8562241 -1.37890625 1.796875 C-0.92386719 1.20390625 -0.46882813 0.6109375 0 0 Z " fill="#B4BEC7" transform="translate(43,38)"/>
<path d="M0 0 C0.33 0.66 0.66 1.32 1 2 C2.32 2 3.64 2 5 2 C5 2.66 5 3.32 5 4 C4.01 4 3.02 4 2 4 C2.33 5.65 2.66 7.3 3 9 C3.99 9 4.98 9 6 9 C6.33 10.65 6.66 12.3 7 14 C8.32 14 9.64 14 11 14 C10.67 14.99 10.34 15.98 10 17 C6.51175659 16.7416116 5.75785753 15.73533264 3.3125 13.0625 C-0.32318852 8.24766926 -0.09514175 5.89878874 0 0 Z " fill="#719DC0" transform="translate(8,26)"/>
<path d="M0 0 C0.99 0.33 1.98 0.66 3 1 C2.67 2.65 2.34 4.3 2 6 C0.02 6 -1.96 6 -4 6 C-3.67 7.65 -3.34 9.3 -3 11 C-3.99 11 -4.98 11 -6 11 C-6.66 11.66 -7.32 12.32 -8 13 C-8.36795695 9.7171341 -8.3231932 8.41336988 -6.25 5.76171875 C-5.13625 4.73498047 -5.13625 4.73498047 -4 3.6875 C-3.2575 2.99011719 -2.515 2.29273438 -1.75 1.57421875 C-1.1725 1.05472656 -0.595 0.53523437 0 0 Z " fill="#5081BA" transform="translate(17,12)"/>
<path d="M0 0 C1.32 0.66 2.64 1.32 4 2 C4 3.32 4 4.64 4 6 C2.02 6.66 0.04 7.32 -2 8 C-2.66 6.68 -3.32 5.36 -4 4 C-2.68 2.68 -1.36 1.36 0 0 Z " fill="#3B4647" transform="translate(9,6)"/>
<path d="M0 0 C2.4375 0.75 2.4375 0.75 5 2 C5.9375 4 5.9375 4 6 6 C5.34 6.66 4.68 7.32 4 8 C0.46428571 7.46428571 0.46428571 7.46428571 -1 6 C-1.125 3.5 -1.125 3.5 -1 1 C-0.67 0.67 -0.34 0.34 0 0 Z " fill="#38424A" transform="translate(39,6)"/>
<path d="M0 0 C3.7935068 -0.35288435 5.55941253 -0.28393415 8.8125 1.8125 C11 4 11 4 12 7 C8.98782888 6.35550393 6.48344164 5.34977818 3.75 3.9375 C3.04359375 3.57527344 2.3371875 3.21304687 1.609375 2.83984375 C1.07828125 2.56269531 0.5471875 2.28554688 0 2 C0 1.34 0 0.68 0 0 Z " fill="#E34155" transform="translate(26,14)"/>
<path d="M0 0 C0.99 0 1.98 0 3 0 C3.125 2.375 3.125 2.375 3 5 C1 7 1 7 -2.625 7.125 C-3.73875 7.08375 -4.8525 7.0425 -6 7 C-6 6.34 -6 5.68 -6 5 C-4.02 5 -2.04 5 0 5 C0 3.35 0 1.7 0 0 Z " fill="#986619" transform="translate(28,0)"/>
<path d="M0 0 C0 3 0 3 -2.5 5.6875 C-3.325 6.450625 -4.15 7.21375 -5 8 C-5.66 7.01 -6.32 6.02 -7 5 C-4.69 3.35 -2.38 1.7 0 0 Z " fill="#E0515C" transform="translate(33,20)"/>
<path d="M0 0 C0.66 0.33 1.32 0.66 2 1 C2 4.96 2 8.92 2 13 C1.67 11.68 1.34 10.36 1 9 C0.01 8.67 -0.98 8.34 -2 8 C-1.01 8 -0.02 8 1 8 C0.34 5.69 -0.32 3.38 -1 1 C-0.67 0.67 -0.34 0.34 0 0 Z " fill="#6191C4" transform="translate(40,20)"/>
<path d="M0 0 C2.475 0.495 2.475 0.495 5 1 C5.33 2.32 5.66 3.64 6 5 C4.02 5.99 4.02 5.99 2 7 C2.33 6.01 2.66 5.02 3 4 C1.62831762 1.80961577 1.62831762 1.80961577 0 0 Z " fill="#5871A2" transform="translate(34,16)"/>
<path d="M0 0 C0.99 0.33 1.98 0.66 3 1 C2.67 2.65 2.34 4.3 2 6 C0.35 6 -1.3 6 -3 6 C-1.125 1.125 -1.125 1.125 0 0 Z " fill="#6B90B9" transform="translate(17,12)"/>
<path d="M0 0 C0.66 0 1.32 0 2 0 C2.33 0.99 2.66 1.98 3 3 C3.99 3.66 4.98 4.32 6 5 C3.125 5.625 3.125 5.625 0 6 C-0.66 5.34 -1.32 4.68 -2 4 C-1.34 3.67 -0.68 3.34 0 3 C0 2.01 0 1.02 0 0 Z " fill="#A3C2DC" transform="translate(18,39)"/>
<path d="M0 0 C0.66 0 1.32 0 2 0 C1.67 1.32 1.34 2.64 1 4 C0.34 4 -0.32 4 -1 4 C-1.33 4.99 -1.66 5.98 -2 7 C-2.99 6.67 -3.98 6.34 -5 6 C-3.38405168 3.95880212 -1.7143618 1.95927063 0 0 Z " fill="#C0C8D4" transform="translate(43,38)"/>
</svg>
