<?xml version="1.0" encoding="UTF-8"?>
<svg version="1.1" xmlns="http://www.w3.org/2000/svg" width="50" height="50">
<path d="M0 0 C6.78830791 2.41105038 11.37462117 7.92749047 15 14 C17.17543571 20.52630713 17.15223201 29.23845335 15.12890625 35.84375 C11.92808173 41.97254187 6.5634254 47.5442217 0 50 C-7.5217924 51.01838056 -16.64615507 51.66846472 -23.25 47.5 C-27.71469296 43.80871842 -31.40791892 39.18416217 -34 34 C-35.48978183 15.57573612 -35.48978183 15.57573612 -29.859375 8.765625 C-20.70550562 0.07329525 -12.43015476 -1.54417159 0 0 Z " fill="#F1F3F6" transform="translate(34,0)"/>
<path d="M0 0 C6.06699932 3.46685675 10.75495836 8.26487507 13 15 C13.72133193 24.17122028 14.2998398 32.61343784 8 40 C2.72797218 45.42501077 -1.67762829 48.22837097 -9.29589844 48.48242188 C-22.52508326 48.57965557 -22.52508326 48.57965557 -28.234375 43.859375 C-34.82684986 36.91685723 -37.1801935 32.43999606 -37.1875 23 C-37.19974609 22.16726562 -37.21199219 21.33453125 -37.22460938 20.4765625 C-37.22654297 19.67992188 -37.22847656 18.88328125 -37.23046875 18.0625 C-37.23457764 17.33160156 -37.23868652 16.60070312 -37.24291992 15.84765625 C-37 14 -37 14 -35 12 C-35 16.95 -35 21.9 -35 27 C-33.02 26.67 -31.04 26.34 -29 26 C-28.01 26.66 -27.02 27.32 -26 28 C-23.21118446 28.17068477 -20.53507418 28.2327277 -17.75 28.1875 C-16.64205078 28.1865332 -16.64205078 28.1865332 -15.51171875 28.18554688 C-10.92699375 28.14916017 -6.52970785 27.77888879 -2 27 C-1.23171875 26.91878906 -0.4634375 26.83757813 0.328125 26.75390625 C2.25458352 26.10568453 2.25458352 26.10568453 3.046875 23.71484375 C3.27890625 22.79832031 3.5109375 21.88179687 3.75 20.9375 C3.99234375 20.01839844 4.2346875 19.09929688 4.484375 18.15234375 C4.65453125 17.44207031 4.8246875 16.73179688 5 16 C5.66 16 6.32 16 7 16 C6.505 14.39125 6.505 14.39125 6 12.75 C5 9 5 9 5 5 C4.0409375 4.5978125 4.0409375 4.5978125 3.0625 4.1875 C1 3 1 3 0 0 Z " fill="#BBC3C9" transform="translate(37,2)"/>
<path d="M0 0 C0.33 0 0.66 0 1 0 C1.15855469 0.59167969 1.31710938 1.18335937 1.48046875 1.79296875 C3.03613504 7.06160652 4.52832682 10.50991362 9 14 C11.17346568 14.86119134 11.17346568 14.86119134 13 15 C13.33 14.01 13.66 13.02 14 12 C15.98 12 17.96 12 20 12 C20 12.99 20 13.98 20 15 C18.02 15 16.04 15 14 15 C14 15.66 14 16.32 14 17 C16.35448675 17.05454409 18.70767875 17.0939279 21.0625 17.125 C22.37347656 17.14820312 23.68445313 17.17140625 25.03515625 17.1953125 C29.01160146 16.9994285 32.21324122 16.17176885 36 15 C37.41310906 14.85536971 38.83056687 14.74231551 40.25 14.6875 C44.14193204 14.40321333 44.14193204 14.40321333 46 11.4375 C46.33 10.633125 46.66 9.82875 47 9 C47.66 9.33 48.32 9.66 49 10 C45.39781898 16.82336212 40.95695116 21.52152442 34 25 C15.57573612 26.48978183 15.57573612 26.48978183 8.765625 20.859375 C4.05978459 15.90366696 -0.16300365 11.41025581 -0.0625 4.375 C-0.05347656 3.55773437 -0.04445312 2.74046875 -0.03515625 1.8984375 C-0.02355469 1.27195312 -0.01195312 0.64546875 0 0 Z " fill="#5F6A71" transform="translate(0,25)"/>
<path d="M0 0 C0.66 0.33 1.32 0.66 2 1 C1.52949219 1.38800781 1.05898437 1.77601562 0.57421875 2.17578125 C-1.40992887 4.47502924 -1.68533163 6.21311811 -2.1875 9.1875 C-2.34605469 10.08855469 -2.50460938 10.98960938 -2.66796875 11.91796875 C-2.83232422 12.94857422 -2.83232422 12.94857422 -3 14 C-1.68 14.66 -0.36 15.32 1 16 C1 16.99 1 17.98 1 19 C2.92057292 18.96744792 4.84114583 18.93489583 6.76171875 18.90234375 C9 19 9 19 11.359375 19.54296875 C15.60442451 20.27768886 19.69288127 19.48156599 23.94140625 18.9609375 C27.40324925 19.00515005 28.53777194 19.65215418 31 22 C29.70211844 24.59576312 28.67129456 24.92781659 26 26 C17.9491706 27.30288232 9.12032916 27.71507376 1 27 C0.34 26.34 -0.32 25.68 -1 25 C-4.08347826 24.83318891 -4.08347826 24.83318891 -7 25 C-8.0735426 10.0044843 -8.0735426 10.0044843 -5.44140625 5.08984375 C-3.72570222 3.1877252 -2.04477056 1.53879417 0 0 Z " fill="#D2D7DC" transform="translate(9,4)"/>
<path d="M0 0 C2.91927745 2.91927745 2.36808832 5.96989813 2.375 9.875 C2.39949219 10.59558594 2.42398438 11.31617188 2.44921875 12.05859375 C2.46871419 15.58726897 2.37133695 17.54614372 0.1015625 20.3203125 C-0.59195313 20.87460937 -1.28546875 21.42890625 -2 22 C-2.66 22.99 -3.32 23.98 -4 25 C-5.9503734 25.29751459 -7.90539255 25.58120991 -9.87109375 25.75 C-12.22641917 25.95545152 -12.22641917 25.95545152 -15.25 27.0625 C-21.27744665 28.56936166 -28.05136648 28.98287784 -34 27 C-34 26.34 -34 25.68 -34 25 C-32.02 25 -30.04 25 -28 25 C-28 24.34 -28 23.68 -28 23 C-21.375 22 -21.375 22 -18 22 C-17.67 21.67 -17.34 21.34 -17 21 C-15.576875 21.061875 -15.576875 21.061875 -14.125 21.125 C-11.01192164 21.32387127 -11.01192164 21.32387127 -9.25 19.5 C-8.8375 19.005 -8.425 18.51 -8 18 C-7.34 18 -6.68 18 -6 18 C-5.34 16.68 -4.68 15.36 -4 14 C-3.34 14 -2.68 14 -2 14 C-0.99740493 10.99221479 -0.69685358 8.46179353 -0.4375 5.3125 C-0.35371094 4.31863281 -0.26992188 3.32476563 -0.18359375 2.30078125 C-0.09271484 1.16189453 -0.09271484 1.16189453 0 0 Z " fill="#79858D" transform="translate(48,15)"/>
<path d="M0 0 C0.33 0 0.66 0 1 0 C1 4.95 1 9.9 1 15 C2.98 14.67 4.96 14.34 7 14 C7.99 14.66 8.98 15.32 10 16 C12.84324059 16.05350421 12.84324059 16.05350421 15.9375 15.8125 C21.67899436 15.69504464 21.67899436 15.69504464 24.5 18.375 C24.995 19.24125 25.49 20.1075 26 21 C28.11660427 22.31165257 28.11660427 22.31165257 30 23 C27 25 27 25 24.875 24.625 C23.451875 24.315625 23.451875 24.315625 22 24 C18.99813001 23.90414197 16.00248413 23.94112776 13 24 C12.67 24.66 12.34 25.32 12 26 C9.25397936 25.91923469 7.4956463 25.42778275 5.40234375 23.62109375 C-0.03665472 17.64754998 -1.23615845 11.84161231 -1.16796875 3.91796875 C-1 2 -1 2 0 0 Z " fill="#B1B9BF" transform="translate(1,14)"/>
<path d="M0 0 C0.66 0.33 1.32 0.66 2 1 C1.52949219 1.38800781 1.05898437 1.77601562 0.57421875 2.17578125 C-1.40992887 4.47502924 -1.68533163 6.21311811 -2.1875 9.1875 C-2.34605469 10.08855469 -2.50460938 10.98960938 -2.66796875 11.91796875 C-2.83232422 12.94857422 -2.83232422 12.94857422 -3 14 C-1.68 14.66 -0.36 15.32 1 16 C1 16.99 1 17.98 1 19 C1.99 19.33 2.98 19.66 4 20 C4 20.66 4 21.32 4 22 C2.73160474 22.50615298 1.46016898 23.00469099 0.1875 23.5 C-0.52019531 23.7784375 -1.22789063 24.056875 -1.95703125 24.34375 C-4 25 -4 25 -7 25 C-8.0735426 10.0044843 -8.0735426 10.0044843 -5.44140625 5.08984375 C-3.72570222 3.1877252 -2.04477056 1.53879417 0 0 Z " fill="#D4DAE0" transform="translate(9,4)"/>
<path d="M0 0 C0.66 0 1.32 0 2 0 C0.99562793 2.73919656 0.37175596 3.80379547 -2.25 5.1875 C-9.60095851 7.35937411 -18.62198319 8.45933894 -26 6 C-26 5.34 -26 4.68 -26 4 C-24.02 4 -22.04 4 -20 4 C-20 3.34 -20 2.68 -20 2 C-15.58183928 1.22032458 -12.35047022 1.12990596 -8 2 C-3.66226037 1.87329304 -3.66226037 1.87329304 0 0 Z " fill="#858F96" transform="translate(40,36)"/>
<path d="M0 0 C5 5 5 5 7.375 7.625 C13.45938279 13.12991776 18.92292722 13.46433437 26.90234375 13.30859375 C30.8442973 12.91588968 33.47136993 11.72677642 37 10 C39.18359375 10.41015625 39.18359375 10.41015625 41 11 C34.35810734 16.77555884 27.76573367 16.95717749 19.30078125 16.54296875 C12.45287408 15.89733004 8.58657108 12.92819367 4.13671875 7.890625 C0 2.67931034 0 2.67931034 0 0 Z " fill="#424E53" transform="translate(1,34)"/>
<path d="M0 0 C-1.39587672 4.18763017 -3.08164127 5.04082064 -7 7 C-10.19540604 7.28851196 -12.96422014 7.0595467 -16 6 C-18.0625 3.4375 -18.0625 3.4375 -19 1 C-12.31349436 -0.48725585 -6.76106962 -1.27567351 0 0 Z " fill="#BAC2C8" transform="translate(43,30)"/>
<path d="M0 0 C0.33 0 0.66 0 1 0 C1 4.95 1 9.9 1 15 C2.32 15.66 3.64 16.32 5 17 C5.33 17.66 5.66 18.32 6 19 C9.66809953 21.49430768 13.69585081 21.56958508 18 22 C18 22.33 18 22.66 18 23 C17.195625 23.12375 16.39125 23.2475 15.5625 23.375 C14.716875 23.58125 13.87125 23.7875 13 24 C12.67 24.66 12.34 25.32 12 26 C9.25397936 25.91923469 7.4956463 25.42778275 5.40234375 23.62109375 C-0.03665472 17.64754998 -1.23615845 11.84161231 -1.16796875 3.91796875 C-1 2 -1 2 0 0 Z " fill="#8B969D" transform="translate(1,14)"/>
<path d="M0 0 C0.66 0.33 1.32 0.66 2 1 C-0.25341891 5.56100654 -2.12158102 9.10889821 -7.0625 10.9375 C-8.36496639 11.32695035 -9.67826025 11.6820467 -11 12 C-11.67417969 12.1959375 -12.34835938 12.391875 -13.04296875 12.59375 C-15.83818368 13.17399422 -18.23249971 12.5660796 -21 12 C-20.67 11.34 -20.34 10.68 -20 10 C-17.69 10 -15.38 10 -13 10 C-12.835 9.360625 -12.67 8.72125 -12.5 8.0625 C-12.005 7.381875 -11.51 6.70125 -11 6 C-8.97315072 5.77479452 -6.94464604 5.55437214 -4.91015625 5.4140625 C-2.67095639 5.14202372 -2.67095639 5.14202372 -1 2.4375 C-0.67 1.633125 -0.34 0.82875 0 0 Z " fill="#5D6870" transform="translate(47,34)"/>
<path d="M0 0 C2.02048131 1.30208796 4.01811655 2.63988391 6 4 C6.61875 4.4125 7.2375 4.825 7.875 5.25 C9.49952715 7.77704223 9.16090681 10.15329531 9.02734375 13.0703125 C8.90264316 15.09373815 8.90264316 15.09373815 9.6875 17.3125 C9.8421875 18.1478125 9.8421875 18.1478125 10 19 C8.75 20.75 8.75 20.75 7 22 C6.01 22 5.02 22 4 22 C4.33 20.02 4.66 18.04 5 16 C5.66 16 6.32 16 7 16 C6.67 14.9275 6.34 13.855 6 12.75 C5 9 5 9 5 5 C4.360625 4.731875 3.72125 4.46375 3.0625 4.1875 C1 3 1 3 0 0 Z " fill="#D0D6DB" transform="translate(37,2)"/>
<path d="M0 0 C0.33 0 0.66 0 1 0 C1.15855469 0.59167969 1.31710938 1.18335937 1.48046875 1.79296875 C3.03613504 7.06160652 4.52832682 10.50991362 9 14 C11.17346568 14.86119134 11.17346568 14.86119134 13 15 C13.33 14.01 13.66 13.02 14 12 C15.98 12 17.96 12 20 12 C20 12.99 20 13.98 20 15 C8.35259807 16.87586268 8.35259807 16.87586268 5.09375 14.765625 C3.8125 13.125 3.8125 13.125 2 10 C1.34 9.67 0.68 9.34 0 9 C0 6.03 0 3.06 0 0 Z " fill="#667278" transform="translate(0,25)"/>
<path d="M0 0 C2.01822917 0.06510417 4.03645833 0.13020833 6.0546875 0.1953125 C5.0646875 2.1753125 4.0746875 4.1553125 3.0546875 6.1953125 C1.7346875 5.8653125 0.4146875 5.5353125 -0.9453125 5.1953125 C-0.2853125 4.2053125 0.3746875 3.2153125 1.0546875 2.1953125 C0.0646875 2.8553125 -0.9253125 3.5153125 -1.9453125 4.1953125 C-4.20703125 4.609375 -4.20703125 4.609375 -6.6328125 4.8203125 C-7.44105469 4.89507812 -8.24929687 4.96984375 -9.08203125 5.046875 C-10.00435547 5.12035156 -10.00435547 5.12035156 -10.9453125 5.1953125 C-10.6153125 4.2053125 -10.2853125 3.2153125 -9.9453125 2.1953125 C-8.9965625 2.2365625 -8.0478125 2.2778125 -7.0703125 2.3203125 C-3.41495302 2.17409812 -3.25698355 0.32700638 0 0 Z " fill="#77838A" transform="translate(40.9453125,33.8046875)"/>
<path d="M0 0 C2.2109885 0.42793326 3.98119242 0.99059621 6 2 C7.66194453 2.35613097 9.328451 2.69208308 11 3 C11 3.99 11 4.98 11 6 C8.8125 7.1875 8.8125 7.1875 6 8 C2.92330513 6.71208122 1.40860757 5.68101262 -0.3125 2.8125 C-0.539375 2.214375 -0.76625 1.61625 -1 1 C-0.67 0.67 -0.34 0.34 0 0 Z " fill="#ADB5BB" transform="translate(5,28)"/>
<path d="M0 0 C0 0.66 0 1.32 0 2 C-2.31 2.33 -4.62 2.66 -7 3 C-5.35 3.33 -3.7 3.66 -2 4 C-2.33 4.66 -2.66 5.32 -3 6 C-7.29 6 -11.58 6 -16 6 C-16.33 5.34 -16.66 4.68 -17 4 C-14.69 4 -12.38 4 -10 4 C-10.33 3.01 -10.66 2.02 -11 1 C-7.27569643 0.30710631 -3.78916254 -0.11144596 0 0 Z " fill="#636E75" transform="translate(34,42)"/>
<path d="M0 0 C0.66 0 1.32 0 2 0 C2 0.66 2 1.32 2 2 C3.65 2 5.3 2 7 2 C7 2.99 7 3.98 7 5 C5.39592672 5.02708567 3.7917215 5.04643483 2.1875 5.0625 C0.84751953 5.07990234 0.84751953 5.07990234 -0.51953125 5.09765625 C-3 5 -3 5 -6 4 C-6 3.34 -6 2.68 -6 2 C-4.02 2 -2.04 2 0 2 C0 1.34 0 0.68 0 0 Z " fill="#8D989F" transform="translate(20,38)"/>
<path d="M0 0 C1.1446875 0.2475 1.1446875 0.2475 2.3125 0.5 C5.00856207 1.00159294 6.44020291 0.8532657 9 0 C9.33 0.99 9.66 1.98 10 3 C8.73160474 3.50615298 7.46016898 4.00469099 6.1875 4.5 C5.12595703 4.91765625 5.12595703 4.91765625 4.04296875 5.34375 C2 6 2 6 -1 6 C-1.042721 4.33388095 -1.04063832 2.66617115 -1 1 C-0.67 0.67 -0.34 0.34 0 0 Z " fill="#C6CDD3" transform="translate(3,23)"/>
<path d="M0 0 C0.99 0.33 1.98 0.66 3 1 C3 1.33 3 1.66 3 2 C4.65 2.33 6.3 2.66 8 3 C8 3.99 8 4.98 8 6 C3.71 5.67 -0.58 5.34 -5 5 C-5 4.34 -5 3.68 -5 3 C-3.35 3 -1.7 3 0 3 C0 2.01 0 1.02 0 0 Z " fill="#DBE0E4" transform="translate(20,25)"/>
<path d="M0 0 C1.22396484 -0.03673828 1.22396484 -0.03673828 2.47265625 -0.07421875 C8.51679643 -0.10379856 8.51679643 -0.10379856 11.6953125 2.3984375 C12.16710937 3.05070313 12.63890625 3.70296875 13.125 4.375 C12.135 4.705 11.145 5.035 10.125 5.375 C9.71725342 4.88604248 9.30950684 4.39708496 8.8894043 3.89331055 C6.70679066 2.01512123 5.73233914 2.02165236 2.89453125 2.08203125 C1.69086914 2.0965332 1.69086914 2.0965332 0.46289062 2.11132812 C-0.37048828 2.13646484 -1.20386719 2.16160156 -2.0625 2.1875 C-3.3299707 2.20780273 -3.3299707 2.20780273 -4.62304688 2.22851562 C-6.70730384 2.26384201 -8.79123277 2.31764861 -10.875 2.375 C-7.74120986 -0.75879014 -4.26475075 0.0066741 0 0 Z " fill="#E1E5E9" transform="translate(24.875,-0.375)"/>
<path d="M0 0 C1.51953125 1.11328125 1.51953125 1.11328125 3 3 C3.07421875 5.91796875 3.07421875 5.91796875 2.6875 9.1875 C2.56761719 10.27417969 2.44773438 11.36085938 2.32421875 12.48046875 C2.21722656 13.31191406 2.11023437 14.14335937 2 15 C1.67 14.34 1.34 13.68 1 13 C0.34 13 -0.32 13 -1 13 C-1 12.01 -1 11.02 -1 10 C-0.34 10 0.32 10 1 10 C0.34 9.34 -0.32 8.68 -1 8 C-0.96712417 5.27130593 -0.43602229 2.7033382 0 0 Z " fill="#A6AEB4" transform="translate(46,11)"/>
<path d="M0 0 C1.43088528 2.86177057 0.59991697 4.93375773 0 8 C-2.31 8 -4.62 8 -7 8 C-6.34 7.67 -5.68 7.34 -5 7 C-3.86649466 4.98330173 -3.86649466 4.98330173 -3 3 C-2.34 3 -1.68 3 -1 3 C-0.67 2.01 -0.34 1.02 0 0 Z " fill="#9099A0" transform="translate(47,26)"/>
<path d="M0 0 C2.64 0 5.28 0 8 0 C7.360625 0.2475 6.72125 0.495 6.0625 0.75 C3.81258459 1.81562433 3.81258459 1.81562433 3.25 4.125 C3.1675 4.74375 3.085 5.3625 3 6 C1.02 6 -0.96 6 -3 6 C-2.67 5.34 -2.34 4.68 -2 4 C-1.01 4 -0.02 4 1 4 C0.67 2.68 0.34 1.36 0 0 Z " fill="#BFC6CC" transform="translate(15,30)"/>
<path d="M0 0 C2.97 0.33 5.94 0.66 9 1 C9.33 1.99 9.66 2.98 10 4 C7.25 4.25 7.25 4.25 4 4 C1.625 2 1.625 2 0 0 Z " fill="#97A1A7" transform="translate(6,29)"/>
<path d="M0 0 C2.64 0.33 5.28 0.66 8 1 C7.67 1.99 7.34 2.98 7 4 C4.36 3.67 1.72 3.34 -1 3 C-0.67 2.01 -0.34 1.02 0 0 Z " fill="#A9B2B9" transform="translate(35,29)"/>
<path d="M0 0 C0 0.99 0 1.98 0 3 C-6.0546875 3.1953125 -6.0546875 3.1953125 -8 3 C-8.66 2.34 -9.32 1.68 -10 1 C-6.78548731 -0.60725635 -3.56387464 -0.05748185 0 0 Z " fill="#556168" transform="translate(24,44)"/>
<path d="M0 0 C0.99 0.33 1.98 0.66 3 1 C1.515 3.475 1.515 3.475 0 6 C-1.32 5.67 -2.64 5.34 -4 5 C-2.68 3.35 -1.36 1.7 0 0 Z " fill="#6D7980" transform="translate(44,34)"/>
<path d="M0 0 C1.98 0 3.96 0 6 0 C6 0.99 6 1.98 6 3 C3.69 3.33 1.38 3.66 -1 4 C-0.67 2.68 -0.34 1.36 0 0 Z " fill="#737F85" transform="translate(14,37)"/>
<path d="M0 0 C0.598125 0.20625 1.19625 0.4125 1.8125 0.625 C0.8125 2.625 0.8125 2.625 -2.25 3.75 C-3.7040625 4.183125 -3.7040625 4.183125 -5.1875 4.625 C-5.1875 3.635 -5.1875 2.645 -5.1875 1.625 C-2.1875 -0.375 -2.1875 -0.375 0 0 Z " fill="#D9DEE2" transform="translate(38.1875,25.375)"/>
<path d="M0 0 C0.66 0.33 1.32 0.66 2 1 C1.21448343 2.31618998 0.4213763 3.62785228 -0.375 4.9375 C-0.81585938 5.66839844 -1.25671875 6.39929687 -1.7109375 7.15234375 C-3 9 -3 9 -5 10 C-3.66511872 6.40608886 -2.03977277 3.24509304 0 0 Z " fill="#465157" transform="translate(47,34)"/>
<path d="M0 0 C0.66 0 1.32 0 2 0 C1.42655063 2.86724686 1.1385485 3.8614515 -1 6 C-1.99 5.67 -2.98 5.34 -4 5 C-2.71937515 3.2925002 -1.38232443 1.62626404 0 0 Z " fill="#E0E4E8" transform="translate(12,2)"/>
<path d="M0 0 C3.375 -0.125 3.375 -0.125 7 0 C7.66 0.66 8.32 1.32 9 2 C5.42355152 3.2380014 2.66305234 2.74926071 -1 2 C-0.67 1.34 -0.34 0.68 0 0 Z " fill="#566269" transform="translate(27,44)"/>
<path d="M0 0 C1.24546405 2.49092811 0.7767578 3.41080733 0 6 C0.66 6 1.32 6 2 6 C2 7.32 2 8.64 2 10 C1.01 9.67 0.02 9.34 -1 9 C-1.09765625 2.84765625 -1.09765625 2.84765625 -1 1 C-0.67 0.67 -0.34 0.34 0 0 Z " fill="#BAC2CA" transform="translate(3,11)"/>
<path d="M0 0 C0.66 0.33 1.32 0.66 2 1 C1.319375 1.61875 1.319375 1.61875 0.625 2.25 C-1.05950374 4.06408095 -1.99265971 5.75285627 -3 8 C-3.66 8 -4.32 8 -5 8 C-4.45773019 4.20411134 -2.79872437 2.52788007 0 0 Z " fill="#CED5DA" transform="translate(9,4)"/>
<path d="M0 0 C1.65 0 3.3 0 5 0 C5 0.99 5 1.98 5 3 C3.02 3 1.04 3 -1 3 C-0.67 2.01 -0.34 1.02 0 0 Z " fill="#A8B1B8" transform="translate(28,30)"/>
<path d="M0 0 C1.65 0 3.3 0 5 0 C5 0.99 5 1.98 5 3 C3.35 3 1.7 3 0 3 C0 2.01 0 1.02 0 0 Z " fill="#C9D1D5" transform="translate(23,25)"/>
<path d="M0 0 C0.99 0.33 1.98 0.66 3 1 C3 1.99 3 2.98 3 4 C1.02 4.99 1.02 4.99 -1 6 C-1.042721 4.33388095 -1.04063832 2.66617115 -1 1 C-0.67 0.67 -0.34 0.34 0 0 Z " fill="#AEB7BE" transform="translate(3,23)"/>
</svg>
