<?xml version="1.0" encoding="UTF-8"?>
<svg version="1.1" xmlns="http://www.w3.org/2000/svg" width="200" height="200">
<path d="M0 0 C1.00023193 0.00523682 2.00046387 0.01047363 3.03100586 0.01586914 C4.1105957 0.0190918 5.19018555 0.02231445 6.30249023 0.02563477 C8.00695313 0.03820312 8.00695313 0.03820312 9.74584961 0.05102539 C11.45611328 0.05779297 11.45611328 0.05779297 13.20092773 0.06469727 C16.02845312 0.07652792 18.85587601 0.09301129 21.68334961 0.11352539 C20.99976061 6.04116799 19.56611093 11.61175477 17.96069336 17.35180664 C17.69575577 18.31378464 17.43081818 19.27576263 17.15785217 20.26689148 C16.31623663 23.32107265 15.46898601 26.37364919 14.62084961 29.42602539 C13.76976342 32.49641785 12.91993433 35.56713992 12.07313538 38.63871765 C11.54716852 40.54587297 11.01862697 42.45232043 10.48728943 44.35798645 C10.2502681 45.21615463 10.01324677 46.07432281 9.76904297 46.95849609 C9.55888046 47.71459671 9.34871796 48.47069733 9.13218689 49.24971008 C8.60530849 51.11807812 8.60530849 51.11807812 8.68334961 53.11352539 C11.65334961 53.11352539 14.62334961 53.11352539 17.68334961 53.11352539 C20.0198284 47.15174433 21.88003326 41.17077951 23.56616211 34.99633789 C23.82589813 34.05797089 24.08563416 33.11960388 24.35324097 32.15280151 C25.17504736 29.18231219 25.99205952 26.21053489 26.80834961 23.23852539 C27.63234026 20.24525324 28.45738988 17.25228549 29.28488159 14.25997925 C29.79789801 12.40423488 30.30881006 10.54790722 30.81741333 8.69094849 C31.04790375 7.85602875 31.27839417 7.02110901 31.51586914 6.16088867 C31.71777863 5.42556915 31.91968811 4.69024963 32.12771606 3.93264771 C32.68334961 2.11352539 32.68334961 2.11352539 33.68334961 0.11352539 C41.93334961 0.11352539 50.18334961 0.11352539 58.68334961 0.11352539 C56.78305527 7.12334425 54.88225724 14.1329936 52.97670746 21.14138031 C52.08924955 24.40590314 51.20268409 27.67066204 50.31835938 30.93603516 C49.3005262 34.69247796 48.27936033 38.4480015 47.25756836 42.20336914 C46.94494553 43.35997543 46.63232269 44.51658173 46.31022644 45.70823669 C44.98489404 50.56845601 43.64027797 55.42232119 42.14355469 60.23291016 C41.93144852 60.91692398 41.71934235 61.60093781 41.50080872 62.30567932 C39.98846524 65.65029214 37.72701727 67.12582406 34.68334961 69.11352539 C31.98050469 69.96822819 29.51024864 70.2494712 26.68432617 70.29052734 C25.52226654 70.3097802 25.52226654 70.3097802 24.33673096 70.329422 C23.50752136 70.33680893 22.67831177 70.34419586 21.82397461 70.35180664 C20.96076599 70.35987839 20.09755737 70.36795013 19.20819092 70.37626648 C17.38254793 70.390079 15.55687942 70.40081379 13.73120117 70.40869141 C11.87305075 70.42020351 10.01493319 70.44064317 8.15698242 70.47021484 C5.46241947 70.51308071 2.76883705 70.52908673 0.07397461 70.53930664 C-1.1576944 70.56556877 -1.1576944 70.56556877 -2.41424561 70.59236145 C-8.11169595 70.57119041 -12.58715311 69.40261179 -17.31665039 66.11352539 C-20.86972052 59.00738513 -17.10119545 49.52827961 -15.07055664 42.45727539 C-14.73998764 41.27379517 -14.40941864 40.09031494 -14.0688324 38.87097168 C-13.3722759 36.38519244 -12.67019479 33.90095536 -11.96289062 31.41821289 C-10.87562005 27.60113142 -9.80466358 23.77976324 -8.73657227 19.95727539 C-8.05716842 17.54034579 -7.37686202 15.12366966 -6.69555664 12.70727539 C-6.21113853 10.98559143 -6.21113853 10.98559143 -5.7169342 9.22912598 C-5.41669846 8.17713013 -5.11646271 7.12513428 -4.80712891 6.04125977 C-4.54287613 5.11132202 -4.27862335 4.18138428 -4.00636292 3.2232666 C-3.00069087 0.14704619 -3.00069087 0.14704619 0 0 Z " fill="#D20B0B" transform="translate(18.316650390625,64.886474609375)"/>
<path d="M0 0 C0.99033234 0.0028299 1.98066467 0.00565979 3.00100708 0.00857544 C6.14923426 0.0197278 9.29717199 0.04482343 12.4453125 0.0703125 C14.58593338 0.08034868 16.72655874 0.08947342 18.8671875 0.09765625 C24.10166047 0.11965092 29.3359658 0.15307917 34.5703125 0.1953125 C33.94235923 6.0980732 32.53249383 10.30876852 30.5703125 16.1953125 C21.0003125 16.5253125 11.4303125 16.8553125 1.5703125 17.1953125 C0.28369134 21.67806399 -0.99966897 26.16149259 -2.27490234 30.64746094 C-2.70953868 32.17273952 -3.14604634 33.69748617 -3.58447266 35.22167969 C-4.21491221 37.41463723 -4.83856187 39.60942971 -5.4609375 41.8046875 C-5.65780151 42.4840033 -5.85466553 43.16331909 -6.05749512 43.86322021 C-6.98358 47.15441366 -7.4296875 49.73703276 -7.4296875 53.1953125 C2.1403125 53.5253125 11.7103125 53.8553125 21.5703125 54.1953125 C20.4453125 62.0703125 20.4453125 62.0703125 19.0078125 66.1328125 C18.73839844 66.90496094 18.46898437 67.67710937 18.19140625 68.47265625 C17.98644531 69.04113281 17.78148437 69.60960937 17.5703125 70.1953125 C11.55634241 70.26963904 5.54264154 70.32399838 -0.47167969 70.36010742 C-2.51632344 70.37516538 -4.56093505 70.39561607 -6.60546875 70.42163086 C-9.54956002 70.45814561 -12.49322307 70.47506901 -15.4375 70.48828125 C-16.3471048 70.50376511 -17.25670959 70.51924896 -18.19387817 70.53520203 C-23.3511896 70.53656018 -27.019376 70.17515052 -31.4296875 67.1953125 C-33.36055977 65.08652773 -34.37566823 63.88233627 -34.60237122 60.99909973 C-33.76834837 54.61263907 -32.38783645 48.52537211 -30.62890625 42.33203125 C-30.35125931 41.33702103 -30.07361237 40.3420108 -29.78755188 39.31684875 C-29.2025581 37.2307837 -28.61323935 35.14592705 -28.01977539 33.06225586 C-27.11588421 29.87822154 -26.23405084 26.68860853 -25.35351562 23.49804688 C-24.77996862 21.46316836 -24.20514309 19.42864969 -23.62890625 17.39453125 C-23.36832932 16.44551437 -23.10775238 15.4964975 -22.83927917 14.51872253 C-21.44181546 9.68360827 -20.25163411 5.68778835 -16.4296875 2.1953125 C-11.19166885 -0.42615784 -5.72307934 -0.06196753 0 0 Z " fill="#D20B0B" transform="translate(165.4296875,64.8046875)"/>
<path d="M0 0 C17.49 0 34.98 0 53 0 C49 15 49 15 48 16 C46.00217874 16.15825258 43.99911166 16.25119171 41.99609375 16.31640625 C40.78115234 16.35830078 39.56621094 16.40019531 38.31445312 16.44335938 C37.03505859 16.48267578 35.75566406 16.52199219 34.4375 16.5625 C33.15423828 16.60568359 31.87097656 16.64886719 30.54882812 16.69335938 C27.36600147 16.799848 24.18309326 16.90185962 21 17 C20.79318604 17.74685059 20.58637207 18.49370117 20.37329102 19.26318359 C19.43848067 22.63438113 18.50053089 26.00469722 17.5625 29.375 C17.23701172 30.550625 16.91152344 31.72625 16.57617188 32.9375 C16.26357422 34.05898437 15.95097656 35.18046875 15.62890625 36.3359375 C15.34088135 37.37282715 15.05285645 38.4097168 14.75610352 39.47802734 C14 42 14 42 13 44 C5.08 44 -2.84 44 -11 44 C-9.875 35 -9.875 35 -8.96850586 31.78710938 C-8.76559937 31.05717773 -8.56269287 30.32724609 -8.3536377 29.57519531 C-8.14283569 28.83881836 -7.93203369 28.10244141 -7.71484375 27.34375 C-7.5192688 26.64411133 -7.32369385 25.94447266 -7.12219238 25.22363281 C-6.40022754 22.6473244 -5.66830117 20.07381583 -4.9375 17.5 C-3.308125 11.725 -1.67875 5.95 0 0 Z " fill="#D20B0B" transform="translate(79,91)"/>
<path d="M0 0 C17.16 0 34.32 0 52 0 C50.68 5.28 49.36 10.56 48 16 C30.84 16 13.68 16 -4 16 C-3 8 -3 8 0 0 Z " fill="#D20B0B" transform="translate(87,65)"/>
<path d="M0 0 C0.66 0.33 1.32 0.66 2 1 C-0.31 3.31 -2.62 5.62 -5 8 C-5.33 7.34 -5.66 6.68 -6 6 C-2.25 1.125 -2.25 1.125 0 0 Z " fill="#D62525" transform="translate(151,66)"/>
</svg>
