<?xml version="1.0" standalone="no"?>
<!DOCTYPE svg PUBLIC "-//W3C//DTD SVG 20010904//EN"
 "http://www.w3.org/TR/2001/REC-SVG-20010904/DTD/svg10.dtd">
<svg version="1.0" xmlns="http://www.w3.org/2000/svg"
 width="28.000000pt" height="28.000000pt" viewBox="0 0 28.000000 28.000000"
 preserveAspectRatio="xMidYMid meet">

<g transform="translate(0.000000,28.000000) scale(0.100000,-0.100000)"
fill="#000000" stroke="none">
<path d="M51 143 c-1 -39 20 -45 37 -10 l11 22 0 -22 c1 -32 27 -29 35 3 9 34
-1 44 -13 13 -10 -24 -10 -24 -10 -1 -1 12 -7 22 -15 22 -8 0 -18 -10 -22 -22
l-8 -23 -7 25 c-7 23 -7 23 -8 -7z"/>
<path d="M153 140 c-1 -18 2 -28 7 -25 6 4 10 15 10 25 0 10 6 21 13 23 6 3 3
6 -8 6 -15 1 -20 -6 -22 -29z"/>
<path d="M192 141 c-9 -26 -8 -28 14 -28 20 0 24 5 24 28 0 18 -5 29 -14 29
-8 0 -19 -13 -24 -29z"/>
</g>
</svg>
