<svg data-ds-icon="AFL" width="20" height="20" viewBox="0 0 24 24" xmlns="http://www.w3.org/2000/svg" fill="none" class="inline-block shrink-0"><path fill="currentColor" d="M7.367 1c1.52 0 2.988.214 4.268.588l.11.028c1.187.344 2.315.825 3.29 1.385l-1.2 1.2 1.3 1.302 1.45-1.476.035.025c.39.282.764.585 1.11.9l-2.063 2.054 1.338 1.329 2.071-2.071c.312.366.624.751.917 1.155l-1.476 1.457 1.3 1.292 1.192-1.183-.04-.077a15.6 15.6 0 0 1 1.452 3.478v-.002l-.028-.111a16 16 0 0 1 .605 4.62v.011c-.077 2.364-1.458 4.4-3.482 5.426l-2.558-2.558 3.099-4.005-.651-.651 2.273.916-3.107-3.117-5.216 6.151 3.933 3.932h-.38l-.28.002c-1.517 0-2.984-.215-4.262-.59l-.11-.027c-5.131-1.48-9.175-5.526-10.678-10.77l.028.113a16 16 0 0 1-.605-4.622v-.393l1.155 1.154 1.366-.449 2.52 2.493-.696 1.12 4.206 4.206 2.118-2.117 2.09 2.09 1.173-1.312-2.015-2.025.915-.916 3.034 3.043 1.283-1.494L13.238 7.6l-5.279 4.95-.073-.073 3.4-6.829-3.41-3.418.798 2.218-.696-.696-6.645 1.512.013-.044a6.3 6.3 0 0 1 5.76-4.218h-.013Q7.229.999 7.367 1"></path><path fill="currentColor" d="M8.571 5.879 6.84 8.647l-1.76-1.76 3.383-1.118z"></path></svg>