<svg data-ds-icon="AmericanFootball" width="20" height="20" viewBox="0 0 24 24" xmlns="http://www.w3.org/2000/svg" fill="none" class="inline-block shrink-0"><path fill="currentColor" d="M22.642 12.627a.94.94 0 0 0-.838-.146l.006-.002a16.4 16.4 0 0 1-2.867.568l-.076.007c-.083-.915-.156-1.804-.22-2.614.85-.323 1.572-.567 1.6-.576C19.068 5.875 15.285 3 10.799 3 5.387 3 1 7.183 1 12.342c0 2.574 1.091 4.905 2.857 6.594 4.489 0 5.485 1.813 8.127 1.813 2.641 0 4.305-1.796 4.305-3.486a4.36 4.36 0 0 0-.85-2.385l.01.015h1.763c.126 1.67.395 3.217.8 4.712l-.041-.18A2.96 2.96 0 0 0 20.61 21q.165 0 .325-.017l-.013.001h.01q.525-.001 1.02-.092l-.033.005c.406-.08.71-.408.732-.808v-.002l.347-6.728.001-.04c0-.28-.14-.53-.355-.69zm-1.526 1.839-.073 1.342c-.508.092-1.135.17-1.77.214l-.058.003c0-.392-.1-.81-.146-1.237.803-.088 1.5-.2 2.184-.347zm-8.711 4.21c-.763 0-1.38-.59-1.38-1.317s.617-1.315 1.38-1.315 1.38.588 1.38 1.315-.618 1.316-1.38 1.316m2.632-5.587a2.6 2.6 0 0 1 .954-1.452l.006-.004c.264-.18.565-.337.884-.46l.03-.01c0 .548.1 1.228.164 1.986a20 20 0 0 1-2.11-.066zm5.832 6.144c-.485 0-1.05-.096-1.188-.445a5 5 0 0 1-.243-1.017l-.004-.029c.43 0 .914-.087 1.517-.165z"></path></svg>