<svg data-ds-icon="Bandy" width="20" height="20" viewBox="0 0 24 24" xmlns="http://www.w3.org/2000/svg" fill="none" class="inline-block shrink-0"><path fill="currentColor" d="m14.462 16.915-.797 1.483-.014.03a5.58 5.58 0 0 1-3.706 2.824l-7.785 1.72.006-.002a.916.916 0 0 1-1.087-1.214l.55-1.646.005-.02a2.76 2.76 0 0 1 2.147-1.81l4.37-.796-.001-.001.028-.005a4.6 4.6 0 0 0 2.995-1.943zm1.951-3.612-1.08 1.994-3.28-1.372 1.062-2.013zM6.988 7.42a3.204 3.204 0 0 1 3.206 3.202c0 1.106-.561 2.08-1.427 2.662l-.177.11-.167.091a3.21 3.21 0 0 1-4.212-1.261l.009.015A3.204 3.204 0 0 1 6.988 7.42m16.03-6.401-5.735 10.665-3.316-1.4 4.891-9.283V1z"></path></svg>