<svg data-ds-icon="Baseball" width="20" height="20" viewBox="0 0 24 24" xmlns="http://www.w3.org/2000/svg" fill="none" class="inline-block shrink-0"><path fill="currentColor" d="M1.119 11.853c.719.26 1.415.57 1.994.881l-.449.998-.033.084a.917.917 0 0 0 .49 1.127l-.005-.001a.9.9 0 0 0 .383.084.92.92 0 0 0 .834-.541l.376-.834.075.045a19 19 0 0 1 2.392 1.834l-1.33 1.32a.916.916 0 0 0 .647 1.568h.011c.238 0 .455-.09.617-.239l1.348-1.283.447.501c.45.524.877 1.082 1.295 1.7l-.917.393-.005.002a.918.918 0 0 0 .364 1.758l.027-.001a.9.9 0 0 0 .375-.082l1.082-.532-.041-.084c.4.746.74 1.527 1.05 2.449h-.148c-6.072-.006-10.994-4.928-10.994-11v-.184z"></path><path fill="currentColor" d="M10.048 1.298c.282.922.643 1.81 1.034 2.562l-1.165.531-.005.003a.917.917 0 0 0 .385 1.748h.024c.136 0 .265-.03.375-.082L12 5.473l.051.086a22 22 0 0 0 2.186 2.848l-.587.595a.913.913 0 0 0 .646 1.56h.005a.92.92 0 0 0 .642-.267l.596-.597c.833.76 1.727 1.455 2.752 2.127l-.56 1.256.003-.005a.916.916 0 0 0 .456 1.216l-.006-.002a.9.9 0 0 0 .382.085.92.92 0 0 0 .833-.542l.485-1.042c.884.46 1.815.85 2.899 1.19l-.01.068c-.837 4.43-4.331 7.922-8.831 8.768l-.031-.12a16 16 0 0 0-1.161-2.813l1.082-.486.006-.001a.918.918 0 0 0-.15-1.822.9.9 0 0 0-.57.2l-1.247.56-.047-.078a19.6 19.6 0 0 0-2.081-2.673l.586-.596v.001a.917.917 0 0 0-1.291-1.293l-.597.586A22 22 0 0 0 5.468 12l.587-1.33-.002.007a.917.917 0 0 0-1.668-.757l-.53 1.16a16 16 0 0 0-2.678-1.06l.01-.068c.837-4.43 4.33-7.922 8.83-8.768z"></path><path fill="currentColor" d="m19.884 12.79-.001.002q-.048-.023-.095-.048zM12 1.002c6.077 0 11.004 4.924 11.004 11v.146l-.111-.034a15 15 0 0 1-2.218-.975l.492-1.075a.95.95 0 0 0-.86-1.348.95.95 0 0 0-.862.554l-.394.915-.063-.04a18 18 0 0 1-2.137-1.7l1.356-1.33a.92.92 0 0 0-.65-1.571.92.92 0 0 0-.653.27l-1.32 1.327a19.5 19.5 0 0 1-1.907-2.438l.834-.376.007-.001a.918.918 0 0 0-.332-1.772.9.9 0 0 0-.427.106l-1 .448.044.09A16 16 0 0 1 11.843 1zM3.946 11.126l-.092-.043.001-.002z"></path></svg>