<svg data-ds-icon="Boxing" width="20" height="20" viewBox="0 0 24 24" xmlns="http://www.w3.org/2000/svg" fill="none" class="inline-block shrink-0"><path fill="currentColor" d="M18.75 20.25v.917c0 1.008-.81 1.833-1.8 1.833h-9.9c-.99 0-1.8-.825-1.8-1.833v-.917zM15.6 1C18.57 1 21 3.475 21 6.5v6.417l-1.71 5.5H6.6l-3.6-5.5v-2.75c0-1.375.99-2.567 2.34-2.75 0 .55.09 1.008.27 1.466.27.733.36 1.467.36 2.2h1.26c0-.825-.09-1.65-.36-2.475-.09-.641-.27-1.192-.27-1.833V3.75C6.6 2.192 7.77 1 9.3 1z"></path></svg>