<svg data-ds-icon="Cricket" width="20" height="20" viewBox="0 0 24 24" xmlns="http://www.w3.org/2000/svg" fill="none" class="inline-block shrink-0"><path fill="currentColor" d="M3.751 4.76c.193-.22.394-.44.605-.64a17.17 17.17 0 0 1 9.854 3.695l-.036-.027a24.7 24.7 0 0 1 7.157 9.923l.058.167c-.196.317-.38.583-.577.84l.018-.024c-1.57-3.778-3.885-6.966-6.782-9.505l-.03-.025A19.07 19.07 0 0 0 3.84 4.769zM2.312 6.78a17.2 17.2 0 0 1 10.357 4.047l-.026-.02a24.06 24.06 0 0 1 6.5 9.347l.055.163A10.94 10.94 0 0 1 12 23C5.925 23 1 18.072 1 11.993c0-1.91.487-3.707 1.342-5.273l-.029.058m4.583-4.522A10.85 10.85 0 0 1 12 1c6.075 0 11 4.928 11 11.007 0 1.142-.174 2.244-.496 3.28l.02-.079c-1.689-3.654-4.084-6.72-7.032-9.136l-.044-.036A18.9 18.9 0 0 0 6.98 2.273l-.113-.015z"></path></svg>