<svg data-ds-icon="Curling" width="20" height="20" viewBox="0 0 24 24" xmlns="http://www.w3.org/2000/svg" fill="none" class="inline-block shrink-0"><path fill="currentColor" d="M22.997 16.651c-.35 2.456-2.51 4.346-5.125 4.349H6.128C3.514 20.997 1.352 19.107 1 16.625h22zm-5.125-5.748c2.614.003 4.776 1.893 5.128 4.375H1l.003-.026c.35-2.456 2.51-4.346 5.126-4.349zM18.044 3c.477 0 .863.377.863.842s-.386.84-.863.84H10.42a1.25 1.25 0 0 0-1.186.836L8.77 6.864h10.015c.449 0 .812.354.812.791v1.11a.8.8 0 0 1-.812.792H5.905a.8.8 0 0 1-.812-.791V7.654a.8.8 0 0 1 .812-.783h1.039l.645-1.885.007-.02C7.996 3.821 9.106 3 10.415 3z"></path></svg>