<svg data-ds-icon="Cycling" width="20" height="20" viewBox="0 0 24 24" xmlns="http://www.w3.org/2000/svg" fill="none" class="inline-block shrink-0"><path fill="currentColor" fill-rule="evenodd" d="M12.278 5.127c.46 0 .886.149 1.229.399l.192.131.007.006a2.23 2.23 0 0 1 .912 1.72l.01.038a5.4 5.4 0 0 0 3.149 3.393l1.495.51-.412 1.271.02.002c2.314.242 4.12 2.25 4.12 4.69C23 19.888 20.944 22 18.409 22s-4.592-2.11-4.592-4.714a4.72 4.72 0 0 1 2.893-4.38l-.046-.017a7.2 7.2 0 0 1-3.314-2.895L11.835 12.2l1.24 1.216v6.599H10.78v-5.59l-2.755-2.707-.918-.65 3.425-5.015.004-.006a2.12 2.12 0 0 1 1.742-.92m6.168 9.307c-1.521 0-2.754 1.266-2.754 2.828s1.233 2.828 2.754 2.828 2.755-1.266 2.755-2.828-1.234-2.828-2.755-2.828" clip-rule="evenodd"></path><path fill="currentColor" fill-rule="evenodd" d="M5.591 12.55c2.536 0 4.592 2.11 4.592 4.713s-2.056 4.713-4.592 4.713-4.59-2.11-4.591-4.713c0-2.603 2.056-4.714 4.591-4.714m0 1.884c-1.52 0-2.754 1.266-2.754 2.828S4.07 20.09 5.59 20.09s2.755-1.266 2.755-2.828-1.233-2.828-2.755-2.828" clip-rule="evenodd"></path><path fill="currentColor" d="M16.212 2c1.212 0 2.195 1.01 2.195 2.254s-.983 2.252-2.195 2.252c-.404 0-.784-.112-1.099-.302l-.01-.007A2.27 2.27 0 0 1 14.02 4.25c0-.415.11-.805.294-1.129l.006-.01A2.18 2.18 0 0 1 16.212 2"></path></svg>