<svg data-ds-icon="Darts" width="20" height="20" viewBox="0 0 24 24" xmlns="http://www.w3.org/2000/svg" fill="none" class="inline-block shrink-0"><path fill="currentColor" d="m18.558 15.941 1.302 1.146c.293.257.183.826-.248 1.247l3.354 3.364L21.673 23l-3.354-3.363c-.421.403-.97.513-1.218.22l-1.146-1.302-.256-.21 2.676-2.677zM8.806 4.492 7.89 6.62l1.218 1.218a13.4 13.4 0 0 1 3.015.075l5.086 6.306-2.996 2.962-6.305-5.088.008.07a13.3 13.3 0 0 1-.09-2.985L6.534 7.894l-2.008.86-3.49-2.905 3.298-.825.696-.751L5.883 1z"></path></svg>