<svg data-ds-icon="Esport" width="20" height="20" viewBox="0 0 24 24" xmlns="http://www.w3.org/2000/svg" fill="none" class="inline-block shrink-0"><path fill="currentColor" d="m22.873 15.5-2.816-8.575C19.68 5.802 18.561 5 17.24 5q-.46.002-.875.122l.02-.005a3 3 0 0 0-1.145.604l.002-.002H8.758a3 3 0 0 0-1.123-.597l-.02-.005A3.1 3.1 0 0 0 6.76 5c-1.321 0-2.44.802-2.812 1.906l-.005.019L1.127 15.5c-.08.235-.127.506-.127.786 0 1.497 1.318 2.71 2.944 2.71 1.322 0 2.44-.8 2.812-1.905l.006-.019 1.04-3.17c.216.076.467.12.73.121 1.024 0 1.875-.684 2.045-1.583l.002-.011h2.834c.171.91 1.022 1.593 2.047 1.594h.005a2.3 2.3 0 0 0 .744-.122l-.014.004 1.039 3.17c.379 1.123 1.498 1.925 2.82 1.925C21.68 19 23 17.786 23 16.288q-.002-.424-.132-.807zM5.553 8.998h-1v-.8h.997c.22.018.39.187.39.393 0 .205-.17.375-.388.393H5.55zm1.42 1.438h-.862v-.928c0-.217.19-.392.426-.392s.426.175.426.392zm0-2.749c0 .217-.19.392-.425.392-.236 0-.426-.175-.426-.392v-.931h.852zm1.563 1.298h-.998c-.22-.019-.39-.188-.39-.394 0-.205.17-.375.39-.393h.998zm7.448.083c-.383 0-.693-.286-.693-.638s.31-.638.692-.638c.383 0 .693.286.693.638s-.31.638-.692.638m1.558 1.435c-.382 0-.693-.286-.693-.638s.31-.638.693-.638.693.286.693.638-.31.638-.693.638m0-2.87c-.382 0-.693-.286-.693-.638s.31-.638.693-.638.693.286.693.638-.31.638-.693.638m1.559 1.435c-.382 0-.693-.286-.693-.638s.31-.638.693-.638.693.286.693.638-.31.638-.693.638"></path></svg>