<svg data-ds-icon="Floorball" width="20" height="20" viewBox="0 0 24 24" xmlns="http://www.w3.org/2000/svg" fill="none" class="inline-block shrink-0"><path fill="currentColor" fill-rule="evenodd" d="m23 1-8.25 17.041a8.2 8.2 0 0 1 0 4.046l.175-.043A24.8 24.8 0 0 1 8.09 23c-2.371 0-4.664-.334-6.66-.913l.015.042A6.3 6.3 0 0 1 1 19.794c0-.822.156-1.609.427-2.287 2.07.586 4.253.901 6.51.901 1.504 0 2.975-.14 4.255-.383L20.579 1zM6.49 21.106c.532.064 1.073.063 1.604.063H9.25l.001-.87H7.994c-.505 0-1.009-.046-1.504-.046zm6.674-1.367c-.697.147-1.394.248-2.082.34v.916a23 23 0 0 0 2.064-.358v-.035l-.003.024a6 6 0 0 0 .02-.887m-10.33-.015c.003.3.036.595.09.849.578.128 1.155.23 1.742.321v-.87a25 25 0 0 1-1.833-.303z" clip-rule="evenodd"></path><path fill="currentColor" d="m1.43 17.502-.003.005-.166-.047z"></path><path fill="currentColor" fill-rule="evenodd" d="M6.957 7.416a3.21 3.21 0 0 1 3.21 3.209c0 1.182-.64 2.214-1.605 2.779l-.168.09A3.21 3.21 0 0 1 4.18 12.23l.009.015a3.208 3.208 0 0 1 2.77-4.829m1.61 5.984-.003.001.012-.005z" clip-rule="evenodd"></path></svg>