<svg data-ds-icon="Futsal" width="20" height="20" viewBox="0 0 24 24" xmlns="http://www.w3.org/2000/svg" fill="none" class="inline-block shrink-0"><path fill="currentColor" d="M2.458 14.235c1.797-1.79 5.014-1.525 7.131.584s2.411 5.232.578 7.058A4.17 4.17 0 0 1 7.665 23a11 11 0 0 1-3.897-2.799 10.9 10.9 0 0 1-2.328-4.185 3.96 3.96 0 0 1 1.018-1.78m11.999.547c2.127-2.073 5.289-2.338 7.086-.612a3.97 3.97 0 0 1 1.009 1.826 10.94 10.94 0 0 1-2.325 4.196 11 11 0 0 1-3.9 2.807 4.1 4.1 0 0 1-2.457-1.16c-1.797-1.789-1.53-4.948.587-7.057m3.337-11.13a11 11 0 0 1 3.815 3.98A10.9 10.9 0 0 1 23 12.957q0 .78-.12 1.552a17.8 17.8 0 0 1-4.06-5.205 8.25 8.25 0 0 1-1.026-5.65m-11.606.008a8.2 8.2 0 0 1-1.026 5.642 17.7 17.7 0 0 1-4.043 5.15A10 10 0 0 1 1 12.957a10.9 10.9 0 0 1 1.386-5.315 11 11 0 0 1 3.802-3.979M12 4.74c2.997 0 5.418 2.044 5.418 4.564S14.998 13.87 12 13.87s-5.418-2.046-5.418-4.566S9.002 4.74 12 4.74M12 2c1.552 0 3.087.33 4.501.968-.303.192-1.577.858-4.501.858s-4.198-.666-4.501-.858A10.95 10.95 0 0 1 12 2"></path></svg>