<svg data-ds-icon="GaelicFootball" width="20" height="20" viewBox="0 0 24 24" xmlns="http://www.w3.org/2000/svg" fill="none" class="inline-block shrink-0"><path fill="currentColor" d="M12.697 17.004c.587 1.846.926 3.803.976 5.858l.065-.009q-.846.14-1.735.147H12a11 11 0 0 1-1.647-.138l.001-.022c.044-2.03.376-3.988.918-5.688h1.467zm-3.34.148a23 23 0 0 0-.83 5.27L8.45 22.4a10.7 10.7 0 0 1-2.25-1.064l-.287-.187a6.6 6.6 0 0 1 .917-3.997zm7.804-.03a6.66 6.66 0 0 1 .951 4.045l.04-.025a10.8 10.8 0 0 1-2.653 1.28l-.002-.049c-.083-1.86-.39-3.664-.852-5.221h2.532zm3.122-12.356a10.96 10.96 0 0 1 2.725 7.246 10.96 10.96 0 0 1-3.125 7.678l-.002-.032a8 8 0 0 0-1.162-3.486 9.8 9.8 0 0 0 .742-3.755l-.008-.412v-.12c0-1.442-.274-2.82-.744-4.01a7.3 7.3 0 0 0 1.229-3.483V4.39zM4.071 4.419a7.25 7.25 0 0 0 1.226 3.453A11.2 11.2 0 0 0 4.556 12l-.009.402c0 1.352.273 2.641.742 3.749l.02-.033a8.05 8.05 0 0 0-1.185 3.554l.002.002a10.96 10.96 0 0 1-3.118-7.67c0-2.956 1.167-5.64 3.062-7.612zm5.291 12.733h-.005l.044-.161zm9.357-.98-.024.062.023-.064zM17.009 8.6a9.2 9.2 0 0 1 .609 3.303V12l-.002-.018q.01.19.01.381a8.2 8.2 0 0 1-.541 2.955H14.03l.001.02H6.923l.018.057a8.4 8.4 0 0 1-.559-3.026l.008-.358-.002-.214c0-1.125.202-2.201.552-3.133h10.09zm-11.71-.725-.002-.003.028-.073zm9.238-.887.044-.176h.005q-.024.089-.05.176M12.01 1c.575.006 1.14.056 1.627.138l-.002.044c-.077 2.006-.407 3.949-.915 5.63h-1.431l.043.166a23.5 23.5 0 0 1-.998-5.84l-.064.009A11 11 0 0 1 12.003 1zm-3.534.654c.126 1.84.453 3.625.913 5.158H6.821l.016.03a6.93 6.93 0 0 1-1.016-3.944l-.036.023c.8-.552 1.676-1 2.687-1.344zm7.098-.054c.83.279 1.615.656 2.316 1.103l.295.195q.005.126.005.252a6.9 6.9 0 0 1-1.04 3.662h-2.564c.476-1.655.786-3.383.913-5.235z"></path></svg>