<svg data-ds-icon="Golf" width="20" height="20" viewBox="0 0 24 24" xmlns="http://www.w3.org/2000/svg" fill="none" class="inline-block shrink-0"><path fill="currentColor" d="M6.446 13.843a1.375 1.375 0 1 1-.163 2.74h-.007a1.375 1.375 0 0 1-1.194-1.54v-.006a1.376 1.376 0 0 1 1.364-1.194m3.69-1.972a1.375 1.375 0 0 1 .31 2.714l-.147.025q-.08.01-.163.01a1.38 1.38 0 0 1-1.307-.949l-.032-.113a1.375 1.375 0 0 1 1.34-1.687M6.645 8.799a1.375 1.375 0 1 1-1.31 1.793l-.031-.114a1.375 1.375 0 0 1 1.341-1.68m6.3-.006a1.375 1.375 0 0 1 .746 2.53l.005-.003a1.357 1.357 0 0 1-1.902-.4l.003.004a1.375 1.375 0 0 1 1.149-2.131"></path><path fill="currentColor" d="M6.955 11.514h-.002l.004-.001zm2.976-5.972a1.374 1.374 0 0 1 .753 2.525l.005-.003a1.385 1.385 0 0 1-1.911-.4l.002.005a1.374 1.374 0 0 1 1.151-2.127m4.601-.596a1.374 1.374 0 1 1-.832 2.47l-.004-.002a1.37 1.37 0 0 1-.262-1.923l.003-.003c.251-.33.649-.542 1.095-.542"></path><path fill="currentColor" fill-rule="evenodd" d="M12 1c6.075 0 11 4.925 11 11s-4.925 11-11 11c-3.489 0-6.598-1.624-8.63-4.18l.017.023A10.96 10.96 0 0 1 1 12C1 5.93 5.917 1.008 11.987 1zm-.013 1.833A9.167 9.167 0 0 0 5.45 18.417c.586.486 1.769 1.32 2.869 1.1 1.558-.312.183-2.558 1.842-3.31 1.66-.751 2.136 1.018 3.254.165 1.118-.852-.376-2.163.779-3.602.972-1.219 2.475-.293 3.182-1.127s-1.265-2.237-.578-3.53c.688-1.292 1.925-.422 2.035-1.613.046-.55-.596-1.21-1.137-1.659l.018.013a9.06 9.06 0 0 0-5.717-2.02z" clip-rule="evenodd"></path></svg>