<svg data-ds-icon="Handball" width="20" height="20" viewBox="0 0 24 24" xmlns="http://www.w3.org/2000/svg" fill="none" class="inline-block shrink-0"><path fill="currentColor" d="m13.585 21.167-5.179-5.179a.913.913 0 0 1 .647-1.56c.252 0 .48.103.646.268l2.594 2.594.65-.651-3.895-3.887a.92.92 0 0 1 1.302-1.302l3.886 3.896.651-.651-3.245-3.245a.913.913 0 0 1 0-1.292.913.913 0 0 1 1.275.01l5.18 5.188.65-.651-1.943-1.944a.916.916 0 1 1 1.293-1.302l2.593 2.594a5.45 5.45 0 0 1 1.099 2.867l.001.02A10.7 10.7 0 0 0 23 12.002V12c0-6.075-4.925-11-11-11S1 5.925 1 12s4.925 11 11 11h.005c1.241 0 2.434-.208 3.545-.591l-.076.022a7 7 0 0 1-1.892-1.268z"></path></svg>