<svg data-ds-icon="IceHockey" width="20" height="20" viewBox="0 0 24 24" xmlns="http://www.w3.org/2000/svg" fill="none" class="inline-block shrink-0"><path fill="currentColor" d="M23.006 1c-.02.045-7.147 15.765-9.39 20.909l-.006.011A1.83 1.83 0 0 1 11.938 23h-6.31l1.504-4.473h3.092a1.84 1.84 0 0 0 1.621-1.027L20.255 1zM3.747 23H1.913a.917.917 0 0 1-.853-1.228l.853-2.118.005-.013a1.835 1.835 0 0 1 1.692-1.133h1.632z"></path><path fill="currentColor" d="M2.83 11.635a9.9 9.9 0 0 0 3.965.825l.162-.002h.064c.844 0 1.668-.09 2.385-.247l.045-.008a6.8 6.8 0 0 0 1.633-.56v1.64c0 .55-.743 1.055-2.063 1.339-1.972.421-4.494.174-5.64-.569l-.006-.001a.96.96 0 0 1-.545-.767zm4.127-4.108c2.27 0 4.11.694 4.11 1.55-.001.854-1.84 1.548-4.11 1.548-2.269 0-4.108-.694-4.108-1.549s1.84-1.55 4.108-1.55"></path></svg>