<svg data-ds-icon="IndyRacing" width="20" height="20" viewBox="0 0 24 24" xmlns="http://www.w3.org/2000/svg" fill="none" class="inline-block shrink-0"><path fill="currentColor" fill-rule="evenodd" d="m16.395 1-1.017 2.716h-2.102l.678 3.331h1.919l.002-.004c.222-.26.514-.456.86-.564l-.047.002a18 18 0 0 1 1.99-.002c0 .014.115 3.502-1.357 4.47.01.022 1.904 4.348-3.73 5.95l-.007.12a36 36 0 0 1-.444 3.713l3.864-2.2v3.093L12.259 23 7.51 21.625v-3.094l3.86 2.198a39 39 0 0 1-.466-3.834c-5.638-1.605-3.73-5.95-3.73-5.95-1.464-.966-1.356-4.47-1.356-4.47l-.046.003a18 18 0 0 1 1.99-.002l.013.003c.332.104.624.301.848.564h1.94l.678-3.327H9.15L8.133 1zm-5.302 11v2.943c0 .653.522 1.182 1.167 1.182.644 0 1.166-.53 1.166-1.182V12z" clip-rule="evenodd"></path><path fill="currentColor" d="M7.238 15.114a.43.43 0 0 1 .428.434v2.203a.43.43 0 0 1-.428.433H6.116a.43.43 0 0 1-.427-.433v-2.203a.43.43 0 0 1 .427-.434zm11.169 0a.43.43 0 0 1 .427.434v2.203a.43.43 0 0 1-.427.433h-1.123a.43.43 0 0 1-.427-.433v-2.203a.43.43 0 0 1 .427-.434zM7.238 2.636c.47 0 .85.387.85.863v1.613c0 .476-.38.862-.85.863H6.11a.86.86 0 0 1-.851-.863V3.499c0-.476.381-.863.851-.863zm11.17 0c.47 0 .85.387.85.863v1.613c0 .476-.38.862-.85.863h-1.13a.86.86 0 0 1-.85-.863V3.499c0-.476.38-.863.85-.863z"></path></svg>