<svg data-ds-icon="Lacrosse" width="20" height="20" viewBox="0 0 24 24" xmlns="http://www.w3.org/2000/svg" fill="none" class="inline-block shrink-0"><path fill="currentColor" d="M2.87 2.87a6.384 6.384 0 0 0 0 9.03c1.054 1.054 2.714 1.65 3.731 1.824 1.595.275 3.547 1.118 4.363 2.19.165.322.385.624.66.89a3.65 3.65 0 0 0 4.171.696l5.5 5.5L23 21.295l-5.5-5.5a3.645 3.645 0 0 0-.696-4.171 4 4 0 0 0-.89-.66c-1.072-.825-1.943-3.162-2.199-4.354-.294-1.347-.77-2.695-1.815-3.74a6.384 6.384 0 0 0-9.029 0m1.944 1.944a3.63 3.63 0 0 1 3.217-.999L3.815 8.032a4 4 0 0 1-.064-.642 3.62 3.62 0 0 1 1.063-2.576m5.747.89-4.849 4.848c-.348-.174-.678-.366-.889-.586-.055-.055-.1-.129-.156-.193l5.115-5.115c.064.055.129.092.192.156.23.23.431.523.596.89zm3.694 7.452.183.137.211.11c.083.046.156.101.23.165a.9.9 0 0 1 .265.651.93.93 0 0 1-.266.651.9.9 0 0 1-.65.266.93.93 0 0 1-.652-.266 1 1 0 0 1-.165-.229l-.11-.201-.137-.184c-1.265-1.658-3.603-2.667-5.454-3.098l3.465-3.465c.311 1.155 1.256 4.061 3.089 5.464zm2.759-5.051a3.21 3.21 0 0 0 4.38 1.173 3.21 3.21 0 0 0 1.174-4.381 3.21 3.21 0 0 0-4.381-1.174 3.21 3.21 0 0 0-1.174 4.382"></path></svg>