<svg data-ds-icon="MMA" width="20" height="20" viewBox="0 0 24 24" xmlns="http://www.w3.org/2000/svg" fill="none" class="inline-block shrink-0"><path fill="currentColor" d="M6.159 20.25H19.2v.917c0 .486-.19.952-.527 1.296A1.78 1.78 0 0 1 17.4 23H7.959c-.477 0-.935-.193-1.273-.537a1.85 1.85 0 0 1-.527-1.296zM21 12.917l-1.8 5.5H6.159L3 12.917V6.5a1 1 0 0 1 .328-.673.96.96 0 0 1 .698-.244H5.7v-.916c0-.73.284-1.43.79-1.945a2.68 2.68 0 0 1 1.91-.805h2.502A2.7 2.7 0 0 1 12.9 1h.9c.377.002.75.085 1.094.243s.652.387.904.674H18.3c.716 0 1.403.29 1.91.805.505.516.79 1.215.79 1.945zM7.5 5.583h2.7V3.75H8.4a.9.9 0 0 0-.636.268.93.93 0 0 0-.264.649zm2.7 1.834H4.8V9.25h3.6c.477 0 .935-.193 1.273-.537a1.85 1.85 0 0 0 .527-1.296m4.5-3.667a.93.93 0 0 0-.264-.648.9.9 0 0 0-.636-.269h-.9a.9.9 0 0 0-.636.269.93.93 0 0 0-.264.648v5.5c0 .243.095.476.264.648a.9.9 0 0 0 .636.269h.9a.9.9 0 0 0 .636-.269.93.93 0 0 0 .264-.648zm4.5.917a.93.93 0 0 0-.264-.649.9.9 0 0 0-.636-.268h-1.8v5.5a2.8 2.8 0 0 1-.162.917H17.4c.477 0 .935-.193 1.273-.537a1.85 1.85 0 0 0 .527-1.297z"></path></svg>