<svg data-ds-icon="Motorcycle" width="20" height="20" viewBox="0 0 24 24" xmlns="http://www.w3.org/2000/svg" fill="none" class="inline-block shrink-0"><path fill="currentColor" d="M19.296 11.143a3.9 3.9 0 0 0-1.546.334l-.915-1.011a5.27 5.27 0 0 1 4.29-.283c-.028-1.119-.522-2.183-1.377-2.964A4.74 4.74 0 0 0 16.552 6h-3.66l1.83 1.714H6.49l-1.83-.857H1l4.766 4.466a3.7 3.7 0 0 0-1.107-.18c-.723 0-1.431.2-2.033.578a3.5 3.5 0 0 0-1.347 1.538 3.23 3.23 0 0 0-.209 1.981c.142.665.49 1.276 1.002 1.756s1.164.806 1.873.938 1.446.064 2.115-.195a3.6 3.6 0 0 0 1.642-1.263 3.3 3.3 0 0 0 .616-1.905 3 3 0 0 0-.192-1.037l2.022 1.895 4.428.728a4.4 4.4 0 0 1-.215-2.397 4.56 4.56 0 0 1 1.084-2.18l.915 1.003a3.28 3.28 0 0 0-.674 2.157c.04.77.356 1.504.897 2.085.54.58 1.274.974 2.082 1.116a3.88 3.88 0 0 0 2.373-.332 3.53 3.53 0 0 0 1.643-1.638 3.23 3.23 0 0 0 .208-2.239 3.42 3.42 0 0 0-1.317-1.878 3.82 3.82 0 0 0-2.276-.711M4.66 16.286c-.362 0-.715-.1-1.016-.29a1.74 1.74 0 0 1-.674-.769 1.6 1.6 0 0 1-.104-.99c.07-.333.245-.638.5-.878a1.87 1.87 0 0 1 .937-.469 1.94 1.94 0 0 1 1.057.098c.335.13.62.35.822.631.2.282.308.613.308.952 0 .455-.193.891-.536 1.213a1.9 1.9 0 0 1-1.294.502m14.637 0c-.362 0-.715-.1-1.016-.29a1.74 1.74 0 0 1-.674-.769 1.6 1.6 0 0 1-.104-.99c.07-.333.245-.638.5-.878a1.87 1.87 0 0 1 .937-.469 1.94 1.94 0 0 1 1.057.098c.335.13.62.35.822.631.2.282.308.613.308.952 0 .455-.193.891-.536 1.213a1.9 1.9 0 0 1-1.294.502"></path></svg>