<svg data-ds-icon="Olympics" width="20" height="20" viewBox="0 0 24 24" xmlns="http://www.w3.org/2000/svg" fill="none" class="inline-block shrink-0"><path fill="currentColor" d="M23 9.869a3.7 3.7 0 0 0-.802-2.318 4.14 4.14 0 0 0-2.124-1.41 4.4 4.4 0 0 0-2.603.059 4.1 4.1 0 0 0-2.05 1.503 4.05 4.05 0 0 0-1.49-1.27 4.36 4.36 0 0 0-1.955-.46c-.682 0-1.353.158-1.954.46a4.05 4.05 0 0 0-1.49 1.27 4.06 4.06 0 0 0-1.517-1.241 4.4 4.4 0 0 0-1.963-.423 4.35 4.35 0 0 0-1.944.495 4 4 0 0 0-1.463 1.297 3.65 3.65 0 0 0-.289 3.647A3.9 3.9 0 0 0 2.6 12.96a4.3 4.3 0 0 0 1.845.758q-.015.228 0 .456a3.7 3.7 0 0 0 .84 2.26 4.15 4.15 0 0 0 2.1 1.366 4.4 4.4 0 0 0 2.558-.052 4.1 4.1 0 0 0 2.034-1.451 4.1 4.1 0 0 0 2.043 1.5 4.4 4.4 0 0 0 2.597.065c.85-.24 1.595-.73 2.125-1.398a3.7 3.7 0 0 0 .814-2.307 4 4 0 0 0-.046-.439 4.2 4.2 0 0 0 2.51-1.318c.64-.707.989-1.606.98-2.532M11.976 7.703c.61 0 1.194.226 1.624.629s.673.95.673 1.52c-.006.203-.04.406-.101.601A4.1 4.1 0 0 0 11.976 12a4.1 4.1 0 0 0-2.195-1.53 2.2 2.2 0 0 1-.101-.601 2 2 0 0 1 .17-.828c.114-.263.282-.502.496-.703.213-.201.467-.361.747-.47.28-.11.58-.165.883-.165M2.79 9.869c0-.57.242-1.117.673-1.52a2.38 2.38 0 0 1 1.624-.63 2.38 2.38 0 0 1 1.624.63c.43.403.672.95.672 1.52q-.01.307-.1.601A4.1 4.1 0 0 0 5.076 12a2.38 2.38 0 0 1-1.611-.626 2.08 2.08 0 0 1-.676-1.505m5.742 6.429a2.38 2.38 0 0 1-1.624-.63 2.08 2.08 0 0 1-.673-1.519q.01-.307.101-.601A4.1 4.1 0 0 0 8.532 12a4.1 4.1 0 0 0 2.195 1.53q.092.295.101.602a2 2 0 0 1-.17.828 2.15 2.15 0 0 1-.496.703 2.3 2.3 0 0 1-.747.47c-.28.109-.58.165-.883.165m6.89 0a2.38 2.38 0 0 1-1.625-.63 2.08 2.08 0 0 1-.672-1.519q.01-.307.1-.601A4.1 4.1 0 0 0 15.422 12a4.1 4.1 0 0 0 2.196 1.53q.091.295.1.602a2 2 0 0 1-.169.828 2.15 2.15 0 0 1-.496.703 2.3 2.3 0 0 1-.748.47c-.28.109-.58.165-.883.165M18.874 12a4.1 4.1 0 0 0-2.204-1.538 2.2 2.2 0 0 1-.101-.602 2.05 2.05 0 0 1 .381-1.195 2.27 2.27 0 0 1 1.028-.795c.419-.165.88-.209 1.326-.128.446.082.856.285 1.178.584.323.3.543.681.634 1.098.09.416.046.849-.126 1.242s-.465.73-.841.967a2.4 2.4 0 0 1-1.275.367"></path></svg>