<svg data-ds-icon="Rugby" width="20" height="20" viewBox="0 0 24 24" xmlns="http://www.w3.org/2000/svg" fill="none" class="inline-block shrink-0"><path fill="currentColor" d="m10.167 1.257-8.91 8.91A15 15 0 0 1 1 7.421v-.004c.003-1.95.366-3.815 1.026-5.533l-.036.106c1.612-.624 3.476-.987 5.426-.99h.001c.975.004 1.926.098 2.847.272zm3.667 21.496a15.3 15.3 0 0 0 2.747.248h.003a15.5 15.5 0 0 0 5.533-1.026l-.106.036c.624-1.612.987-3.476.99-5.426v-.001a16 16 0 0 0-.263-2.847l.015.097zm8.25-11.43-10.762 10.76c-4.394-1.607-7.797-5.01-9.37-9.296l-.035-.108L12.68 1.917c4.393 1.608 7.797 5.011 9.37 9.297zm-5.207 1.008a.914.914 0 0 0-1.32 0l-.633.632-1.284-1.274.642-.641a.95.95 0 1 0-1.365-1.32l-.643.642-1.191-1.284.632-.632a.93.93 0 0 0-1.31-1.32L7.133 10.36a.93.93 0 0 0 1.32 1.31l.632-.586 1.284 1.274-.633.642a.924.924 0 0 0 1.347 1.266v-.001l.642-.633 1.274 1.284-.633.632a.93.93 0 0 0 1.31 1.32l3.227-3.226a.914.914 0 0 0-.036-1.31v-.001z"></path></svg>