<svg data-ds-icon="Snooker" width="20" height="20" viewBox="0 0 24 24" xmlns="http://www.w3.org/2000/svg" fill="none" class="inline-block shrink-0"><path fill="currentColor" d="M2.825 19.35a1.826 1.826 0 1 1 0 3.65 1.826 1.826 0 0 1 0-3.65m4.585 0a1.826 1.826 0 1 1 0 3.65 1.826 1.826 0 0 1 0-3.65m4.59 0a1.826 1.826 0 1 1-.002 3.65A1.826 1.826 0 0 1 12 19.35m4.59 0a1.826 1.826 0 1 1-.001 3.65 1.826 1.826 0 0 1 0-3.65m4.586 0a1.826 1.826 0 1 1 0 3.65 1.826 1.826 0 0 1 0-3.65M5.118 14.763a1.826 1.826 0 1 1-.001 3.652 1.826 1.826 0 0 1 0-3.652m4.59 0a1.826 1.826 0 1 1 0 3.652 1.826 1.826 0 0 1 0-3.652m4.586 0a1.826 1.826 0 1 1-.002 3.652 1.826 1.826 0 0 1 .002-3.652m4.588 0a1.826 1.826 0 1 1 0 3.652 1.826 1.826 0 0 1 0-3.652M7.41 10.175a1.826 1.826 0 1 1 0 3.65 1.826 1.826 0 0 1 0-3.65m4.59 0a1.826 1.826 0 1 1-.001 3.65 1.826 1.826 0 0 1 0-3.65m4.591 0a1.826 1.826 0 1 1 0 3.65 1.826 1.826 0 0 1 0-3.65M9.707 5.586a1.826 1.826 0 1 1 0 3.651 1.826 1.826 0 0 1 0-3.651m4.586 0a1.826 1.826 0 1 1-.001 3.651 1.826 1.826 0 0 1 0-3.651M12 1a1.826 1.826 0 1 1-.001 3.651 1.826 1.826 0 0 1 0-3.651"></path></svg>