<svg data-ds-icon="Soccer" width="20" height="20" viewBox="0 0 24 24" xmlns="http://www.w3.org/2000/svg" fill="none" class="inline-block shrink-0"><path fill="currentColor" d="M22.999 13.368a2.61 2.61 0 0 0-2.19.007l.015-.007a3.45 3.45 0 0 0-1.442-3.766l-.013-.008c1.584-.148 2.414-2.896 2.414-2.896a11.33 11.33 0 0 0-4.43-4.531l-.056-.03s-2.672-.369-3.474.482C12.828 1 10.001 1 10.001 1a11 11 0 0 0-5.704 2.999l.001-.002a2.84 2.84 0 0 0 1.063 2.216l.006.005c-1.41.333-2.875 2.322-2.635 3.127a1.54 1.54 0 0 0-1.273-.62h.002c-.29.95-.459 2.041-.461 3.172v.002c0 1.22.199 2.394.566 3.49l-.022-.077a3.64 3.64 0 0 0 1.134-1.593l.008-.025a4.5 4.5 0 0 0 2.477.737 4.5 4.5 0 0 0 1.305-.19l-.033.008a4.6 4.6 0 0 0-.46 2.015c0 .921.268 1.779.73 2.499l-.011-.018c-.9.13-1.681.562-2.255 1.19l-.002.003A11 11 0 0 0 12.055 23a10.8 10.8 0 0 0 2.719-.35l-.075.017a4.94 4.94 0 0 0-2.612-2.615l-.032-.012c1.29-.074 2.56-1.97 2.763-3.266.927.424 2.01.67 3.15.67q.42 0 .827-.044l-.034.003a4.4 4.4 0 0 0-.312 1.646c0 .593.115 1.159.323 1.677l-.01-.03a11.12 11.12 0 0 0 4.231-7.268L23 13.37zm-8.448 2.008c-1.41-1.998-5.445-3.191-7.564-2.007 1.216-2.997.793-4.95-.718-7.022 2.764.26 6.043-1.184 7.37-3.034.378 2.007 2.579 5.357 4.606 6.032-3.298 1.507-3.676 3.885-3.694 6.031"></path></svg>