<svg data-ds-icon="Squash" width="20" height="20" viewBox="0 0 24 24" xmlns="http://www.w3.org/2000/svg" fill="none" class="inline-block shrink-0"><path fill="currentColor" d="M17.12 16.565a3.227 3.227 0 1 1 .843 6.4 3.227 3.227 0 0 1-.844-6.4"></path><path fill="currentColor" fill-rule="evenodd" d="M17.279 1.023a5.5 5.5 0 0 1 3.773 1.132 5.345 5.345 0 0 1 .348 7.94l-1.623 1.586a9.17 9.17 0 0 1-6.757 2.63 3.47 3.47 0 0 0-2.631.973l-2.622 2.621.752.752-4.282 4.273L1 19.693l4.282-4.273.752.752 2.622-2.621a3.47 3.47 0 0 0 .972-2.632 9.17 9.17 0 0 1 2.632-6.757l1.457-1.458a5.5 5.5 0 0 1 3.562-1.68m.106 2.428a3.04 3.04 0 0 0-1.954.968l-1.43 1.467c-1.558 1.521-2.438 4.244-1.32 5.372s3.833.22 5.382-1.32l1.623-1.613.018.018a2.897 2.897 0 0 0 0-4.107l-.22-.193a3.04 3.04 0 0 0-2.099-.592" clip-rule="evenodd"></path></svg>