<svg data-ds-icon="StockCarRacing" width="20" height="20" viewBox="0 0 24 24" xmlns="http://www.w3.org/2000/svg" fill="none" class="inline-block shrink-0"><path fill="currentColor" d="M6.5 13.406a2.294 2.294 0 0 1 2.292 2.297A2.295 2.295 0 0 1 6.5 18a2.295 2.295 0 0 1-2.292-2.297A2.294 2.294 0 0 1 6.5 13.406m11 0a2.294 2.294 0 0 1 2.292 2.297A2.295 2.295 0 0 1 17.5 18a2.295 2.295 0 0 1-2.292-2.297 2.294 2.294 0 0 1 2.292-2.297"></path><path fill="currentColor" d="M15.667 6.974 17.5 8.81l2.75.552a2.75 2.75 0 0 1 2.145 2.241L23 15.197h-1.879a3.68 3.68 0 0 0-1.242-2.216 3.66 3.66 0 0 0-4.758 0 3.68 3.68 0 0 0-1.242 2.216h-3.758a3.68 3.68 0 0 0-1.242-2.216 3.66 3.66 0 0 0-4.758 0 3.68 3.68 0 0 0-1.242 2.216H1V12.44l.917-1.838V8.765L1 8.27V6.184l2.961 1.599L7.417 6z"></path></svg>