<svg data-ds-icon="Tennis" width="20" height="20" viewBox="0 0 24 24" xmlns="http://www.w3.org/2000/svg" fill="none" class="inline-block shrink-0"><path fill="currentColor" d="M17.41 6.599a7.8 7.8 0 0 0-3.318-1.944l-.065-.017a9.2 9.2 0 0 1-3.876-2.367l-.917-.916-.077.017A11 11 0 0 1 12.005 1c3.03 0 5.773 1.225 7.762 3.206A10.97 10.97 0 0 1 23 11.997C23 18.074 18.075 23 12 23S1 18.074 1 11.997c0-.98.128-1.93.35-2.758l.945.917.001.001a8.83 8.83 0 0 1 2.3 3.868l.012.054a7.63 7.63 0 0 0 3.058 4.257l.204.13a7.674 7.674 0 0 0 9.54-11.867"></path><path fill="currentColor" d="M8.831 3.629a10.9 10.9 0 0 0 4.74 2.751l.041.01a5.86 5.86 0 0 1 4.157 6.16l-.002.026a5.9 5.9 0 0 1-2.593 4.292l.02-.012a5.8 5.8 0 0 1-3.239.984c-2.673 0-4.925-1.803-5.618-4.3l-.018-.075a10.65 10.65 0 0 0-2.732-4.6l-1.549-1.55h.002l.027-.065A10.8 10.8 0 0 1 7.31 2.043z"></path></svg>