<svg data-ds-icon="Volleyball" width="20" height="20" viewBox="0 0 24 24" xmlns="http://www.w3.org/2000/svg" fill="none" class="inline-block shrink-0"><path fill="currentColor" d="M4.357 4.09A10.96 10.96 0 0 1 12.002 1c2.37 0 4.564.749 6.359 2.023L18.326 3a34 34 0 0 1-.403.917c-.147.32-.22.43-.349.65-2.12-.815-4.575-1.288-7.14-1.288q-.405 0-.809.016l.039-.002c-1.936.105-3.751.39-5.5.84zM2.239 6.924c2.214-.79 4.775-1.324 7.436-1.49l.08-.004a18.3 18.3 0 0 1 6.794.955l-.128-.039c-.312.459-.66.917-1.027 1.384a27 27 0 0 0-5.008-.455q-1.49 0-2.94.153l.12-.01A28.8 28.8 0 0 0 1.304 8.76l.203-.06c.22-.69.468-1.278.763-1.84l-.03.062m20.763 5.912a21 21 0 0 1-1.877 1.808l-.03.025a15 15 0 0 0-.916-1.714 22 22 0 0 0 2.544-3.137l.05-.08c.146.68.229 1.462.229 2.264zm-1.146-5.729-.101.184a19 19 0 0 1-2.761 3.843l.01-.012c-.586-.743-1.136-1.485-1.778-2.218a24 24 0 0 0 2.54-3.926l.064-.135c.064-.129.128-.248.183-.376.717.76 1.331 1.63 1.814 2.576zM20.362 19.15a11 11 0 0 1-4.153 3.016l-.073.027a20.6 20.6 0 0 1-1.577-2.863l-.054-.134c-1.275-2.815-2.272-6.087-2.83-9.506l-.03-.228c1.364.087 2.62.253 3.85.498l-.183-.03a22.3 22.3 0 0 1 4.086 6.164l.056.142c.345.814.657 1.788.885 2.793zm-19.36-8.02a31 31 0 0 1 2.219-.724c.1 2.928.69 5.688 1.69 8.244l-.059-.17c.41 1.128.802 2.036 1.239 2.917l-.075-.166c-3.037-1.991-5.014-5.379-5.014-9.228zm8.434-1.714c.627 3.993 1.714 7.58 3.224 10.938l-.108-.27a26 26 0 0 0 1.506 2.87l-.067-.12c-.57.105-1.224.166-1.893.166h-.102.006a11.4 11.4 0 0 1-2.773-.348l.078.017a22.8 22.8 0 0 1-2.36-4.76l-.051-.162c-.926-2.33-1.475-5.03-1.504-7.853v-.011a25 25 0 0 1 4.079-.467z"></path></svg>