<svg data-ds-icon="Waterpolo" width="20" height="20" viewBox="0 0 24 24" xmlns="http://www.w3.org/2000/svg" fill="none" class="inline-block shrink-0"><path fill="currentColor" d="M12.001 18.416c1.265-.02 2.5.383 3.51 1.146.559.46 1.265.704 1.989.687a3.05 3.05 0 0 0 1.99-.687A5.64 5.64 0 0 1 23 18.416v2.75a5.64 5.64 0 0 0-3.51 1.146 3.05 3.05 0 0 1-1.99.687 3.02 3.02 0 0 1-1.98-.687 5.67 5.67 0 0 0-3.519-1.146 5.67 5.67 0 0 0-3.51 1.146 3.02 3.02 0 0 1-1.99.687 3 3 0 0 1-1.988-.687 5.67 5.67 0 0 0-3.511-1.146v-2.75a5.67 5.67 0 0 1 3.52 1.146 3 3 0 0 0 1.979.687 3.02 3.02 0 0 0 1.99-.696 5.77 5.77 0 0 1 3.262-1.137z"></path><path fill="currentColor" d="M12.615 13.834a5.74 5.74 0 0 1 2.896 1.145 3.02 3.02 0 0 0 1.989.688 3.05 3.05 0 0 0 2.026-.707l.394-.256a5.5 5.5 0 0 1 1.64-.706 6 6 0 0 1 1.44-.164v2.75a5.64 5.64 0 0 0-3.51 1.145 3.05 3.05 0 0 1-1.99.688 3.02 3.02 0 0 1-1.98-.707 5.7 5.7 0 0 0-3.18-1.126h-.339a5.67 5.67 0 0 0-3.51 1.145 3.02 3.02 0 0 1-1.99.688q-.272 0-.54-.037l-.377-.092a3.7 3.7 0 0 1-1.071-.559 5.67 5.67 0 0 0-3.511-1.145v-2.75a5.67 5.67 0 0 1 3.52 1.145 3 3 0 0 0 1.979.688 3.02 3.02 0 0 0 1.99-.688A5.67 5.67 0 0 1 12 13.834zM8.132 5.795c.073.383.223.748.44 1.072a4.26 4.26 0 0 0 3.493 1.669c1.778 0 5.05.56 8.249 3.941-.65.25-1.265.58-1.834.98l-.275.175a10 10 0 0 0-4.133-2.503l-.34 1.055A8 8 0 0 0 12 12a7.4 7.4 0 0 0-4.537 1.457l-.412.257 1.282-3.987a5.7 5.7 0 0 1-1.658-1.576 5.04 5.04 0 0 1-.853-2.356c.741.298 1.57.298 2.31 0"></path><path fill="currentColor" d="M12.768 3.04a2.192 2.192 0 0 1 1.8 3.626 2.191 2.191 0 1 1-1.8-3.627M6.82 1.005a1.835 1.835 0 0 1 1.514 3.03c-.188.24-.43.431-.705.56h-.065l-.247.073h-.449a1.83 1.83 0 0 1-1.027-.366l-.091-.083a1.836 1.836 0 0 1 .076-2.834c.287-.222.633-.355.995-.38"></path></svg>