<?xml version="1.0" encoding="UTF-8"?>
<svg version="1.1" xmlns="http://www.w3.org/2000/svg" width="128" height="128">
<path d="M0 0 C6.97919044 4.00140252 12.10783641 10.07429846 14.42578125 17.80078125 C17.0618351 31.66447185 8.00773931 49.55337327 0.42578125 60.80078125 C-1.80700187 63.26454193 -3.80840463 64.90267352 -6.57421875 66.80078125 C-7.23421875 66.80078125 -7.89421875 66.80078125 -8.57421875 66.80078125 C-8.72697266 67.76564453 -8.72697266 67.76564453 -8.8828125 68.75 C-9.80758697 72.83050202 -11.21654996 76.6822804 -12.63671875 80.61328125 C-12.91837891 81.40154297 -13.20003906 82.18980469 -13.49023438 83.00195312 C-14.18180413 84.93600414 -14.87759153 86.86854613 -15.57421875 88.80078125 C-17.72265625 88.27994792 -19.87109375 87.75911458 -22.01953125 87.23828125 C-27.35690922 86.32423487 -31.03686169 86.65175178 -35.83203125 89.20703125 C-36.78722656 89.70332031 -37.74242187 90.19960937 -38.7265625 90.7109375 C-39.70753906 91.23558594 -40.68851563 91.76023437 -41.69921875 92.30078125 C-43.65631918 93.33929478 -45.61712409 94.37086514 -47.58203125 95.39453125 C-48.4445752 95.85537109 -49.30711914 96.31621094 -50.19580078 96.79101562 C-52.57421875 97.80078125 -52.57421875 97.80078125 -56.57421875 97.80078125 C-58.24775245 94.84628212 -59.9118586 91.88657945 -61.57421875 88.92578125 C-62.05117188 88.08402344 -62.528125 87.24226563 -63.01953125 86.375 C-63.47070312 85.56933594 -63.921875 84.76367188 -64.38671875 83.93359375 C-64.80566406 83.18996582 -65.22460938 82.44633789 -65.65625 81.68017578 C-66.57421875 79.80078125 -66.57421875 79.80078125 -66.57421875 77.80078125 C-67.35796875 77.75953125 -68.14171875 77.71828125 -68.94921875 77.67578125 C-77.51508995 75.60815717 -85.72153638 69.62938128 -90.94921875 62.61328125 C-93.27281817 58.22640268 -93.09036552 53.64071494 -92.57421875 48.80078125 C-92.24421875 47.81078125 -91.91421875 46.82078125 -91.57421875 45.80078125 C-92.57552092 44.09881146 -92.57552092 44.09881146 -94.01171875 42.36328125 C-97.50454613 37.08501418 -97.4859385 31.93969422 -96.57421875 25.80078125 C-92.3494967 16.47118672 -82.68665629 11.43544528 -73.76171875 7.42578125 C-72.82134766 6.98878906 -71.88097656 6.55179688 -70.91210938 6.1015625 C-65.01444823 3.37826793 -60.59970202 1.6610595 -54.01171875 1.67578125 C-52.85542969 1.67320313 -51.69914062 1.670625 -50.5078125 1.66796875 C-47.57421875 1.80078125 -47.57421875 1.80078125 -45.57421875 2.80078125 C-45.33058594 2.1975 -45.08695313 1.59421875 -44.8359375 0.97265625 C-36.3839576 -13.57626271 -11.75212878 -5.47481569 0 0 Z " fill="#120202" transform="translate(105.57421875,19.19921875)"/>
<path d="M0 0 C5.99413097 3.29562373 9.35283456 8.87363788 12.3515625 14.87109375 C14.51313487 29.15388839 6.15426584 44.36999924 -1.6484375 55.87109375 C-5.59154371 60.68467152 -5.59154371 60.68467152 -9.39453125 61.35546875 C-13.67739942 60.71792295 -17.61365159 59.49820857 -21.7109375 58.12109375 C-23.40087246 57.56849268 -25.0909775 57.01641149 -26.78125 56.46484375 C-27.60657227 56.19285156 -28.43189453 55.92085937 -29.28222656 55.640625 C-33.5256488 54.26059334 -37.80496976 53.00187686 -42.08203125 51.73046875 C-48.08932868 49.71889275 -48.08932868 49.71889275 -49.84375 47.05859375 C-53.53231786 38.37961056 -56.22973687 29.26057022 -53.6484375 19.87109375 C-52.18503048 17.45454664 -50.69397607 15.86418261 -48.6484375 13.87109375 C-45.66015436 14.19415139 -44.03522505 14.52298496 -41.7734375 16.55859375 C-40.15080631 19.8940023 -40.4938861 21.33952475 -41.6484375 24.87109375 C-43.48369555 27.67974834 -45.50671892 30.2905521 -47.6484375 32.87109375 C-43.17160688 31.06314292 -41.78643209 28.40459875 -39.63671875 24.23828125 C-38.21317349 20.82852461 -38.05152261 18.51890694 -38.6484375 14.87109375 C-39.59532148 12.79038731 -40.65444579 10.79743857 -41.73828125 8.78515625 C-43.10336466 5.91437998 -43.27010028 3.97940763 -42.6484375 0.87109375 C-32.22498561 -12.23267433 -13.04579119 -5.5608166 0 0 Z " fill="#D92B35" transform="translate(104.6484375,22.12890625)"/>
<path d="M0 0 C6.20591039 7.6835081 6.20591039 7.6835081 5.75 12.8125 C5.5025 13.864375 5.255 14.91625 5 16 C4.79481065 17.62286123 4.60807878 19.24813672 4.4375 20.875 C4.293125 22.23625 4.14875 23.5975 4 25 C5.485 19.555 5.485 19.555 7 14 C10.95284453 13.01178887 11.86392678 12.9831419 15.52734375 14.07421875 C16.83119019 14.45489502 16.83119019 14.45489502 18.16137695 14.84326172 C19.53555786 15.26115967 19.53555786 15.26115967 20.9375 15.6875 C21.87231201 15.96352051 22.80712402 16.23954102 23.77026367 16.52392578 C26.51698398 17.33820744 29.25907288 18.16645076 32 19 C32.7434668 19.22478027 33.48693359 19.44956055 34.25292969 19.68115234 C37.84153904 20.76779505 41.42412388 21.87217265 45 23 C44.31462073 26.86239774 43.25516907 30.4727533 42 34.1875 C41.649375 35.23292969 41.29875 36.27835938 40.9375 37.35546875 C40 40 40 40 39 42 C34.01155691 41.3900874 29.39844654 40.36525565 24.5625 38.9375 C22.70818359 38.39416016 22.70818359 38.39416016 20.81640625 37.83984375 C19.88699219 37.56269531 18.95757812 37.28554687 18 37 C17.67 37.99 17.34 38.98 17 40 C15.34795544 40.70211894 13.68076231 41.36971413 12 42 C11.505 42.99 11.505 42.99 11 44 C11.53109375 43.71125 12.0621875 43.4225 12.609375 43.125 C13.31578125 42.75375 14.0221875 42.3825 14.75 42 C15.44609375 41.62875 16.1421875 41.2575 16.859375 40.875 C19 40 19 40 23 40 C23 40.66 23 41.32 23 42 C19.92916263 43.56753668 16.8418043 45.09929106 13.75 46.625 C12.87730469 47.07101563 12.00460938 47.51703125 11.10546875 47.9765625 C10.26113281 48.3890625 9.41679688 48.8015625 8.546875 49.2265625 C7.77182617 49.61408691 6.99677734 50.00161133 6.19824219 50.40087891 C4 51 4 51 1.82006836 50.28051758 C-0.88776554 48.37540841 -1.78829817 46.02995889 -3.1875 43.0625 C-3.69667969 42.00160156 -4.20585938 40.94070312 -4.73046875 39.84765625 C-6 37 -6 37 -7 34 C-5.02 33.34 -3.04 32.68 -1 32 C-2.10794922 32.10441406 -2.10794922 32.10441406 -3.23828125 32.2109375 C-12.69891344 32.71582511 -18.88473199 30.19525578 -26.171875 24.21875 C-30.76791243 19.88859903 -32.91359947 16.63521624 -33.125 10.1875 C-33.08375 9.135625 -33.0425 8.08375 -33 7 C-28.99434629 5.39773852 -25.91390601 6.52305434 -22 8 C-20.99503148 11.01490557 -20.89664697 13.04181692 -20.9375 16.1875 C-20.94652344 17.08855469 -20.95554687 17.98960938 -20.96484375 18.91796875 C-20.97644531 19.60503906 -20.98804688 20.29210937 -21 21 C-20.01 21 -19.02 21 -18 21 C-18.33 16.71 -18.66 12.42 -19 8 C-17.96359375 7.59007813 -16.9271875 7.18015625 -15.859375 6.7578125 C-14.48954661 6.2136341 -13.11975698 5.66935813 -11.75 5.125 C-11.06808594 4.85558594 -10.38617188 4.58617188 -9.68359375 4.30859375 C-6.38479027 2.9954778 -3.13787064 1.66598286 0 0 Z " fill="#5B5C5C" transform="translate(49,62)"/>
<path d="M0 0 C0.9590625 -0.02578125 1.918125 -0.0515625 2.90625 -0.078125 C5.5 0.25 5.5 0.25 7.26953125 1.50390625 C9.38694795 4.50862138 9.73961685 7.6820483 10.5 11.25 C8.89125 11.12625 8.89125 11.12625 7.25 11 C3.51721797 10.9041623 3.51721797 10.9041623 1.1875 13 C-2.62004844 18.07673125 -2.75876487 21.79536816 -2.625 28 C-2.61597656 28.79277344 -2.60695312 29.58554687 -2.59765625 30.40234375 C-2.57417012 32.35169281 -2.53830137 34.30088575 -2.5 36.25 C-4.58129104 37.23350025 -6.66511359 38.21164458 -8.75 39.1875 C-9.91015625 39.73277344 -11.0703125 40.27804688 -12.265625 40.83984375 C-17.9679113 43.32598548 -23.29775806 44.08968814 -29.5 43.25 C-33.51358569 41.51923443 -35.90484672 39.0755352 -38.4375 35.5625 C-40.29131995 29.78294369 -40.56974786 24.56778703 -38 19 C-32.26966368 12.69663005 -25.36959702 8.9217298 -17.6875 5.4375 C-16.84251953 5.04369141 -15.99753906 4.64988281 -15.12695312 4.24414062 C-9.95986569 1.8514385 -5.77632972 0.09316661 0 0 Z " fill="#BA2937" transform="translate(51.5,23.75)"/>
<path d="M0 0 C0 0.33 0 0.66 0 1 C-1.258125 0.855625 -2.51625 0.71125 -3.8125 0.5625 C-9.20129495 -0.03816186 -14.59883791 -0.52550539 -20 -1 C-20 -0.34 -20 0.32 -20 1 C-20.99 1 -21.98 1 -23 1 C-21.6910428 4.12197478 -21.6910428 4.12197478 -19 6 C-15.76260174 11.03246897 -15.62201743 15.11168112 -15.8125 20.875 C-15.83280273 22.050625 -15.83280273 22.050625 -15.85351562 23.25 C-15.88858211 25.16696782 -15.94237928 27.08357751 -16 29 C-16.66 29 -17.32 29 -18 29 C-18.33 30.32 -18.66 31.64 -19 33 C-19.99 33 -20.98 33 -22 33 C-21.34 33.99 -20.68 34.98 -20 36 C-20.34729232 39.47292322 -21.97878693 42.20139729 -24 45 C-24.99 45 -25.98 45 -27 45 C-26.938125 45.7425 -26.87625 46.485 -26.8125 47.25 C-27 50 -27 50 -30 54 C-25.38 55.32 -20.76 56.64 -16 58 C-20.52721936 59.13180484 -22.14728372 58.60013613 -26.5 57.1875 C-27.6240625 56.83042969 -28.748125 56.47335938 -29.90625 56.10546875 C-36.50759372 53.74665527 -36.50759372 53.74665527 -38.1953125 51.1875 C-41.88388036 42.50851681 -44.58129937 33.38947647 -42 24 C-40.53659298 21.58345289 -39.04553857 19.99308886 -37 18 C-34.01171686 18.32305764 -32.38678755 18.65189121 -30.125 20.6875 C-28.50236881 24.02290855 -28.8454486 25.468431 -30 29 C-31.83525805 31.80865459 -33.85828142 34.41945835 -36 37 C-31.52316938 35.19204917 -30.13799459 32.533505 -27.98828125 28.3671875 C-26.56473599 24.95743086 -26.40308511 22.64781319 -27 19 C-27.94688398 16.91929356 -29.00600829 14.92634482 -30.08984375 12.9140625 C-31.45492716 10.04328623 -31.62166278 8.10831388 -31 5 C-23.33484606 -4.63619352 -10.7795167 -3.38180916 0 0 Z " fill="#CD2E37" transform="translate(93,18)"/>
<path d="M0 0 C2.53790877 3.14217277 4.49650649 6.24126622 6 10 C5.74300885 12.01123511 5.39951635 14.01216253 5 16 C4.855625 17.01320313 4.71125 18.02640625 4.5625 19.0703125 C3.10115692 27.00621731 3.10115692 27.00621731 0.1171875 29.69921875 C-4.33499208 31.90979572 -8.7702256 32.64914365 -13.671875 31.80078125 C-21.08720181 29.25020743 -27.65774746 23.47332113 -32 17 C-33.1577506 13.52674819 -33.06866652 10.63932552 -33 7 C-28.99434629 5.39773852 -25.91390601 6.52305434 -22 8 C-20.99503148 11.01490557 -20.89664697 13.04181692 -20.9375 16.1875 C-20.94652344 17.08855469 -20.95554687 17.98960938 -20.96484375 18.91796875 C-20.97644531 19.60503906 -20.98804688 20.29210937 -21 21 C-20.01 21 -19.02 21 -18 21 C-18.33 16.71 -18.66 12.42 -19 8 C-17.96359375 7.59007813 -16.9271875 7.18015625 -15.859375 6.7578125 C-14.48954661 6.2136341 -13.11975698 5.66935813 -11.75 5.125 C-11.06808594 4.85558594 -10.38617188 4.58617188 -9.68359375 4.30859375 C-6.38479027 2.9954778 -3.13787064 1.66598286 0 0 Z " fill="#A91B2B" transform="translate(49,62)"/>
<path d="M0 0 C0.33 0.99 0.66 1.98 1 3 C0.38125 3.680625 -0.2375 4.36125 -0.875 5.0625 C-4.32157476 9.82688276 -4.31702896 14.81020088 -3.74609375 20.5546875 C-3.30647939 23.09732191 -2.70977038 25.51974684 -2 28 C-1.68289062 29.23169922 -1.68289062 29.23169922 -1.359375 30.48828125 C-0.13872957 34.14423399 0.89925408 36.35272377 4.28515625 38.34375 C7.16521791 39.43775903 10.00978861 40.25913026 13 41 C13.97839844 41.25007813 14.95679688 41.50015625 15.96484375 41.7578125 C17.95371154 42.25437607 19.94601333 42.7373744 21.94140625 43.20703125 C26.1259366 44.29190949 30.15585954 45.73913842 34.2109375 47.23046875 C37.32504742 48.08968395 39.78421033 48.30312771 43 48 C44.92847854 46.98843307 44.92847854 46.98843307 46.375 45.5 C47.24125 44.675 48.1075 43.85 49 43 C48.34 45.31 47.68 47.62 47 50 C39.08546634 51.91867483 32.75220707 50.61348263 25.1875 48.1875 C24.34896484 47.92646484 23.51042969 47.66542969 22.64648438 47.39648438 C19.17543022 46.31594868 15.70830078 45.22298126 12.24072266 44.13134766 C10.90920166 43.72021729 10.90920166 43.72021729 9.55078125 43.30078125 C8.74938721 43.05110596 7.94799316 42.80143066 7.12231445 42.54418945 C4.88083051 41.87581098 4.88083051 41.87581098 2 42 C1.01 45.96 0.02 49.92 -1 54 C-1.66 53.67 -2.32 53.34 -3 53 C-2.85636473 51.62476865 -2.70996483 50.24982598 -2.5625 48.875 C-2.47871094 48.04742187 -2.39492188 47.21984375 -2.30859375 46.3671875 C-2 44 -2 44 -1.125 41 C-0.92749131 36.25979135 -3.49554706 32.89966721 -6 29 C-7.30324219 29.63228516 -7.30324219 29.63228516 -8.6328125 30.27734375 C-9.78523438 30.82519531 -10.93765625 31.37304688 -12.125 31.9375 C-13.83042969 32.75541016 -13.83042969 32.75541016 -15.5703125 33.58984375 C-18.78186661 34.9103119 -21.56709079 35.58784221 -25 36 C-24.83628906 36.56203125 -24.67257813 37.1240625 -24.50390625 37.703125 C-23.97135003 40.13059056 -23.90101319 42.26889681 -23.9375 44.75 C-23.94652344 45.54921875 -23.95554687 46.3484375 -23.96484375 47.171875 C-23.97644531 47.77515625 -23.98804688 48.3784375 -24 49 C-24.99 49 -25.98 49 -27 49 C-27.19456705 47.04235617 -27.38044247 45.08384679 -27.5625 43.125 C-27.66691406 42.03445312 -27.77132813 40.94390625 -27.87890625 39.8203125 C-28 37 -28 37 -27 35 C-28.32 34.34 -29.64 33.68 -31 33 C-30.26136719 32.91363281 -29.52273437 32.82726562 -28.76171875 32.73828125 C-21.93489582 31.79276194 -16.34251013 30.11378044 -10.1796875 27.0234375 C-8 26 -8 26 -6 26 C-6.15855469 25.47019531 -6.31710938 24.94039062 -6.48046875 24.39453125 C-7.83481929 18.15229907 -8.35191123 10.53742718 -5.1875 4.8125 C-3 2 -3 2 0 0 Z " fill="#230503" transform="translate(55,34)"/>
<path d="M0 0 C0 0.99 0 1.98 0 3 C-0.66 3 -1.32 3 -2 3 C-2.10183594 3.64324219 -2.20367187 4.28648438 -2.30859375 4.94921875 C-3.23336822 9.02972077 -4.64233121 12.88149915 -6.0625 16.8125 C-6.34416016 17.60076172 -6.62582031 18.38902344 -6.91601562 19.20117188 C-7.60758538 21.13522289 -8.30337278 23.06776488 -9 25 C-11.1484375 24.47916667 -13.296875 23.95833333 -15.4453125 23.4375 C-20.78269047 22.52345362 -24.46264294 22.85097053 -29.2578125 25.40625 C-30.21300781 25.90253906 -31.16820312 26.39882812 -32.15234375 26.91015625 C-33.13332031 27.43480469 -34.11429688 27.95945312 -35.125 28.5 C-37.08210043 29.53851353 -39.04290534 30.57008389 -41.0078125 31.59375 C-41.87035645 32.05458984 -42.73290039 32.51542969 -43.62158203 32.99023438 C-46 34 -46 34 -50 34 C-51.6735337 31.04550087 -53.33763985 28.0857982 -55 25.125 C-55.47695313 24.28324219 -55.95390625 23.44148438 -56.4453125 22.57421875 C-56.89648438 21.76855469 -57.34765625 20.96289062 -57.8125 20.1328125 C-58.23144531 19.38918457 -58.65039062 18.64555664 -59.08203125 17.87939453 C-60 16 -60 16 -60 14 C-61.65 13.67 -63.3 13.34 -65 13 C-65 12.67 -65 12.34 -65 12 C-61.7 12 -58.4 12 -55 12 C-55 11.34 -55 10.68 -55 10 C-53.35 10 -51.7 10 -50 10 C-50.33 10.66 -50.66 11.32 -51 12 C-54.0625 12.625 -54.0625 12.625 -57 13 C-56.51789062 13.81984375 -56.03578125 14.6396875 -55.5390625 15.484375 C-54.90742187 16.56203125 -54.27578125 17.6396875 -53.625 18.75 C-52.99851562 19.81734375 -52.37203125 20.8846875 -51.7265625 21.984375 C-50.40227337 24.29738678 -49.15363154 26.59951417 -48 29 C-42.0119188 27.2209324 -36.58583282 24.91642774 -31.06640625 21.98828125 C-29 21 -29 21 -27 21 C-27 20.34 -27 19.68 -27 19 C-27.69867188 19.28875 -28.39734375 19.5775 -29.1171875 19.875 C-30.02726562 20.24625 -30.93734375 20.6175 -31.875 21 C-32.77992187 21.37125 -33.68484375 21.7425 -34.6171875 22.125 C-37 23 -37 23 -39 23 C-38.67 22.01 -38.34 21.02 -38 20 C-36.34795544 19.29788106 -34.68076231 18.63028587 -33 18 C-32.67 17.34 -32.34 16.68 -32 16 C-27.01155691 16.6099126 -22.39844654 17.63474435 -17.5625 19.0625 C-16.32628906 19.42472656 -15.09007812 19.78695312 -13.81640625 20.16015625 C-12.88699219 20.43730469 -11.95757812 20.71445313 -11 21 C-10.82984375 20.31035156 -10.6596875 19.62070313 -10.484375 18.91015625 C-6.97715831 5.31036389 -6.97715831 5.31036389 -4 1 C-1.87109375 0.2578125 -1.87109375 0.2578125 0 0 Z " fill="#050504" transform="translate(99,83)"/>
<path d="M0 0 C0.99 0.33 1.98 0.66 3 1 C2.67 3.31 2.34 5.62 2 8 C3.175625 8.12375 4.35125 8.2475 5.5625 8.375 C9.54120426 8.86435935 13.17766559 9.8055205 17 11 C16.3125 12.875 16.3125 12.875 15 15 C13.35636866 15.72159424 11.68949614 16.39351421 10 17 C9.67 17.66 9.34 18.32 9 19 C9.53109375 18.71125 10.0621875 18.4225 10.609375 18.125 C11.31578125 17.75375 12.0221875 17.3825 12.75 17 C13.44609375 16.62875 14.1421875 16.2575 14.859375 15.875 C17 15 17 15 21 15 C21 15.66 21 16.32 21 17 C17.92916263 18.56753668 14.8418043 20.09929106 11.75 21.625 C10.87730469 22.07101563 10.00460938 22.51703125 9.10546875 22.9765625 C8.26113281 23.3890625 7.41679688 23.8015625 6.546875 24.2265625 C5.77182617 24.61408691 4.99677734 25.00161133 4.19824219 25.40087891 C2 26 2 26 -0.17993164 25.28051758 C-2.88776554 23.37540841 -3.78829817 21.02995889 -5.1875 18.0625 C-5.95126953 16.47115234 -5.95126953 16.47115234 -6.73046875 14.84765625 C-8 12 -8 12 -9 9 C-7.02 8.34 -5.04 7.68 -3 7 C-4.32 6.34 -5.64 5.68 -7 5 C-4.35261084 3.5393715 -3.10551666 3 0 3 C0 2.01 0 1.02 0 0 Z " fill="#150907" transform="translate(51,87)"/>
<path d="M0 0 C2.98828314 0.32305764 4.61321245 0.65189121 6.875 2.6875 C8.49763119 6.02290855 8.1545514 7.468431 7 11 C5.16474195 13.80865459 3.14171858 16.41945835 1 19 C2.32 18.67 3.64 18.34 5 18 C5 18.66 5 19.32 5 20 C6.32 20 7.64 20 9 20 C9 22.31 9 24.62 9 27 C8.01 27 7.02 27 6 27 C6 27.66 6 28.32 6 29 C4.02 29.33 2.04 29.66 0 30 C-0.33 29.01 -0.66 28.02 -1 27 C-1.99 26.67 -2.98 26.34 -4 26 C-5.73021692 19.2793227 -6.87351724 12.81491898 -5 6 C-3.53659298 3.58345289 -2.04553857 1.99308886 0 0 Z " fill="#CC2C37" transform="translate(56,36)"/>
<path d="M0 0 C8.16805001 1.4851 16.04386124 3.63837956 24 6 C23.34 8.97 22.68 11.94 22 15 C13.45988044 14.55052002 5.98466367 11.85091417 -2 9 C-1.34 6.03 -0.68 3.06 0 0 Z " fill="#EE952A" transform="translate(62,82)"/>
<path d="M0 0 C6.60132039 0.6149815 12.65462154 2.17639095 19 4.0625 C19.96550781 4.34416016 20.93101563 4.62582031 21.92578125 4.91601562 C24.28550816 5.60524279 26.64345085 6.30000011 29 7 C28.34561841 12.2922317 27.24096012 16.22578062 25 21 C18.25538735 20.46233663 12.34195211 19.0789421 5.9375 16.9375 C5.07189453 16.65583984 4.20628906 16.37417969 3.31445312 16.08398438 C1.20697281 15.39701565 -0.8975895 14.70229934 -3 14 C-2.43008089 9.02989461 -1.76997725 4.71993935 0 0 Z M2 3 C1.34 5.97 0.68 8.94 0 12 C2.87145245 13.01132916 5.74645223 14.00924402 8.625 15 C9.43324219 15.28617188 10.24148437 15.57234375 11.07421875 15.8671875 C15.53114644 17.38906525 19.22037472 18.37123303 24 18 C24.66 15.03 25.32 12.06 26 9 C22.56435978 7.99353274 19.12620371 6.9959455 15.6875 6 C14.22280273 5.57074219 14.22280273 5.57074219 12.72851562 5.1328125 C11.79072266 4.86210938 10.85292969 4.59140625 9.88671875 4.3125 C9.02264404 4.06113281 8.15856934 3.80976562 7.26831055 3.55078125 C4.90315554 2.88202038 4.90315554 2.88202038 2 3 Z " fill="#1C100A" transform="translate(60,79)"/>
<path d="M0 0 C1.65 0.33 3.3 0.66 5 1 C5 6.61 5 12.22 5 18 C4.34 18 3.68 18 3 18 C2.67 19.32 2.34 20.64 2 22 C1.01 22 0.02 22 -1 22 C-0.938125 22.9075 -0.87625 23.815 -0.8125 24.75 C-1.01686856 28.29238832 -1.52653696 29.52653696 -4 32 C-4.66 32 -5.32 32 -6 32 C-5.52060632 27.28596212 -5.03165952 23.33420699 -3 19 C-2.01 19 -1.02 19 0 19 C0 12.73 0 6.46 0 0 Z " fill="#BF303D" transform="translate(72,29)"/>
<path d="M0 0 C1 2 1 2 1.375 5.3125 C1.99212769 8.95355338 2.91364747 11.00653768 5 14 C9.79088264 13.25437068 13.37824445 11.35358969 17.59765625 9.05859375 C20 8 20 8 24 8 C24 8.66 24 9.32 24 10 C20.92916263 11.56753668 17.8418043 13.09929106 14.75 14.625 C13.87730469 15.07101563 13.00460938 15.51703125 12.10546875 15.9765625 C11.26113281 16.3890625 10.41679688 16.8015625 9.546875 17.2265625 C8.77182617 17.61408691 7.99677734 18.00161133 7.19824219 18.40087891 C5 19 5 19 2.82006836 18.28051758 C0.11223446 16.37540841 -0.78829817 14.02995889 -2.1875 11.0625 C-2.95126953 9.47115234 -2.95126953 9.47115234 -3.73046875 7.84765625 C-5 5 -5 5 -6 2 C-4.02 1.34 -2.04 0.68 0 0 Z " fill="#494949" transform="translate(48,94)"/>
<path d="M0 0 C0.66 0 1.32 0 2 0 C2.33 0.66 2.66 1.32 3 2 C6.3 1.67 9.6 1.34 13 1 C12.45276317 4.37462715 11.9451 6.08235 10 9 C14.62 10.32 19.24 11.64 24 13 C19.47278064 14.13180484 17.85271628 13.60013613 13.5 12.1875 C12.3759375 11.83042969 11.251875 11.47335938 10.09375 11.10546875 C3.4205769 8.72098897 3.4205769 8.72098897 1.25 5 C0 2 0 2 0 0 Z " fill="#AD3338" transform="translate(53,63)"/>
<path d="M0 0 C0 0.33 0 0.66 0 1 C-1.258125 0.855625 -2.51625 0.71125 -3.8125 0.5625 C-9.20129495 -0.03816186 -14.59883791 -0.52550539 -20 -1 C-20 -0.34 -20 0.32 -20 1 C-20.99 1 -21.98 1 -23 1 C-22.505 1.763125 -22.01 2.52625 -21.5 3.3125 C-20 6 -20 6 -20 9 C-23.875 7.25 -23.875 7.25 -25 5 C-26.32 5.33 -27.64 5.66 -29 6 C-29 6.99 -29 7.98 -29 9 C-28.34 8.67 -27.68 8.34 -27 8 C-27 10.97 -27 13.94 -27 17 C-30.21801752 12.80258585 -31.63996903 10.43973672 -31 5 C-23.33484606 -4.63619352 -10.7795167 -3.38180916 0 0 Z " fill="#B4323B" transform="translate(93,18)"/>
<path d="M0 0 C1.32 0 2.64 0 4 0 C3.42934122 6.41991126 1.32655091 12.01589463 -1 18 C-3.3431213 17.74438677 -5.67843403 17.40729228 -8 17 C-8.33 16.34 -8.66 15.68 -9 15 C-7.35 15 -5.7 15 -4 15 C-3.52029877 13.25014646 -3.04126076 11.50011109 -2.5625 9.75 C-2.29566406 8.77546875 -2.02882813 7.8009375 -1.75390625 6.796875 C-1.14455416 4.53627347 -0.55761745 2.27377991 0 0 Z " fill="#5E6260" transform="translate(89,86)"/>
<path d="M0 0 C4.98770821 0.42268714 9.28723333 1.2327125 14 3 C10.777893 6.8665284 7.85077588 7.88059018 3 9 C1.68 6.36 0.36 3.72 -1 1 C-0.67 0.67 -0.34 0.34 0 0 Z " fill="#E2932E" transform="translate(51,97)"/>
<path d="M0 0 C1.04929687 0.28101562 2.09859375 0.56203125 3.1796875 0.8515625 C6.57996387 1.84655431 9.92410733 2.9572031 13.26953125 4.12109375 C15.89338564 4.95430984 18.52340917 5.40043707 21.25 5.75 C21.25 6.08 21.25 6.41 21.25 6.75 C14.50050273 8.10145285 9.98719899 7.15685836 3.5625 4.875 C1.91350039 4.31292854 0.26377983 3.75296694 -1.38671875 3.1953125 C-2.1451709 2.9365332 -2.90362305 2.67775391 -3.68505859 2.41113281 C-6.01467303 1.66525957 -8.33430632 1.13375582 -10.75 0.75 C-10.75 0.42 -10.75 0.09 -10.75 -0.25 C-6.71546787 -1.33961817 -4.01552822 -1.08355523 0 0 Z " fill="#565754" transform="translate(63.75,94.25)"/>
<path d="M0 0 C2.53790877 3.14217277 4.49650649 6.24126622 6 10 C5.51167154 14.21256839 4.48640297 18.27059706 3.4375 22.375 C3.16808594 23.43460938 2.89867187 24.49421875 2.62109375 25.5859375 C2.41613281 26.38257812 2.21117187 27.17921875 2 28 C1.34 28 0.68 28 0 28 C-0.04254356 26.00045254 -0.04080783 23.99958364 0 22 C0.33 21.67 0.66 21.34 1 21 C1.25744164 19.0048273 1.51199834 17.00887323 1.71875 15.0078125 C2 13 2 13 3 10 C1.62507196 6.8331162 1.62507196 6.8331162 0 4 C-2.64 4.33 -5.28 4.66 -8 5 C-5.44008376 2.98863724 -2.95409701 1.37154504 0 0 Z " fill="#81212F" transform="translate(49,62)"/>
<path d="M0 0 C0.66 0 1.32 0 2 0 C1.67 2.97 1.34 5.94 1 9 C0.01 9 -0.98 9 -2 9 C-1.938125 9.9075 -1.87625 10.815 -1.8125 11.75 C-2.01686856 15.29238832 -2.52653696 16.52653696 -5 19 C-5.66 19 -6.32 19 -7 19 C-6.52060632 14.28596212 -6.03165952 10.33420699 -4 6 C-3.01 6 -2.02 6 -1 6 C-0.67 4.02 -0.34 2.04 0 0 Z " fill="#BC3138" transform="translate(73,42)"/>
<path d="M0 0 C2.31 0 4.62 0 7 0 C7.93423645 3.01031744 8.04449911 3.86650268 7 7 C5.02 7 3.04 7 1 7 C1 6.34 1 5.68 1 5 C-0.65 5 -2.3 5 -4 5 C-4.33 4.01 -4.66 3.02 -5 2 C-3.35 2 -1.7 2 0 2 C0 1.34 0 0.68 0 0 Z " fill="#F59222" transform="translate(75,88)"/>
<path d="M0 0 C0 0.66 0 1.32 0 2 C-1.98 2.33 -3.96 2.66 -6 3 C-5.83628906 3.56203125 -5.67257813 4.1240625 -5.50390625 4.703125 C-4.97135003 7.13059056 -4.90101319 9.26889681 -4.9375 11.75 C-4.94652344 12.54921875 -4.95554687 13.3484375 -4.96484375 14.171875 C-4.98224609 15.07679687 -4.98224609 15.07679687 -5 16 C-5.99 16 -6.98 16 -8 16 C-8.19456705 14.04235617 -8.38044247 12.08384679 -8.5625 10.125 C-8.66691406 9.03445312 -8.77132813 7.94390625 -8.87890625 6.8203125 C-9 4 -9 4 -8 2 C-9.32 1.34 -10.64 0.68 -12 0 C-3.42857143 -1.28571429 -3.42857143 -1.28571429 0 0 Z " fill="#370608" transform="translate(36,67)"/>
<path d="M0 0 C7.92 2.31 15.84 4.62 24 7 C24 7.66 24 8.32 24 9 C15.92277605 8.58221255 8.30807556 6.4733436 1 3 C0.67 2.01 0.34 1.02 0 0 Z " fill="#110B06" transform="translate(61,91)"/>
<path d="M0 0 C5.75762166 1.08896667 11.39247819 2.29336293 17 4 C13.23331402 5.3805087 10.55210827 4.59568159 6.75 3.5625 C5.13351563 3.13130859 5.13351563 3.13130859 3.484375 2.69140625 C2.66453125 2.46324219 1.8446875 2.23507813 1 2 C1.33 4.31 1.66 6.62 2 9 C3.65 9.33 5.3 9.66 7 10 C4.21176345 11.0326802 3.1322726 11.04509293 0.25 10.0625 C-0.4925 9.711875 -1.235 9.36125 -2 9 C-1.34 6.03 -0.68 3.06 0 0 Z " fill="#D48E40" transform="translate(62,82)"/>
<path d="M0 0 C3.16115776 1.36983503 3.9927092 1.9890638 6 5 C5.01 5.33 4.02 5.66 3 6 C1.96683512 8.79172239 1.96683512 8.79172239 1.3125 12.0625 C1.06113281 13.16722656 0.80976562 14.27195312 0.55078125 15.41015625 C0.36902344 16.26480469 0.18726563 17.11945313 0 18 C-0.66 17.67 -1.32 17.34 -2 17 C-1.47434759 11.96715776 -0.85193433 6.98990106 0 2 C0 1.34 0 0.68 0 0 Z " fill="#160302" transform="translate(54,70)"/>
<path d="M0 0 C0.33 0 0.66 0 1 0 C1.80439248 6.16700902 -0.14988812 9.70006549 -3.296875 14.9609375 C-5.17921357 17.21456304 -6.13407645 17.6635655 -9 18 C-7.99016155 15.82496335 -6.97221019 13.96410483 -5.5 12.0625 C-3.86012671 9.80767423 -2.94366089 7.61321478 -2 5 C-1.34 5 -0.68 5 0 5 C0 3.35 0 1.7 0 0 Z " fill="#390404" transform="translate(66,37)"/>
<path d="M0 0 C1.32 0 2.64 0 4 0 C3.34 2.97 2.68 5.94 2 9 C-7.10714286 8.19642857 -7.10714286 8.19642857 -11 6 C-11 5.67 -11 5.34 -11 5 C-9.35 5 -7.7 5 -6 5 C-6 5.66 -6 6.32 -6 7 C-4.02 7 -2.04 7 0 7 C0 4.69 0 2.38 0 0 Z " fill="#C98A3F" transform="translate(82,88)"/>
<path d="M0 0 C1.32 0.33 2.64 0.66 4 1 C4 1.66 4 2.32 4 3 C4.66 3 5.32 3 6 3 C6 3.66 6 4.32 6 5 C10.95 5 15.9 5 21 5 C16.09772035 7.45113982 12.39605963 7.83461259 7 7 C4.11840972 5.62805702 2.398946 4.190342 0 2 C0 1.34 0 0.68 0 0 Z " fill="#A2303F" transform="translate(15,60)"/>
<path d="M0 0 C5.94 1.485 5.94 1.485 12 3 C11.34 4.32 10.68 5.64 10 7 C9.484375 6.71125 8.96875 6.4225 8.4375 6.125 C5.37643275 4.71219973 2.25055082 3.8751483 -1 3 C-0.67 2.01 -0.34 1.02 0 0 Z " fill="#21130B" transform="translate(56,95)"/>
<path d="M0 0 C6.27968807 1.23351016 10.75950071 3.3483755 16 7 C13.20215289 7 11.0209322 6.62804225 8.3125 6 C7.50425781 5.814375 6.69601563 5.62875 5.86328125 5.4375 C4.94095703 5.2209375 4.94095703 5.2209375 4 5 C4 4.01 4 3.02 4 2 C2.68 1.67 1.36 1.34 0 1 C0 0.67 0 0.34 0 0 Z " fill="#B82F35" transform="translate(94,19)"/>
<path d="M0 0 C0 0.66 0 1.32 0 2 C-1.23884319 2.72767003 -2.49168341 3.43154815 -3.75 4.125 C-4.79414062 4.71667969 -4.79414062 4.71667969 -5.859375 5.3203125 C-8 6 -8 6 -10.265625 5.1171875 C-10.83796875 4.74851562 -11.4103125 4.37984375 -12 4 C-10.75539217 3.32332002 -9.50403104 2.65905281 -8.25 2 C-7.55390625 1.62875 -6.8578125 1.2575 -6.140625 0.875 C-4 0 -4 0 0 0 Z " fill="#454645" transform="translate(72,102)"/>
<path d="M0 0 C2.95183101 2.95183101 3.08663988 5.95511947 4 10 C2.88625 9.979375 1.7725 9.95875 0.625 9.9375 C-2.83215921 9.73619282 -2.83215921 9.73619282 -5 11 C-5 10.01 -5 9.02 -5 8 C-3.68 7.67 -2.36 7.34 -1 7 C-0.67 4.69 -0.34 2.38 0 0 Z " fill="#952E35" transform="translate(58,25)"/>
<path d="M0 0 C0.66 0.33 1.32 0.66 2 1 C1.938125 1.86625 1.87625 2.7325 1.8125 3.625 C2.02462958 7.4433325 3.24898574 9.65023358 5 13 C4.67 13.66 4.34 14.32 4 15 C3.01 14.67 2.02 14.34 1 14 C-1.43817345 9.00174442 -0.91237976 5.29180261 0 0 Z " fill="#2F0308" transform="translate(61,22)"/>
<path d="M0 0 C0.75410156 0.00451172 1.50820313 0.00902344 2.28515625 0.01367188 C4.14847127 0.02546501 6.01174555 0.04340058 7.875 0.0625 C8.205 0.7225 8.535 1.3825 8.875 2.0625 C7.58916016 2.02769531 7.58916016 2.02769531 6.27734375 1.9921875 C0.07126131 1.89423355 -5.2821222 1.88840593 -11.125 4.0625 C-10.795 3.0725 -10.465 2.0825 -10.125 1.0625 C-6.93675432 -0.53162284 -3.49603338 -0.03924735 0 0 Z " fill="#240103" transform="translate(50.125,22.9375)"/>
<path d="M0 0 C0.86625 0.5259375 0.86625 0.5259375 1.75 1.0625 C4.35801776 2.14917407 5.39417629 1.93065133 8 1 C8 1.99 8 2.98 8 4 C5.64561267 5.42944945 4.51967567 6.08661261 1.75 5.625 C1.1725 5.41875 0.595 5.2125 0 5 C0 3.35 0 1.7 0 0 Z " fill="#1D0C03" transform="translate(52,103)"/>
<path d="M0 0 C0.33 0.99 0.66 1.98 1 3 C1.66 3 2.32 3 3 3 C3.33 4.32 3.66 5.64 4 7 C3.01 7.66 2.02 8.32 1 9 C1 8.01 1 7.02 1 6 C0.34 6 -0.32 6 -1 6 C-1.33 4.35 -1.66 2.7 -2 1 C-1.34 0.67 -0.68 0.34 0 0 Z " fill="#DE2A3A" transform="translate(69,34)"/>
<path d="M0 0 C0.33 0 0.66 0 1 0 C1 5.94 1 11.88 1 18 C0.34 17.67 -0.32 17.34 -1 17 C-1.484375 13.9453125 -1.484375 13.9453125 -1.75 10.125 C-1.84796875 8.86945312 -1.9459375 7.61390625 -2.046875 6.3203125 C-2 3 -2 3 0 0 Z " fill="#1A0505" transform="translate(12,40)"/>
<path d="M0 0 C0.33 0 0.66 0 1 0 C1.02703381 1.93742341 1.04641125 3.87495479 1.0625 5.8125 C1.07410156 6.89144531 1.08570313 7.97039062 1.09765625 9.08203125 C1 12 1 12 0 15 C-0.66 15 -1.32 15 -2 15 C-2.04254356 13.00045254 -2.04080783 10.99958364 -2 9 C-1.67 8.67 -1.34 8.34 -1 8 C-0.76924918 6.65252916 -0.58846937 5.29622435 -0.4375 3.9375 C-0.293125 2.638125 -0.14875 1.33875 0 0 Z " fill="#952030" transform="translate(51,75)"/>
<path d="M0 0 C2.0625 0.4375 2.0625 0.4375 4 1 C3.67 1.99 3.34 2.98 3 4 C3 4.99 3 5.98 3 7 C4.32 7.33 5.64 7.66 7 8 C5.68 8.33 4.36 8.66 3 9 C1.68 6.36 0.36 3.72 -1 1 C-0.67 0.67 -0.34 0.34 0 0 Z " fill="#C18443" transform="translate(51,97)"/>
<path d="M0 0 C0 3.20395416 -0.74335022 5.09399739 -2 8 C-5.10551666 8 -6.35261084 7.4606285 -9 6 C-8.2575 5.7525 -7.515 5.505 -6.75 5.25 C-3.79875938 3.90852699 -2.15185026 2.39094474 0 0 Z " fill="#2E0506" transform="translate(103,77)"/>
<path d="M0 0 C0 0.66 0 1.32 0 2 C-4.95 4.475 -4.95 4.475 -10 7 C-10.66 6.34 -11.32 5.68 -12 5 C-10.37750059 4.16180842 -8.75191503 3.3295884 -7.125 2.5 C-6.22007813 2.0359375 -5.31515625 1.571875 -4.3828125 1.09375 C-2 0 -2 0 0 0 Z " fill="#9C2D3E" transform="translate(42,26)"/>
<path d="M0 0 C0.99 0 1.98 0 3 0 C3.33 0.66 3.66 1.32 4 2 C4.825 2.309375 5.65 2.61875 6.5 2.9375 C7.325 3.288125 8.15 3.63875 9 4 C9.33 4.99 9.66 5.98 10 7 C5.61308455 6.49381745 3.15608721 3.86917019 0 1 C0 0.67 0 0.34 0 0 Z " fill="#040101" transform="translate(17,84)"/>
<path d="M0 0 C0.66 0 1.32 0 2 0 C1.75 2.875 1.75 2.875 1 6 C-1.0625 7.375 -1.0625 7.375 -3 8 C-1.125 1.125 -1.125 1.125 0 0 Z " fill="#480506" transform="translate(69,53)"/>
<path d="M0 0 C0.99 0.33 1.98 0.66 3 1 C3 3.31 3 5.62 3 8 C2.01 7.67 1.02 7.34 0 7 C0 4.69 0 2.38 0 0 Z " fill="#440305" transform="translate(73,30)"/>
<path d="M0 0 C1.875 0.3125 1.875 0.3125 4 1 C6 4 6 4 6 7 C3.00675737 5.9024777 2.15389099 5.32317108 0.75 2.375 C0.5025 1.59125 0.255 0.8075 0 0 Z " fill="#430402" transform="translate(67,20)"/>
<path d="M0 0 C1.32 0.33 2.64 0.66 4 1 C4 1.66 4 2.32 4 3 C4.66 3 5.32 3 6 3 C6 3.66 6 4.32 6 5 C6.99 5.33 7.98 5.66 9 6 C8.01 6.495 8.01 6.495 7 7 C5.82780457 6.21654285 4.66236332 5.42297164 3.5 4.625 C2.8503125 4.18414062 2.200625 3.74328125 1.53125 3.2890625 C1.0259375 2.86367187 0.520625 2.43828125 0 2 C0 1.34 0 0.68 0 0 Z " fill="#8C242D" transform="translate(23,84)"/>
<path d="M0 0 C0.66 0 1.32 0 2 0 C1.67 2.64 1.34 5.28 1 8 C0.01 8 -0.98 8 -2 8 C-1.34 5.36 -0.68 2.72 0 0 Z " fill="#410302" transform="translate(73,42)"/>
<path d="M0 0 C-0.39803561 2.88575819 -0.79009069 3.82189513 -3.0625 5.75 C-3.701875 6.1625 -4.34125 6.575 -5 7 C-5.33 6.01 -5.66 5.02 -6 4 C-2.25 0 -2.25 0 0 0 Z " fill="#490504" transform="translate(65,64)"/>
<path d="M0 0 C6.75 -0.125 6.75 -0.125 9 1 C9 1.66 9 2.32 9 3 C2.84765625 2.4140625 2.84765625 2.4140625 1 2 C0.67 1.34 0.34 0.68 0 0 Z " fill="#160605" transform="translate(75,79)"/>
<path d="M0 0 C4.455 0.99 4.455 0.99 9 2 C9 2.33 9 2.66 9 3 C3.58461538 4.23076923 3.58461538 4.23076923 0.625 3.0625 C0.08875 2.711875 -0.4475 2.36125 -1 2 C-0.67 1.34 -0.34 0.68 0 0 Z " fill="#360D0D" transform="translate(71,76)"/>
<path d="M0 0 C0.66 0 1.32 0 2 0 C2.33 0.66 2.66 1.32 3 2 C3.99 2.66 4.98 3.32 6 4 C5.67 4.66 5.34 5.32 5 6 C3.68 5.67 2.36 5.34 1 5 C0.67 3.35 0.34 1.7 0 0 Z " fill="#BE2F30" transform="translate(53,63)"/>
<path d="M0 0 C0.33 0 0.66 0 1 0 C1.33 2.97 1.66 5.94 2 9 C1.01 8.67 0.02 8.34 -1 8 C-1.33 6.02 -1.66 4.04 -2 2 C-1.34 2 -0.68 2 0 2 C0 1.34 0 0.68 0 0 Z " fill="#370105" transform="translate(50,52)"/>
<path d="M0 0 C2.31 0 4.62 0 7 0 C5.68 1.32 4.36 2.64 3 4 C2.67 3.34 2.34 2.68 2 2 C1.34 2 0.68 2 0 2 C0 1.34 0 0.68 0 0 Z " fill="#D18E45" transform="translate(58,100)"/>
<path d="M0 0 C2.64 0.66 5.28 1.32 8 2 C7.01 3.485 7.01 3.485 6 5 C4.02 4.01 2.04 3.02 0 2 C0 1.34 0 0.68 0 0 Z " fill="#1F0B02" transform="translate(61,91)"/>
<path d="M0 0 C1.98 0 3.96 0 6 0 C6 0.66 6 1.32 6 2 C7.32 2.33 8.64 2.66 10 3 C8.5199159 2.88637738 7.04089926 2.75877092 5.5625 2.625 C4.73878906 2.55539063 3.91507813 2.48578125 3.06640625 2.4140625 C2.38449219 2.27742188 1.70257813 2.14078125 1 2 C0.67 1.34 0.34 0.68 0 0 Z " fill="#8B1E34" transform="translate(32,91)"/>
<path d="M0 0 C1.32 0 2.64 0 4 0 C3.67 1.65 3.34 3.3 3 5 C2.34 5 1.68 5 1 5 C0.67 5.66 0.34 6.32 0 7 C0 4.69 0 2.38 0 0 Z " fill="#DA8A38" transform="translate(82,88)"/>
</svg>
