<?xml version="1.0" encoding="UTF-8"?>
<svg version="1.1" xmlns="http://www.w3.org/2000/svg" width="1024" height="1024">
<path d="M0 0 C4.94979264 0.0043861 9.8995843 0.00285239 14.84937835 0.00209773 C23.39126949 0.00157758 31.9331529 0.00467063 40.4750421 0.01033556 C52.824636 0.01852035 65.17422621 0.02107287 77.52382252 0.02232356 C97.56829193 0.0245032 117.61275723 0.03113359 137.65722442 0.04062617 C157.10937265 0.04982856 176.56151976 0.05689551 196.01366973 0.06113398 C197.81723516 0.06152807 197.81723516 0.06152807 199.65723625 0.06193011 C205.69020734 0.06323531 211.72317843 0.06449898 217.75614953 0.06574202 C267.67418644 0.07608073 317.5922189 0.09366919 367.51025176 0.11606562 C365.58225794 4.37393904 362.62564784 6.98307149 359.19384551 10.05747187 C352.75185214 15.94968308 346.51691647 22.01887585 340.35790801 28.20590937 C339.04093429 29.52783793 339.04093429 29.52783793 337.69735503 30.87647212 C334.98716182 33.60019861 332.27952776 36.32644339 329.57275176 39.05356562 C325.96243906 42.69064734 322.34868955 46.32426534 318.73290801 49.95590937 C317.92442916 50.77268656 317.11595031 51.58946375 316.2829721 52.43099177 C312.24946167 56.4817645 308.20619628 60.41109966 303.74779487 63.99476683 C301.36803905 66.09005448 301.36803905 66.09005448 299.57561278 69.05019057 C295.94306037 73.95641158 292.65732806 77.37672002 286.55857551 78.8095057 C277.9486438 79.86632056 269.2686655 79.68822825 260.61066067 79.56407797 C256.62466781 79.52021135 252.63903298 79.54622846 248.65292144 79.56356013 C241.75276784 79.58420376 234.85387235 79.56140926 227.95390296 79.5088917 C217.95523878 79.43304177 207.95742465 79.4259323 197.95851999 79.43545233 C181.70362777 79.44926696 165.4492992 79.41113784 149.19457793 79.33872187 C133.46279975 79.26877495 117.73118995 79.2180355 101.99926543 79.19712031 C101.03157004 79.19582382 100.06387464 79.19452732 99.06685514 79.19319154 C88.48018982 79.1794512 77.89352163 79.16986858 67.30685115 79.16116869 C64.4895618 79.15877275 61.67227249 79.15634036 58.85498322 79.15386428 C56.99640814 79.15224898 55.13783301 79.15069589 53.27925783 79.14920591 C41.5118571 79.13940647 29.74467841 79.1120699 17.97736824 79.06496894 C12.02151279 79.04130632 6.065644 79.02440269 0.10976101 79.00939102 C-3.82401524 78.99902824 -7.75769951 78.98513012 -11.69142175 78.96177828 C-63.7448898 78.65863107 -99.54040372 86.63573814 -137.32043672 123.86692011 C-140.90507704 127.42578992 -144.47137106 131.00284447 -148.03328919 134.58444178 C-150.40314142 136.96725421 -152.77627569 139.34675614 -155.15020967 141.72550166 C-160.18290394 146.76952118 -165.21161931 151.81749567 -170.23974824 156.86606562 C-176.08687415 162.73688951 -181.9356721 168.60602792 -187.78870606 174.47096217 C-190.11493912 176.80362742 -192.43811661 179.13930584 -194.76117158 181.47513545 C-196.19756602 182.9151648 -197.63410239 184.3550526 -199.07080293 185.79477656 C-199.70579209 186.43493205 -200.34078126 187.07508753 -200.99501252 187.73464167 C-204.12886367 190.86885624 -207.31389046 193.8379364 -210.70576692 196.69255793 C-214.01965571 199.55346734 -216.21215971 202.42233573 -218.45239472 206.21347773 C-224.46660779 215.16721706 -231.79957091 223.21401826 -242.61625123 225.88935816 C-260.70245293 228.85192176 -279.61079694 227.61846454 -297.85395014 226.91673756 C-305.34974983 226.63352704 -312.84621203 226.49890814 -320.34605634 226.37415576 C-335.73346873 226.11500049 -351.11020265 225.67731759 -366.48974824 225.11606562 C-365.22488434 222.35245211 -363.92990843 220.30636029 -361.78283715 218.16026556 C-361.22992875 217.60275837 -360.67702035 217.04525117 -360.10735714 216.47084981 C-359.49997901 215.86861524 -358.89260087 215.26638066 -358.26681733 214.64589655 C-357.62146818 213.99813299 -356.97611903 213.35036943 -356.31121385 212.68297666 C-354.14352721 210.50964617 -351.9687542 208.34354874 -349.79394746 206.17734492 C-348.23972747 204.62205217 -346.68594049 203.06632661 -345.13255525 201.51020014 C-340.90750871 197.28029932 -336.67622613 193.0566872 -332.4436872 188.83428514 C-328.01452521 184.41390154 -323.59063092 179.9882519 -319.16604829 175.56328547 C-311.72950235 168.12767675 -304.28911604 160.69592545 -296.84619355 153.26670039 C-289.19902198 145.63359476 -281.55533944 137.99701795 -273.91552949 130.35654414 C-273.44564587 129.88662056 -272.97576224 129.41669698 -272.49163972 128.93253329 C-272.0225489 128.46340212 -271.55345809 127.99427095 -271.0701524 127.51092368 C-261.92261143 118.36265615 -252.77121075 109.21825651 -243.61872172 100.07493961 C-240.9854935 97.44383926 -238.35297348 94.81203209 -235.7206099 92.1800667 C-231.57471033 88.03517509 -227.42625726 83.89285559 -223.27585244 79.75247538 C-221.75609794 78.23563093 -220.23717571 76.71795206 -218.71916604 75.19936144 C-216.63994333 73.11964436 -214.55765144 71.04304779 -212.474581 68.96718562 C-211.8805872 68.37164321 -211.28659339 67.7761008 -210.67459977 67.16251165 C-207.01773796 63.52638901 -203.23558809 60.0896524 -199.31767404 56.73604578 C-197.51791065 55.14102426 -195.84257713 53.47495124 -194.17724824 51.74106562 C-189.61209985 47.12462343 -184.59728634 43.11410107 -179.48974824 39.11606562 C-178.66192842 38.46565302 -178.66192842 38.46565302 -177.81738496 37.80210078 C-126.59395987 -2.108705 -61.81782528 -0.06895281 0 0 Z " fill="#E00500" transform="translate(431.4897482395172,402.88393437862396)"/>
<path d="M0 0 C3.72768142 0.00877145 7.45535759 0.00570484 11.18304646 0.00419545 C17.61608069 0.00315511 24.04907384 0.00934169 30.48209774 0.02067113 C39.78275644 0.03704006 49.0833956 0.04214568 58.38406714 0.04464711 C73.4798217 0.04900651 88.57555445 0.06226755 103.67129719 0.08125234 C118.32103568 0.09965687 132.9707682 0.11379089 147.62051594 0.12226796 C148.5260324 0.12279341 149.43154886 0.12331886 150.36450521 0.12386023 C154.90796358 0.12647061 159.451422 0.12899795 163.99488044 0.13148403 C201.58893904 0.15216178 239.18297285 0.18733897 276.77701008 0.23213124 C275.83353757 1.34141798 274.88882619 2.44965109 273.94360554 3.55744863 C273.15467947 4.48334168 273.15467947 4.48334168 272.34981549 5.42793965 C270.14657199 7.9553174 267.81000246 10.32891927 265.44107258 12.70088124 C264.95802662 13.18488393 264.47498066 13.66888661 263.97729695 14.16755605 C262.96514674 15.18038006 261.95175964 16.19196944 260.93716633 17.20234609 C259.4086695 18.72549513 257.8855777 20.25390127 256.36294758 21.78291249 C255.36847622 22.7767227 254.37369452 23.77022248 253.37857258 24.76338124 C252.05333577 26.08692616 252.05333577 26.08692616 250.70132649 27.43720937 C249.16774886 28.94873175 247.62674313 30.35361865 245.95114243 31.70830369 C241.41943398 35.39784651 238.37015967 39.06131275 235.36060345 44.04821134 C226.62211723 58.23490756 214.01940838 73.12309791 197.38909829 77.9210608 C169.01017212 84.43217529 137.62772419 81.50139894 108.780725 80.50204265 C97.14275526 80.10630153 85.50472066 79.9367047 73.86138654 79.78660691 C59.62887496 79.60214083 45.39854607 79.38977042 31.17021382 78.99236989 C30.16756234 78.96482566 29.16491085 78.93728143 28.13187599 78.90890253 C23.4675356 78.77941438 18.80370592 78.64156867 14.14007771 78.48858571 C-18.533375 77.40389843 -18.533375 77.40389843 -46.72298992 91.91963124 C-48.92140556 93.99210934 -51.0738679 96.10869594 -53.22298992 98.23213124 C-53.94180339 98.93724843 -54.66061687 99.64236562 -55.40121257 100.36884999 C-66.37778557 111.12618706 -66.37778557 111.12618706 -76.70419109 122.49897695 C-77.2053947 123.07091786 -77.70659832 123.64285878 -78.22298992 124.23213124 C-78.64947983 124.7554368 -79.07596975 125.27874236 -79.5153836 125.81790566 C-81.7914721 127.70294353 -83.13007068 127.60224682 -86.06348979 127.59289479 C-87.55898105 127.59908078 -87.55898105 127.59908078 -89.08468425 127.60539174 C-90.72358623 127.589213 -90.72358623 127.589213 -92.39559734 127.57270741 C-93.54695674 127.57314549 -94.69831615 127.57358357 -95.88456523 127.57403493 C-99.69936744 127.57194089 -103.513733 127.54858013 -107.32845867 127.52509999 C-109.9697577 127.51950625 -112.61105983 127.51523511 -115.25236309 127.51223683 C-121.49971536 127.50290958 -127.74691029 127.47828672 -133.99419326 127.44818836 C-141.10655993 127.41466543 -148.2189341 127.39816367 -155.3313601 127.38310206 C-169.96198457 127.35173767 -184.59248504 127.29896401 -199.22298992 127.23213124 C-197.88468358 124.25605307 -196.41582286 122.17815252 -194.10636699 119.88172841 C-193.46584392 119.23990117 -192.82532085 118.59807393 -192.16538799 117.93679738 C-191.11265949 116.89721128 -191.11265949 116.89721128 -190.03866374 115.83662343 C-189.29859081 115.09786473 -188.55851787 114.35910604 -187.79601848 113.59796071 C-185.34524568 111.15368481 -182.88757723 108.71646027 -180.43002117 106.27900624 C-178.72278168 104.57803924 -177.01605771 102.87655467 -175.30982769 101.17457509 C-170.81057159 96.68863399 -166.30579349 92.2082826 -161.79940593 87.72950673 C-154.6031776 80.5763439 -147.41353701 73.41657656 -140.2272681 66.25340962 C-137.72212312 63.75843723 -135.21356208 61.26693831 -132.70463359 58.77577138 C-131.1544 57.23237248 -129.6042792 55.68886026 -128.05428874 54.14521718 C-127.3625909 53.4602567 -126.67089305 52.77529622 -125.95823467 52.06957936 C-122.0635691 48.18393117 -118.36227491 44.19303042 -114.78905571 40.0091126 C-112.33627552 37.22599538 -109.65582303 34.72223218 -106.91048992 32.23213124 C-106.34926433 31.72013173 -105.78803874 31.20813222 -105.20980632 30.68061757 C-73.92920615 2.37509865 -40.69613453 -0.12053717 0 0 Z " fill="#E00500" transform="translate(423.22298991680145,500.7678687572479)"/>
<path d="M0 0 C-1.39040023 3.13202158 -3.00735375 5.25709367 -5.42531013 7.6741991 C-6.13845473 8.3919425 -6.85159933 9.10968589 -7.58635437 9.84917909 C-8.37271613 10.63039729 -9.15907789 11.41161548 -9.9692688 12.21650696 C-11.21905763 13.46991742 -11.21905763 13.46991742 -12.49409473 14.7486493 C-14.80784657 17.06706606 -17.12603774 19.38093537 -19.44617176 21.69296205 C-21.94753006 24.18774474 -24.44312219 26.6882838 -26.93943787 29.18811035 C-31.83193271 34.08564962 -36.72975686 38.97782581 -41.6293952 43.86821739 C-47.33767001 49.56610679 -53.04071263 55.26922109 -58.7435535 60.97254827 C-68.92388311 71.15337871 -79.10903803 81.32936814 -89.296875 91.50268555 C-99.17516851 101.36690797 -109.04996976 111.23460883 -118.92089844 121.10620117 C-119.52818386 121.71352655 -120.13546928 122.32085193 -120.76115729 122.9465811 C-121.3674056 123.55286977 -121.97365392 124.15915844 -122.5982734 124.7838195 C-133.84062837 136.02686543 -145.08627578 147.26661308 -156.33344749 158.50484038 C-160.30642355 162.47480601 -164.27842808 166.44574208 -168.25012589 170.41698647 C-173.09664707 175.26282349 -177.94506738 180.10675152 -182.79582258 184.94835035 C-185.26888636 187.41681517 -187.74118019 189.88603739 -190.21131325 192.35743523 C-192.89484513 195.04145962 -195.58144093 197.72237987 -198.26882935 200.40254211 C-199.04180678 201.17706815 -199.8147842 201.95159418 -200.61118519 202.74959069 C-204.69942119 206.81973879 -208.89248062 210.6772078 -213.26744175 214.43613893 C-215.45417441 216.40995198 -217.28505028 218.61665376 -219.17308044 220.87364197 C-223.71813627 225.43670888 -227.23810013 226.0506527 -233.56013489 226.11978149 C-234.77142563 226.08742401 -235.98271637 226.05506653 -237.23071289 226.02172852 C-239.17852158 226.02369987 -239.17852158 226.02369987 -241.16567993 226.02571106 C-244.70130211 226.02827755 -248.23413667 225.97563879 -251.76911473 225.91254544 C-255.47251171 225.85600951 -259.17598355 225.85097566 -262.87974548 225.84031677 C-269.88179426 225.8124226 -276.8825676 225.73867882 -283.88405651 225.64817137 C-291.85974878 225.54732443 -299.83550429 225.49802845 -307.81167614 225.45291245 C-324.2085289 225.35901888 -340.60410131 225.20087509 -357 225 C-355.60001414 221.90153538 -353.93738639 219.58873162 -351.67676926 217.05636978 C-350.98559438 216.27857517 -350.29441951 215.50078055 -349.58229995 214.6994164 C-348.8196301 213.85116819 -348.05696025 213.00291998 -347.2711792 212.12896729 C-346.4615511 211.22308451 -345.65192299 210.31720174 -344.81776071 209.38386798 C-342.56561142 206.86915232 -340.30868124 204.358936 -338.04818034 201.85173678 C-336.60115538 200.24642011 -335.15567229 198.6397257 -333.71037865 197.03285027 C-315.19340739 176.45969506 -296.28780085 156.25892488 -277.2130376 136.20284863 C-274.06897094 132.89662879 -270.92785606 129.58761855 -267.78857422 126.27685547 C-267.16392895 125.61819161 -266.53928369 124.95952775 -265.89570978 124.28090438 C-257.16492954 115.06188695 -248.61576477 105.70209467 -240.19302088 96.201168 C-225.65441674 79.80159836 -210.81863875 63.74155533 -195.359375 48.203125 C-194.75935535 47.59864603 -194.1593357 46.99416707 -193.54113364 46.37137055 C-136.21360306 -11.21539021 -77.33689216 -13.5244629 0 0 Z " fill="#E00500" transform="translate(959,403)"/>
<path d="M0 0 C3.63 0 7.26 0 11 0 C13.97 8.25 16.94 16.5 20 25 C23.93049202 15.71132841 23.93049202 15.71132841 27.25 6.3125 C28.89943074 1.10056926 28.89943074 1.10056926 30 0 C33.3 0 36.6 0 40 0 C40 12.54 40 25.08 40 38 C37.69 38 35.38 38 33 38 C32.67 30.41 32.34 22.82 32 15 C29.36 22.59 26.72 30.18 24 38 C21.69 38 19.38 38 17 38 C15.85297813 35.06296271 14.7075888 32.12529143 13.5625 29.1875 C13.23701172 28.35412109 12.91152344 27.52074219 12.57617188 26.66210938 C12.26357422 25.85966797 11.95097656 25.05722656 11.62890625 24.23046875 C11.34088135 23.49207764 11.05285645 22.75368652 10.75610352 21.99291992 C10.13028355 20.34339833 9.5579043 18.67371291 9 17 C8.67 23.93 8.34 30.86 8 38 C5.36 38 2.72 38 0 38 C0 25.46 0 12.92 0 0 Z " fill="#DB0602" transform="translate(853,590)"/>
<path d="M0 0 C10.23 0 20.46 0 31 0 C31 1.98 31 3.96 31 6 C27.04 6 23.08 6 19 6 C19 16.56 19 27.12 19 38 C16.69 38 14.38 38 12 38 C12 27.44 12 16.88 12 6 C8.04 6 4.08 6 0 6 C0 4.02 0 2.04 0 0 Z " fill="#D80704" transform="translate(817,590)"/>
</svg>
