<?xml version="1.0" encoding="UTF-8"?>
<svg version="1.1" xmlns="http://www.w3.org/2000/svg" width="100" height="100">
<path d="M0 0 C1.04659538 -0.01226624 1.04659538 -0.01226624 2.11433411 -0.02478027 C4.42655576 -0.04962308 6.73871621 -0.06614471 9.05102539 -0.08056641 C9.83979128 -0.08589008 10.62855717 -0.09121376 11.44122505 -0.09669876 C15.61380161 -0.12342181 19.78634829 -0.14280188 23.95898438 -0.15722656 C28.2748419 -0.17389913 32.58993944 -0.21869999 36.905509 -0.26959801 C40.21945608 -0.30319707 43.53322083 -0.31479564 46.84732246 -0.32045364 C48.43861279 -0.32718345 50.02989039 -0.3424504 51.62101555 -0.36634445 C53.84563764 -0.39785338 56.06818351 -0.39805627 58.29296875 -0.390625 C59.55934677 -0.39871185 60.82572479 -0.40679871 62.13047791 -0.41513062 C65.21118164 0.19287109 65.21118164 0.19287109 67.16847229 2.53158569 C68.58341409 6.14291223 67.88085024 8.11556559 66.83618164 11.81787109 C65.53944989 16.42495868 65.16100481 19.68259299 65.75805664 24.44287109 C66.44594779 30.54594187 65.36551944 35.67015882 63.83618164 41.56787109 C63.36988701 43.47148049 62.9037362 45.37512511 62.43774414 47.27880859 C62.22714355 48.10429199 62.01654297 48.92977539 61.79956055 49.78027344 C61.39668223 51.43224172 61.03220574 53.09391629 60.70092773 54.76171875 C60.05623195 57.96205802 59.13191746 61.06236932 58.21118164 64.19287109 C56.56118164 64.19287109 54.91118164 64.19287109 53.21118164 64.19287109 C53.21118164 63.20287109 53.21118164 62.21287109 53.21118164 61.19287109 C52.55118164 61.19287109 51.89118164 61.19287109 51.21118164 61.19287109 C50.88118164 62.18287109 50.55118164 63.17287109 50.21118164 64.19287109 C48.77378651 64.21999176 47.33624301 64.23932176 45.89868164 64.25537109 C45.09817383 64.26697266 44.29766602 64.27857422 43.47290039 64.29052734 C41.21118164 64.19287109 41.21118164 64.19287109 38.21118164 63.19287109 C37.88118164 63.52287109 37.55118164 63.85287109 37.21118164 64.19287109 C34.94617859 64.39798133 32.67213787 64.50699585 30.39868164 64.56787109 C29.15473633 64.61685547 27.91079102 64.66583984 26.62915039 64.71630859 C23.21118164 64.19287109 23.21118164 64.19287109 20.76196289 61.66943359 C20.25020508 60.85216797 19.73844727 60.03490234 19.21118164 59.19287109 C18.55118164 60.84287109 17.89118164 62.49287109 17.21118164 64.19287109 C15.56118164 64.19287109 13.91118164 64.19287109 12.21118164 64.19287109 C11.71618164 61.22287109 11.71618164 61.22287109 11.21118164 58.19287109 C10.77805664 58.99724609 10.34493164 59.80162109 9.89868164 60.63037109 C8.21118164 63.19287109 8.21118164 63.19287109 5.21118164 64.19287109 C2.67702528 64.31435239 0.18248384 64.37797393 -2.35131836 64.38037109 C-3.03645508 64.39261719 -3.7215918 64.40486328 -4.42749023 64.41748047 C-6.21615948 64.42274642 -8.00430684 64.3148713 -9.78881836 64.19287109 C-10.44881836 63.53287109 -11.10881836 62.87287109 -11.78881836 62.19287109 C-12.11881836 62.85287109 -12.44881836 63.51287109 -12.78881836 64.19287109 C-16.08881836 64.19287109 -19.38881836 64.19287109 -22.78881836 64.19287109 C-24.08306546 61.60437689 -23.60592498 60.48307024 -22.97631836 57.69287109 C-22.80487305 56.89880859 -22.63342773 56.10474609 -22.45678711 55.28662109 C-21.78881836 53.19287109 -21.78881836 53.19287109 -19.78881836 51.19287109 C-19.75568751 49.27128168 -19.73272912 47.34830245 -19.78881836 45.42724609 C-19.78881836 43.16651979 -19.55260946 41.05296512 -19.22631836 38.81787109 C-18.47201178 35.36718249 -18.47201178 35.36718249 -19.78881836 33.19287109 C-19.72364896 25.30737335 -18.29547196 16.63540631 -15.78881836 9.19287109 C-13.78491211 7.44677734 -13.78491211 7.44677734 -11.78881836 6.19287109 C-10.76576888 4.5402527 -9.76265782 2.87495744 -8.78881836 1.19287109 C-5.86542761 -0.26882428 -3.26469607 0.03317472 0 0 Z M-9.78881836 53.19287109 C-8.79881836 54.67787109 -8.79881836 54.67787109 -7.78881836 56.19287109 C-7.78881836 55.20287109 -7.78881836 54.21287109 -7.78881836 53.19287109 C-8.44881836 53.19287109 -9.10881836 53.19287109 -9.78881836 53.19287109 Z M34.21118164 53.19287109 C34.87118164 54.51287109 35.53118164 55.83287109 36.21118164 57.19287109 C36.87118164 55.87287109 37.53118164 54.55287109 38.21118164 53.19287109 C36.89118164 53.19287109 35.57118164 53.19287109 34.21118164 53.19287109 Z M45.21118164 53.19287109 C45.21118164 54.84287109 45.21118164 56.49287109 45.21118164 58.19287109 C45.87118164 57.86287109 46.53118164 57.53287109 47.21118164 57.19287109 C47.21118164 55.87287109 47.21118164 54.55287109 47.21118164 53.19287109 C46.55118164 53.19287109 45.89118164 53.19287109 45.21118164 53.19287109 Z M2.21118164 56.19287109 C2.21118164 57.18287109 2.21118164 58.17287109 2.21118164 59.19287109 C3.20118164 59.19287109 4.19118164 59.19287109 5.21118164 59.19287109 C5.21118164 58.53287109 5.21118164 57.87287109 5.21118164 57.19287109 C4.22118164 56.86287109 3.23118164 56.53287109 2.21118164 56.19287109 Z M27.21118164 56.19287109 C26.88118164 57.51287109 26.55118164 58.83287109 26.21118164 60.19287109 C27.20118164 59.86287109 28.19118164 59.53287109 29.21118164 59.19287109 C29.21118164 58.20287109 29.21118164 57.21287109 29.21118164 56.19287109 C28.55118164 56.19287109 27.89118164 56.19287109 27.21118164 56.19287109 Z " fill="#1B1B1B" transform="translate(26.788818359375,17.80712890625)"/>
<path d="M0 0 C1.27875 0.144375 2.5575 0.28875 3.875 0.4375 C4.68710937 0.52644531 5.49921875 0.61539062 6.3359375 0.70703125 C8.15428893 0.90699658 9.97198506 1.11298986 11.7890625 1.32421875 C13.13097656 1.47310547 13.13097656 1.47310547 14.5 1.625 C15.75296875 1.76808594 15.75296875 1.76808594 17.03125 1.9140625 C18.00578125 1.95660156 18.00578125 1.95660156 19 2 C19.33 1.67 19.66 1.34 20 1 C22.375 0.6875 22.375 0.6875 25 1 C25.38027344 1.62003906 25.76054688 2.24007813 26.15234375 2.87890625 C28.88423822 6.015098 32.27705448 6.41668235 36.1875 7.25 C36.93708984 7.42273437 37.68667969 7.59546875 38.45898438 7.7734375 C40.30284795 8.19623424 42.15105737 8.5999986 44 9 C44 9.99 44 10.98 44 12 C38.9697924 11.47462276 33.98114761 10.89405214 29 10 C31.11326526 14.70842624 31.11326526 14.70842624 35 18 C34.67 16.35 34.34 14.7 34 13 C35.98 13.33 37.96 13.66 40 14 C40 14.66 40 15.32 40 16 C39.01 16 38.02 16 37 16 C37 16.99 37 17.98 37 19 C39.64 19.33 42.28 19.66 45 20 C45.99 17.525 45.99 17.525 47 15 C48.79206547 15.14084796 50.58364917 15.28783701 52.375 15.4375 C53.87160156 15.55931641 53.87160156 15.55931641 55.3984375 15.68359375 C58 16 58 16 60 17 C58.3164557 37.02531646 58.3164557 37.02531646 55 42 C53.3954444 41.85851011 51.79136233 41.71164314 50.1875 41.5625 C49.29417969 41.48128906 48.40085937 41.40007812 47.48046875 41.31640625 C45 41 45 41 42 40 C42 39.01 42 38.02 42 37 C41.30551758 36.92483154 40.61103516 36.84966309 39.89550781 36.7722168 C36.67933927 36.41916411 33.46473245 36.05338971 30.25 35.6875 C29.15816406 35.56955078 28.06632812 35.45160156 26.94140625 35.33007812 C19.54004769 34.47607521 12.05962204 33.47819921 5 31 C4.67 30.34 4.34 29.68 4 29 C3.01 28.34 2.02 27.68 1 27 C1 26.67 1 26.34 1 26 C0.34 26 -0.32 26 -1 26 C-1 26.33 -1 26.66 -1 27 C-2.7015625 27.2165625 -2.7015625 27.2165625 -4.4375 27.4375 C-7.80777201 27.61171478 -7.80777201 27.61171478 -9 29 C-10.92578125 28.94921875 -10.92578125 28.94921875 -13.3125 28.6875 C-14.48232422 28.56955078 -14.48232422 28.56955078 -15.67578125 28.44921875 C-18.08207271 27.98413721 -19.87133832 27.19341444 -22 26 C-21.4533512 17.81911794 -19.82876132 9.98214061 -18 2 C-8.58997722 1.6309795 -8.58997722 1.6309795 -4 4 C-4 5.98 -4 7.96 -4 10 C-1.36 10.33 1.28 10.66 4 11 C3.67 9.68 3.34 8.36 3 7 C4.65 7 6.3 7 8 7 C8 7.99 8 8.98 8 10 C7.34 10 6.68 10 6 10 C6 10.66 6 11.32 6 12 C10.47446744 10.80680868 12.41870739 9.81380169 15 6 C14.33613281 5.95101563 13.67226563 5.90203125 12.98828125 5.8515625 C4.21792619 5.10896309 4.21792619 5.10896309 0 3 C0 2.01 0 1.02 0 0 Z " fill="#FAF9F9" transform="translate(31,25)"/>
<path d="M0 0 C1.27463104 0.00444122 2.54926208 0.00888245 3.86251831 0.01345825 C4.56506744 0.0131662 5.26761658 0.01287415 5.99145508 0.01257324 C8.31822984 0.0139688 10.64468607 0.02954031 12.97140503 0.04519653 C14.58280258 0.04892587 16.1942024 0.05177321 17.80560303 0.05377197 C22.05042767 0.06141472 26.29511583 0.08106864 30.53988647 0.10317993 C34.86990513 0.1236246 39.19994579 0.13277073 43.52999878 0.14285278 C52.02875939 0.16431399 60.52740899 0.19845758 69.02609253 0.24050903 C69.08390186 5.55896756 68.82769397 10.03410327 67.52609253 15.24050903 C67.24765503 16.37488403 66.96921753 17.50925903 66.68234253 18.67800903 C66.46578003 19.52363403 66.24921753 20.36925903 66.02609253 21.24050903 C62.39609253 21.24050903 58.76609253 21.24050903 55.02609253 21.24050903 C54.36609253 22.56050903 53.70609253 23.88050903 53.02609253 25.24050903 C50.38609253 24.91050903 47.74609253 24.58050903 45.02609253 24.24050903 C45.02609253 23.25050903 45.02609253 22.26050903 45.02609253 21.24050903 C46.01609253 21.24050903 47.00609253 21.24050903 48.02609253 21.24050903 C48.02609253 20.58050903 48.02609253 19.92050903 48.02609253 19.24050903 C46.04609253 18.91050903 44.06609253 18.58050903 42.02609253 18.24050903 C42.52109253 20.71550903 42.52109253 20.71550903 43.02609253 23.24050903 C39.86493477 21.87067401 39.03338333 21.25144524 37.02609253 18.24050903 C37.02609253 17.25050903 37.02609253 16.26050903 37.02609253 15.24050903 C47.58417909 16.20406256 47.58417909 16.20406256 52.02609253 17.24050903 C52.02609253 16.25050903 52.02609253 15.26050903 52.02609253 14.24050903 C50.93941284 14.05875122 50.93941284 14.05875122 49.83078003 13.87332153 C39.08859253 12.01134237 39.08859253 12.01134237 35.02609253 10.24050903 C34.36609253 9.25050903 33.70609253 8.26050903 33.02609253 7.24050903 C30.48401282 6.90707352 30.48401282 6.90707352 28.02609253 7.24050903 C27.69609253 7.57050903 27.36609253 7.90050903 27.02609253 8.24050903 C20.55660163 8.07363724 14.29252166 6.7565806 8.02609253 5.24050903 C8.02609253 6.23050903 8.02609253 7.22050903 8.02609253 8.24050903 C12.97609253 9.23050903 17.92609253 10.22050903 23.02609253 11.24050903 C21.02609253 15.24050903 21.02609253 15.24050903 19.02609253 17.24050903 C16.40109253 17.36550903 16.40109253 17.36550903 14.02609253 17.24050903 C14.02609253 16.58050903 14.02609253 15.92050903 14.02609253 15.24050903 C14.68609253 15.24050903 15.34609253 15.24050903 16.02609253 15.24050903 C16.02609253 14.25050903 16.02609253 13.26050903 16.02609253 12.24050903 C14.37609253 12.24050903 12.72609253 12.24050903 11.02609253 12.24050903 C11.35609253 13.56050903 11.68609253 14.88050903 12.02609253 16.24050903 C6.27609253 16.36550903 6.27609253 16.36550903 4.02609253 15.24050903 C3.69609253 13.26050903 3.36609253 11.28050903 3.02609253 9.24050903 C-2.91390747 8.25050903 -2.91390747 8.25050903 -8.97390747 7.24050903 C-7.98390747 6.91050903 -6.99390747 6.58050903 -5.97390747 6.24050903 C-5.38320733 4.29447629 -5.38320733 4.29447629 -4.97390747 2.24050903 C-2.97390747 0.24050903 -2.97390747 0.24050903 0 0 Z " fill="#DD1C37" transform="translate(22.973907470703125,19.759490966796875)"/>
<path d="M0 0 C3.41943506 0.42269769 6.72174346 0.91991217 10 2 C11.625 4.625 11.625 4.625 12 7 C12.928125 7.12375 13.85625 7.2475 14.8125 7.375 C17.87439978 7.80805754 20.90071751 8.35491484 23.9375 8.9375 C29.46810051 9.96823779 35.01810116 10.66557242 40.60522461 11.30249023 C43.55337032 11.64743595 46.17349701 12.05783234 49 13 C49 13.99 49 14.98 49 16 C49.71027344 16.12117188 50.42054687 16.24234375 51.15234375 16.3671875 C52.07144531 16.53476563 52.99054688 16.70234375 53.9375 16.875 C54.85402344 17.03742188 55.77054687 17.19984375 56.71484375 17.3671875 C57.84599609 17.68042969 57.84599609 17.68042969 59 18 C59.495 18.99 59.495 18.99 60 20 C57.03592441 21.48203779 54.37920835 21.11920826 51.07177734 21.11352539 C50.00332329 21.11374443 50.00332329 21.11374443 48.9132843 21.1139679 C46.55413794 21.11327011 44.19507011 21.10548397 41.8359375 21.09765625 C40.20211836 21.0957916 38.56829866 21.09436792 36.93447876 21.09336853 C32.6305182 21.08954709 28.32659129 21.07971998 24.02264404 21.06866455 C19.63228816 21.05844242 15.24192685 21.05386919 10.8515625 21.04882812 C2.23435954 21.03809739 -6.38281604 21.02102543 -15 21 C-16.28365387 18.43269226 -16.13275635 16.55347003 -16.125 13.6875 C-16.12757812 12.74261719 -16.13015625 11.79773437 -16.1328125 10.82421875 C-16.005363 8.11404264 -15.60596226 5.64026415 -15 3 C-14.09636719 3.09539063 -13.19273438 3.19078125 -12.26171875 3.2890625 C-11.08222656 3.39992187 -9.90273437 3.51078125 -8.6875 3.625 C-6.92986328 3.79902344 -6.92986328 3.79902344 -5.13671875 3.9765625 C-1.83408833 4.29448782 -1.83408833 4.29448782 1 2 C0.67 1.34 0.34 0.68 0 0 Z " fill="#040404" transform="translate(24,49)"/>
<path d="M0 0 C0.33 0 0.66 0 1 0 C1.33 2.97 1.66 5.94 2 9 C2.74161377 8.98428955 3.48322754 8.9685791 4.24731445 8.95239258 C7.60229896 8.89009286 10.95716186 8.85102493 14.3125 8.8125 C15.47974609 8.78736328 16.64699219 8.76222656 17.84960938 8.73632812 C18.96787109 8.72666016 20.08613281 8.71699219 21.23828125 8.70703125 C22.26993408 8.6913208 23.30158691 8.67561035 24.36450195 8.65942383 C27 9 27 9 28.82885742 10.33081055 C30.69278896 12.9874084 30.52302846 14.86182924 30 18 C25.92785774 21.31200904 22.44316221 21.37782675 17.3125 21.3125 C16.63638672 21.31572266 15.96027344 21.31894531 15.26367188 21.32226562 C10.26758205 21.26758205 10.26758205 21.26758205 8 19 C7.67 19.66 7.34 20.32 7 21 C3.7 21 0.4 21 -3 21 C-4.2942471 18.41150579 -3.81710662 17.29019914 -3.1875 14.5 C-3.01605469 13.7059375 -2.84460938 12.911875 -2.66796875 12.09375 C-2 10 -2 10 0 8 C0.24212873 6.01871492 0.24212873 6.01871492 0.125 3.875 C0.08375 2.59625 0.0425 1.3175 0 0 Z M10 10 C10.99 11.485 10.99 11.485 12 13 C12 12.01 12 11.02 12 10 C11.34 10 10.68 10 10 10 Z M22 13 C22 13.99 22 14.98 22 16 C22.99 16 23.98 16 25 16 C25 15.34 25 14.68 25 14 C24.01 13.67 23.02 13.34 22 13 Z " fill="#232323" transform="translate(7,61)"/>
<path d="M0 0 C1.04659538 -0.01226624 1.04659538 -0.01226624 2.11433411 -0.02478027 C4.42655576 -0.04962308 6.73871621 -0.06614471 9.05102539 -0.08056641 C9.83979128 -0.08589008 10.62855717 -0.09121376 11.44122505 -0.09669876 C15.61380161 -0.12342181 19.78634829 -0.14280188 23.95898438 -0.15722656 C28.2748419 -0.17389913 32.58993944 -0.21869999 36.905509 -0.26959801 C40.21945608 -0.30319707 43.53322083 -0.31479564 46.84732246 -0.32045364 C48.43861279 -0.32718345 50.02989039 -0.3424504 51.62101555 -0.36634445 C53.84563764 -0.39785338 56.06818351 -0.39805627 58.29296875 -0.390625 C59.55934677 -0.39871185 60.82572479 -0.40679871 62.13047791 -0.41513062 C65.21118164 0.19287109 65.21118164 0.19287109 67.16847229 2.52938843 C68.58754898 6.15425873 67.87683603 8.16315362 66.83618164 11.88037109 C65.31297653 18.03152704 65.02424897 22.98650028 66.21118164 29.19287109 C65.92243164 28.55349609 65.63368164 27.91412109 65.33618164 27.25537109 C64.38294713 25.0408103 64.38294713 25.0408103 62.21118164 24.19287109 C62.67329824 18.69611576 63.32360507 13.27279211 64.25024414 7.83349609 C64.43022949 6.77163086 64.61021484 5.70976562 64.7956543 4.61572266 C64.93277832 3.81618164 65.06990234 3.01664063 65.21118164 2.19287109 C55.87505741 2.20773009 46.53954589 2.24925094 37.20371532 2.32496166 C32.86881254 2.35927537 28.53426379 2.38434836 24.19921875 2.38842773 C20.01676897 2.39270144 15.83511843 2.42108551 11.65291786 2.46630287 C10.05615199 2.47930787 8.45929061 2.48357493 6.86247826 2.47902489 C4.62781508 2.4741396 2.39550672 2.50011202 0.16113281 2.53344727 C-1.11127762 2.5401091 -2.38368805 2.54677094 -3.69465637 2.55363464 C-6.98042337 2.86469352 -6.98042337 2.86469352 -8.53569031 5.67158508 C-9.15598869 6.91962166 -9.15598869 6.91962166 -9.78881836 8.19287109 C-10.77881836 8.52287109 -11.76881836 8.85287109 -12.78881836 9.19287109 C-13.57846222 11.00485365 -13.57846222 11.00485365 -13.95678711 13.23583984 C-14.12758789 14.06277344 -14.29838867 14.88970703 -14.47436523 15.74169922 C-14.64000977 16.61246094 -14.8056543 17.48322266 -14.97631836 18.38037109 C-15.15356445 19.23179688 -15.33081055 20.08322266 -15.51342773 20.96044922 C-16.40973202 25.43504938 -17.00654759 29.60554144 -16.78881836 34.19287109 C-17.77881836 34.68787109 -17.77881836 34.68787109 -18.78881836 35.19287109 C-21.85255493 29.06539796 -18.00770363 18.55359064 -16.80053711 12.19677734 C-15.66219571 8.81691426 -14.73399365 8.04297142 -11.78881836 6.19287109 C-10.76576888 4.5402527 -9.76265782 2.87495744 -8.78881836 1.19287109 C-5.86542761 -0.26882428 -3.26469607 0.03317472 0 0 Z " fill="#3E080F" transform="translate(26.788818359375,17.80712890625)"/>
<path d="M0 0 C2.97 0 5.94 0 9 0 C9.125 5.75 9.125 5.75 8 8 C12.29 8 16.58 8 21 8 C21 8.66 21 9.32 21 10 C17.37 10 13.74 10 10 10 C9.34 11.32 8.68 12.64 8 14 C5.36 13.67 2.72 13.34 0 13 C0 12.01 0 11.02 0 10 C0.99 10 1.98 10 3 10 C3 9.34 3 8.68 3 8 C0.03 7.505 0.03 7.505 -3 7 C-2.67 8.65 -2.34 10.3 -2 12 C-5.16115776 10.63016497 -5.9927092 10.0109362 -8 7 C-8 6.01 -8 5.02 -8 4 C2.55808656 4.96355353 2.55808656 4.96355353 7 6 C7 5.01 7 4.02 7 3 C4.69 2.67 2.38 2.34 0 2 C0 1.34 0 0.68 0 0 Z " fill="#D03550" transform="translate(68,31)"/>
<path d="M0 0 C0.66 0.33 1.32 0.66 2 1 C1.34 2.32 0.68 3.64 0 5 C2.64 5.66 5.28 6.32 8 7 C8.33 6.34 8.66 5.68 9 5 C9.66 5 10.32 5 11 5 C11 5.99 11 6.98 11 8 C15.95 8.99 20.9 9.98 26 11 C24 15 24 15 22 17 C19.375 17.125 19.375 17.125 17 17 C17 16.34 17 15.68 17 15 C17.66 15 18.32 15 19 15 C19 14.01 19 13.02 19 12 C17.35 12 15.7 12 14 12 C14.33 13.32 14.66 14.64 15 16 C9.25 16.125 9.25 16.125 7 15 C6.67 13.02 6.34 11.04 6 9 C0.06 8.01 0.06 8.01 -6 7 C-5.01 6.67 -4.02 6.34 -3 6 C-2.40929986 4.05396726 -2.40929986 4.05396726 -2 2 C-1.34 1.34 -0.68 0.68 0 0 Z " fill="#D8435A" transform="translate(20,20)"/>
<path d="M0 0 C0.33 0 0.66 0 1 0 C1.33 2.97 1.66 5.94 2 9 C10.25 9 18.5 9 27 9 C27 9.33 27 9.66 27 10 C24.03 10 21.06 10 18 10 C17.67 11.98 17.34 13.96 17 16 C15.875 12.25 15.875 12.25 17 10 C14.02934491 10.34227572 14.02934491 10.34227572 11 11 C10.67 11.66 10.34 12.32 10 13 C9.67 12.67 9.34 12.34 9 12 C7.33382885 11.95936168 5.66611905 11.957279 4 12 C3.67 14.64 3.34 17.28 3 20 C4.32 20.33 5.64 20.66 7 21 C3.7 21 0.4 21 -3 21 C-4.2942471 18.41150579 -3.81710662 17.29019914 -3.1875 14.5 C-3.01605469 13.7059375 -2.84460938 12.911875 -2.66796875 12.09375 C-2 10 -2 10 0 8 C0.24212873 6.01871492 0.24212873 6.01871492 0.125 3.875 C0.08375 2.59625 0.0425 1.3175 0 0 Z " fill="#525252" transform="translate(7,61)"/>
<path d="M0 0 C3.63 0 7.26 0 11 0 C12.38125018 2.76250036 12.19079306 4.94731099 12 8 C11.34 8.66 10.68 9.32 10 10 C6.375 9.625 6.375 9.625 3 9 C3 8.34 3 7.68 3 7 C3.99 6.67 4.98 6.34 6 6 C6.33 5.34 6.66 4.68 7 4 C6.34 4 5.68 4 5 4 C4.67 4.66 4.34 5.32 4 6 C3.34 6 2.68 6 2 6 C2 6.99 2 7.98 2 9 C1.01 9 0.02 9 -1 9 C-0.67 6.03 -0.34 3.06 0 0 Z " fill="#161616" transform="translate(25,71)"/>
<path d="M0 0 C3.96 0 7.92 0 12 0 C13.07349791 4.29399165 12.79682816 5.19495213 11 9 C9.68 9 8.36 9 7 9 C7 8.34 7 7.68 7 7 C4.69 7.66 2.38 8.32 0 9 C0 6.03 0 3.06 0 0 Z " fill="#151515" transform="translate(74,71)"/>
<path d="M0 0 C2.17701413 3.45010403 2.05135831 5.45092864 1.20703125 9.38671875 C0.98853516 10.40701172 0.77003906 11.42730469 0.54492188 12.47851562 C0.30322266 13.53748047 0.06152344 14.59644531 -0.1875 15.6875 C-0.40986328 16.75806641 -0.63222656 17.82863281 -0.86132812 18.93164062 C-2.16841678 24.83788362 -2.16841678 24.83788362 -3 27 C-6.1184325 28.0394775 -8.27475586 28.11494838 -11.54296875 28.09765625 C-12.61611328 28.09443359 -13.68925781 28.09121094 -14.79492188 28.08789062 C-15.91447266 28.07951172 -17.03402344 28.07113281 -18.1875 28.0625 C-19.31865234 28.05798828 -20.44980469 28.05347656 -21.61523438 28.04882812 C-24.41020927 28.03703498 -27.2050782 28.0205765 -30 28 C-30 27.67 -30 27.34 -30 27 C-22.41 27 -14.82 27 -7 27 C-7.33 26.01 -7.66 25.02 -8 24 C-7.01 23.67 -6.02 23.34 -5 23 C-4.18239158 19.98506895 -3.57005246 17.06506467 -3 14 C-2.46374525 11.47800985 -1.92187392 8.95720879 -1.375 6.4375 C-0.91632934 4.29173874 -0.45787983 2.14593015 0 0 Z " fill="#403E3F" transform="translate(91,43)"/>
<path d="M0 0 C6.43974581 0.62320121 12.67572401 1.64008262 19 3 C18.34 3.66 17.68 4.32 17 5 C16.35232207 7.57061311 16.35232207 7.57061311 16 10 C14.68 10.33 13.36 10.66 12 11 C12.99 9.35 13.98 7.7 15 6 C14.00419922 5.92652344 14.00419922 5.92652344 12.98828125 5.8515625 C4.21792619 5.10896309 4.21792619 5.10896309 0 3 C0 2.01 0 1.02 0 0 Z " fill="#FEDFE4" transform="translate(31,25)"/>
<path d="M0 0 C0.66 0.33 1.32 0.66 2 1 C1.34 2.32 0.68 3.64 0 5 C2.64 5.66 5.28 6.32 8 7 C8.33 6.34 8.66 5.68 9 5 C9.66 5 10.32 5 11 5 C10.125 10.75 10.125 10.75 9 13 C10.32 12.67 11.64 12.34 13 12 C13 12.66 13 13.32 13 14 C13.66 14 14.32 14 15 14 C15 14.66 15 15.32 15 16 C9.25 16.125 9.25 16.125 7 15 C6.67 13.02 6.34 11.04 6 9 C0.06 8.01 0.06 8.01 -6 7 C-5.01 6.67 -4.02 6.34 -3 6 C-2.40929986 4.05396726 -2.40929986 4.05396726 -2 2 C-1.34 1.34 -0.68 0.68 0 0 Z " fill="#CA2B45" transform="translate(20,20)"/>
<path d="M0 0 C2.3125 -0.3125 2.3125 -0.3125 5 0 C6.8125 2.5 6.8125 2.5 8 5 C7.360625 5.103125 6.72125 5.20625 6.0625 5.3125 C5.381875 5.539375 4.70125 5.76625 4 6 C3.67 6.99 3.34 7.98 3 9 C1.68 9 0.36 9 -1 9 C-0.67 6.03 -0.34 3.06 0 0 Z " fill="#070707" transform="translate(11,72)"/>
<path d="M0 0 C0.33 0 0.66 0 1 0 C1 1.65 1 3.3 1 5 C1.99 4.34 2.98 3.68 4 3 C5.32 3 6.64 3 8 3 C8 3.66 8 4.32 8 5 C9.32 5 10.64 5 12 5 C12 5.66 12 6.32 12 7 C10.35 7 8.7 7 7 7 C7 6.01 7 5.02 7 4 C6.34 4 5.68 4 5 4 C4.67 4.99 4.34 5.98 4 7 C1.03 7 -1.94 7 -5 7 C-5 6.34 -5 5.68 -5 5 C-3.68 5 -2.36 5 -1 5 C-0.67 3.35 -0.34 1.7 0 0 Z " fill="#5A5A5A" transform="translate(73,75)"/>
<path d="M0 0 C2.97 0 5.94 0 9 0 C8.67 0.66 8.34 1.32 8 2 C6.68 2 5.36 2 4 2 C4 3.32 4 4.64 4 6 C3.34 6 2.68 6 2 6 C2 6.99 2 7.98 2 9 C1.01 9 0.02 9 -1 9 C-0.67 6.03 -0.34 3.06 0 0 Z " fill="#070707" transform="translate(25,71)"/>
<path d="M0 0 C4.62 0 9.24 0 14 0 C14 3.41099168 13.50854594 6.63088314 13 10 C12.34 9.67 11.68 9.34 11 9 C11.33 6.69 11.66 4.38 12 2 C10.02 2.99 8.04 3.98 6 5 C6 3.68 6 2.36 6 1 C4.68 1 3.36 1 2 1 C1.67 2.32 1.34 3.64 1 5 C0.67 3.35 0.34 1.7 0 0 Z " fill="#545454" transform="translate(36,70)"/>
<path d="M0 0 C0.66 0.33 1.32 0.66 2 1 C1.855625 2.258125 1.71125 3.51625 1.5625 4.8125 C1.24965735 7.54552815 0.98055498 10.26771621 0.78125 13.01171875 C0.7090625 13.99785156 0.636875 14.98398437 0.5625 16 C0.50191406 16.928125 0.44132813 17.85625 0.37890625 18.8125 C0.25386719 19.534375 0.12882813 20.25625 0 21 C-0.66 21.33 -1.32 21.66 -2 22 C-4.94660207 16.10679586 -1.35246991 6.17146465 0 0 Z " fill="#444444" transform="translate(10,31)"/>
<path d="M0 0 C0 0.99 0 1.98 0 3 C-5.28 2.67 -10.56 2.34 -16 2 C-16 1.34 -16 0.68 -16 0 C-10.27304317 -2.71276903 -5.87042768 -1.50821265 0 0 Z " fill="#FDD8E1" transform="translate(75,34)"/>
<path d="M0 0 C4.62 0 9.24 0 14 0 C14 0.66 14 1.32 14 2 C10.37 2 6.74 2 3 2 C2.34 3.32 1.68 4.64 1 6 C-0.65 5.67 -2.3 5.34 -4 5 C-3.34 3.68 -2.68 2.36 -2 1 C-2 1.99 -2 2.98 -2 4 C-1.34 4 -0.68 4 0 4 C0 2.68 0 1.36 0 0 Z " fill="#C7334A" transform="translate(75,39)"/>
<path d="M0 0 C2.97 0 5.94 0 9 0 C9.19622241 4.21878192 8.80230168 7.17010894 7 11 C6.67 11 6.34 11 6 11 C6.33 8.36 6.66 5.72 7 3 C4.69 2.67 2.38 2.34 0 2 C0 1.34 0 0.68 0 0 Z " fill="#E45467" transform="translate(68,31)"/>
<path d="M0 0 C0.66 0.33 1.32 0.66 2 1 C1.34 2.32 0.68 3.64 0 5 C2.97 5.99 5.94 6.98 9 8 C8.67 9.65 8.34 11.3 8 13 C7.79632813 12.36578125 7.59265625 11.7315625 7.3828125 11.078125 C6.12778129 8.70935435 6.12778129 8.70935435 3.1796875 8.171875 C2.08914062 8.03265625 0.99859375 7.8934375 -0.125 7.75 C-1.22070312 7.60046875 -2.31640625 7.4509375 -3.4453125 7.296875 C-4.28835938 7.19890625 -5.13140625 7.1009375 -6 7 C-5.01 6.67 -4.02 6.34 -3 6 C-2.40929986 4.05396726 -2.40929986 4.05396726 -2 2 C-1.34 1.34 -0.68 0.68 0 0 Z " fill="#C5445A" transform="translate(20,20)"/>
<path d="M0 0 C1.45880109 0.14107747 2.91703551 0.28802415 4.375 0.4375 C5.59316406 0.55931641 5.59316406 0.55931641 6.8359375 0.68359375 C9 1 9 1 11 2 C10.67 2.99 10.34 3.98 10 5 C4.06 4.01 4.06 4.01 -2 3 C-1.34 2.01 -0.68 1.02 0 0 Z " fill="#858585" transform="translate(62,57)"/>
<path d="M0 0 C1.32 0 2.64 0 4 0 C3.67 0.99 3.34 1.98 3 3 C2.34 3 1.68 3 1 3 C1.33 4.98 1.66 6.96 2 9 C0.68 9 -0.64 9 -2 9 C-2.125 5.625 -2.125 5.625 -2 2 C-1.34 1.34 -0.68 0.68 0 0 Z " fill="#060606" transform="translate(51,71)"/>
<path d="M0 0 C2.97 0.495 2.97 0.495 6 1 C6 1.66 6 2.32 6 3 C5.01 3 4.02 3 3 3 C3 3.99 3 4.98 3 6 C1.1875 6.6875 1.1875 6.6875 -1 7 C-2.75 5.5625 -2.75 5.5625 -4 4 C-3.67 3.34 -3.34 2.68 -3 2 C-1.68 2.99 -0.36 3.98 1 5 C0.67 3.35 0.34 1.7 0 0 Z " fill="#FBCCD0" transform="translate(65,38)"/>
<path d="M0 0 C0.99 0.495 0.99 0.495 2 1 C2 1.99 2 2.98 2 4 C2.99 4 3.98 4 5 4 C5 3.01 5 2.02 5 1 C6.32 1.33 7.64 1.66 9 2 C8.01 2 7.02 2 6 2 C6 2.66 6 3.32 6 4 C7.32 4.33 8.64 4.66 10 5 C10 5.33 10 5.66 10 6 C7.03 6 4.06 6 1 6 C0.67 4.02 0.34 2.04 0 0 Z " fill="#565656" transform="translate(22,76)"/>
<path d="M0 0 C1.65 0 3.3 0 5 0 C4.01 0.495 4.01 0.495 3 1 C3 1.99 3 2.98 3 4 C3.99 4.33 4.98 4.66 6 5 C4.68 5 3.36 5 2 5 C1.67 5.99 1.34 6.98 1 8 C0.34 8 -0.32 8 -1 8 C-0.67 5.36 -0.34 2.72 0 0 Z " fill="#010101" transform="translate(75,72)"/>
<path d="M0 0 C0.66 0.66 1.32 1.32 2 2 C-1.1184325 3.0394775 -3.27475586 3.11494838 -6.54296875 3.09765625 C-7.61611328 3.09443359 -8.68925781 3.09121094 -9.79492188 3.08789062 C-10.91447266 3.07951172 -12.03402344 3.07113281 -13.1875 3.0625 C-14.31865234 3.05798828 -15.44980469 3.05347656 -16.61523438 3.04882812 C-19.41020927 3.03703498 -22.2050782 3.0205765 -25 3 C-25 2.67 -25 2.34 -25 2 C-24.31373535 1.97494385 -23.6274707 1.9498877 -22.92041016 1.92407227 C-19.82174183 1.80828573 -16.72339077 1.68548115 -13.625 1.5625 C-12.54476562 1.52318359 -11.46453125 1.48386719 -10.3515625 1.44335938 C-8.8046875 1.38051758 -8.8046875 1.38051758 -7.2265625 1.31640625 C-6.27346191 1.27974854 -5.32036133 1.24309082 -4.33837891 1.20532227 C-1.97867651 1.14236535 -1.97867651 1.14236535 0 0 Z " fill="#9F9F9F" transform="translate(86,68)"/>
<path d="M0 0 C0.66 0.33 1.32 0.66 2 1 C1.360625 1.598125 0.72125 2.19625 0.0625 2.8125 C-2.20310389 4.90810337 -2.20310389 4.90810337 -3 8 C-3.99 8.33 -4.98 8.66 -6 9 C-7.21869929 11.50447516 -7.21869929 11.50447516 -8 14 C-8.33 14 -8.66 14 -9 14 C-9.25 11.6875 -9.25 11.6875 -9 9 C-7.1875 7.5 -7.1875 7.5 -5 6 C-3.97695052 4.34738161 -2.97383946 2.68208635 -2 1 C-1.34 0.67 -0.68 0.34 0 0 Z " fill="#3B1B1E" transform="translate(20,18)"/>
<path d="M0 0 C-0.639375 0.309375 -1.27875 0.61875 -1.9375 0.9375 C-3.93610821 1.8345163 -3.93610821 1.8345163 -5 3 C-6.69141656 2.91036938 -8.37959602 2.75422324 -10.0625 2.5625 C-11.44115234 2.40974609 -11.44115234 2.40974609 -12.84765625 2.25390625 C-13.55792969 2.17011719 -14.26820312 2.08632813 -15 2 C-9.43605298 -0.82229197 -6.29214226 -1.08902462 0 0 Z " fill="#D73651" transform="translate(55,25)"/>
<path d="M0 0 C1.65 0 3.3 0 5 0 C5 0.99 5 1.98 5 3 C4.34 3 3.68 3 3 3 C3 3.66 3 4.32 3 5 C0.03 5 -2.94 5 -6 5 C-6.33 4.34 -6.66 3.68 -7 3 C-4.36 3.33 -1.72 3.66 1 4 C0.67 2.68 0.34 1.36 0 0 Z " fill="#FAC5D1" transform="translate(34,32)"/>
<path d="M0 0 C2.97 0.33 5.94 0.66 9 1 C8.01 1.66 7.02 2.32 6 3 C6.99 3.66 7.98 4.32 9 5 C2.25 4.125 2.25 4.125 0 3 C0 2.01 0 1.02 0 0 Z " fill="#FCCED3" transform="translate(31,25)"/>
<path d="M0 0 C0.98484375 0.19464844 1.9696875 0.38929687 2.984375 0.58984375 C4.10585938 0.82380859 4.10585938 0.82380859 5.25 1.0625 C5.25 1.3925 5.25 1.7225 5.25 2.0625 C0.63 2.0625 -3.99 2.0625 -8.75 2.0625 C-9.08 1.4025 -9.41 0.7425 -9.75 0.0625 C-6.21905698 -1.13970203 -3.62101018 -0.73282349 0 0 Z " fill="#484848" transform="translate(58.75,79.9375)"/>
<path d="M0 0 C1.2065625 0.0309375 1.2065625 0.0309375 2.4375 0.0625 C3.0975 1.3825 3.7575 2.7025 4.4375 4.0625 C1.5625 4.25 1.5625 4.25 -1.5625 4.0625 C-2.2225 3.0725 -2.8825 2.0825 -3.5625 1.0625 C-2.5625 0.0625 -2.5625 0.0625 0 0 Z " fill="#EBA8B2" transform="translate(53.5625,25.9375)"/>
<path d="M0 0 C0.99 0.33 1.98 0.66 3 1 C3.33 3.31 3.66 5.62 4 8 C3.01 8 2.02 8 1 8 C0.67 5.36 0.34 2.72 0 0 Z " fill="#030303" transform="translate(68,72)"/>
<path d="M0 0 C0.99 0 1.98 0 3 0 C1.92598892 2.91517292 1.22189824 4.77810176 -1 7 C-1.625 4.625 -1.625 4.625 -2 2 C-1.34 1.34 -0.68 0.68 0 0 Z " fill="#0C0C0C" transform="translate(45,72)"/>
<path d="M0 0 C1.98 0 3.96 0 6 0 C5.34 1.32 4.68 2.64 4 4 C2.68 4 1.36 4 0 4 C0 2.68 0 1.36 0 0 Z " fill="#D22C42" transform="translate(40,31)"/>
<path d="M0 0 C4.95 0.99 4.95 0.99 10 2 C9.34 2.66 8.68 3.32 8 4 C5.0371669 3.60495559 2.61673759 2.40182371 0 1 C0 0.67 0 0.34 0 0 Z " fill="#6A6A6A" transform="translate(24,49)"/>
</svg>
