<?xml version="1.0" encoding="UTF-8"?>
<svg version="1.1" xmlns="http://www.w3.org/2000/svg" width="50" height="50">
<path d="M0 0 C0.495 2.97 0.495 2.97 1 6 C2.670625 5.9690625 2.670625 5.9690625 4.375 5.9375 C8 6 8 6 10 7 C11.84446217 12.77845491 12.26086483 17.96969157 12.125 24 C12.11597656 24.77472656 12.10695312 25.54945312 12.09765625 26.34765625 C12.07439388 28.23190843 12.0385364 30.11599832 12 32 C10.68 32 9.36 32 8 32 C8 32.66 8 33.32 8 34 C7.49782959 33.83773926 6.99565918 33.67547852 6.47827148 33.50830078 C3.10274911 32.8159712 -0.22245506 32.85737254 -3.65234375 32.8671875 C-4.38949112 32.86623077 -5.12663849 32.86527405 -5.88612366 32.86428833 C-7.44190557 32.86360925 -8.99769036 32.86544455 -10.5534668 32.86962891 C-12.92568379 32.87497338 -15.2977108 32.86967867 -17.66992188 32.86328125 C-19.18489625 32.86394223 -20.6998705 32.8652238 -22.21484375 32.8671875 C-22.9201976 32.86516327 -23.62555145 32.86313904 -24.35227966 32.86105347 C-28.02692771 32.87840855 -31.42641367 33.12729443 -35 34 C-35 33.34 -35 32.68 -35 32 C-35.99 32 -36.98 32 -38 32 C-38.02684312 29.18743719 -38.04676188 26.37512759 -38.0625 23.5625 C-38.07087891 22.76005859 -38.07925781 21.95761719 -38.08789062 21.13085938 C-38.0965143 19.08704779 -38.0522815 17.04316098 -38 15 C-37.67 14.67 -37.34 14.34 -37 14 C-36.855625 12.845 -36.71125 11.69 -36.5625 10.5 C-36.376875 9.345 -36.19125 8.19 -36 7 C-33.04335481 5.5216774 -30.25770263 5.93967217 -27 6 C-26.67 4.02 -26.34 2.04 -26 0 C-17.16776465 -1.19354532 -8.84032918 -0.77546747 0 0 Z " fill="#D74E48" transform="translate(38,8)"/>
<path d="M0 0 C3.5625 0.125 3.5625 0.125 5.5625 1.125 C7.40696217 6.90345491 7.82336483 12.09469157 7.6875 18.125 C7.67847656 18.89972656 7.66945313 19.67445312 7.66015625 20.47265625 C7.63689388 22.35690843 7.6010364 24.24099832 7.5625 26.125 C6.2425 26.125 4.9225 26.125 3.5625 26.125 C3.5625 26.785 3.5625 27.445 3.5625 28.125 C2.2425 27.795 0.9225 27.465 -0.4375 27.125 C0.2225 26.795 0.8825 26.465 1.5625 26.125 C1.5625 23.485 1.5625 20.845 1.5625 18.125 C-0.0875 18.125 -1.7375 18.125 -3.4375 18.125 C-3.4375 17.465 -3.4375 16.805 -3.4375 16.125 C-4.365625 16.310625 -5.29375 16.49625 -6.25 16.6875 C-9.4375 17.125 -9.4375 17.125 -12.4375 16.125 C-12.4375 15.135 -12.4375 14.145 -12.4375 13.125 C-11.7775 13.125 -11.1175 13.125 -10.4375 13.125 C-10.4375 12.465 -10.4375 11.805 -10.4375 11.125 C-9.1175 11.125 -7.7975 11.125 -6.4375 11.125 C-6.4375 12.115 -6.4375 13.105 -6.4375 14.125 C-5.4475 14.125 -4.4575 14.125 -3.4375 14.125 C-3.52128906 13.19816406 -3.60507812 12.27132813 -3.69140625 11.31640625 C-3.79324219 10.11886719 -3.89507812 8.92132813 -4 7.6875 C-4.15662109 5.89505859 -4.15662109 5.89505859 -4.31640625 4.06640625 C-4.35636719 3.09574219 -4.39632812 2.12507813 -4.4375 1.125 C-3.4375 0.125 -3.4375 0.125 0 0 Z " fill="#4F4A54" transform="translate(42.4375,13.875)"/>
<path d="M0 0 C0.33 0.33 0.66 0.66 1 1 C0.90982004 3.19050021 0.75333792 5.378466 0.5625 7.5625 C0.46066406 8.76003906 0.35882813 9.95757812 0.25390625 11.19140625 C0.17011719 12.11824219 0.08632812 13.04507812 0 14 C0.99 14 1.98 14 3 14 C3 13.01 3 12.02 3 11 C4.32 11 5.64 11 7 11 C7.66 12.65 8.32 14.3 9 16 C3.375 17.125 3.375 17.125 0 16 C0 16.66 0 17.32 0 18 C-1.65 18 -3.3 18 -5 18 C-5 20.64 -5 23.28 -5 26 C-4.34 26.33 -3.68 26.66 -3 27 C-4.65 27.33 -6.3 27.66 -8 28 C-8 27.34 -8 26.68 -8 26 C-8.99 26 -9.98 26 -11 26 C-11.02684312 23.18743719 -11.04676188 20.37512759 -11.0625 17.5625 C-11.07087891 16.76005859 -11.07925781 15.95761719 -11.08789062 15.13085938 C-11.0965143 13.08704779 -11.0522815 11.04316098 -11 9 C-10.67 8.67 -10.34 8.34 -10 8 C-9.855625 6.845 -9.71125 5.69 -9.5625 4.5 C-9.376875 3.345 -9.19125 2.19 -9 1 C-6.01787087 -0.49106457 -3.28390342 -0.11941467 0 0 Z " fill="#697482" transform="translate(11,14)"/>
<path d="M0 0 C5.44693314 -0.09688221 10.63904667 -0.12862175 16 1 C16.33 1.99 16.66 2.98 17 4 C19.01508358 4.73323796 19.01508358 4.73323796 21 5 C21.33 3.68 21.66 2.36 22 1 C27.36095333 -0.12862175 32.55306686 -0.09688221 38 0 C38 2.64 38 5.28 38 8 C25.46 8 12.92 8 0 8 C0 5.36 0 2.72 0 0 Z " fill="#E6E9EE" transform="translate(6,32)"/>
<path d="M0 0 C0 2.31 0 4.62 0 7 C-1.98 7 -3.96 7 -6 7 C-6 7.66 -6 8.32 -6 9 C-6.66 9 -7.32 9 -8 9 C-8.33 9.99 -8.66 10.98 -9 12 C-11.97 12 -14.94 12 -18 12 C-18 11.01 -18 10.02 -18 9 C-18.66 9 -19.32 9 -20 9 C-20 8.34 -20 7.68 -20 7 C-21.98 7 -23.96 7 -26 7 C-26 4.69 -26 2.38 -26 0 C-17.16776465 -1.19354532 -8.84032918 -0.77546747 0 0 Z " fill="#D8DCE3" transform="translate(38,8)"/>
<path d="M0 0 C0.66 0.33 1.32 0.66 2 1 C2 1.99 2 2.98 2 4 C7.92472171 3.74680676 10.84461376 3.45219955 15 -1 C17.75 -0.75 17.75 -0.75 20 0 C20.38063221 2.3260857 20.71269945 4.66055264 21 7 C20.67 7.33 20.34 7.66 20 8 C18.948125 7.979375 17.89625 7.95875 16.8125 7.9375 C13.06921651 7.9988653 10.45993222 8.64978255 7 10 C6.67 11.65 6.34 13.3 6 15 C5.34 15 4.68 15 4 15 C3.32880451 13.5437455 2.66318193 12.08492133 2 10.625 C1.62875 9.81289063 1.2575 9.00078125 0.875 8.1640625 C0 6 0 6 0 4 C-1.65 4 -3.3 4 -5 4 C-5.33 2.68 -5.66 1.36 -6 0 C-3.4832097 -1.25839515 -2.62168527 -0.81927665 0 0 Z " fill="#F1CB5F" transform="translate(18,16)"/>
<path d="M0 0 C2.625 -0.1875 2.625 -0.1875 5 0 C5.33 0.99 5.66 1.98 6 3 C5.34 3 4.68 3 4 3 C4 5.64 4 8.28 4 11 C4.66 11.33 5.32 11.66 6 12 C4.35 12.33 2.7 12.66 1 13 C1 12.34 1 11.68 1 11 C0.01 11 -0.98 11 -2 11 C-2.25 3.375 -2.25 3.375 0 0 Z " fill="#3C4855" transform="translate(2,29)"/>
<path d="M0 0 C2.05078125 0.03255208 4.1015625 0.06510417 6.15234375 0.09765625 C6.15234375 1.74765625 6.15234375 3.39765625 6.15234375 5.09765625 C5.16234375 5.09765625 4.17234375 5.09765625 3.15234375 5.09765625 C3.15234375 4.10765625 3.15234375 3.11765625 3.15234375 2.09765625 C1.83234375 2.09765625 0.51234375 2.09765625 -0.84765625 2.09765625 C-0.84765625 2.75765625 -0.84765625 3.41765625 -0.84765625 4.09765625 C-1.50765625 4.09765625 -2.16765625 4.09765625 -2.84765625 4.09765625 C-2.84765625 5.08765625 -2.84765625 6.07765625 -2.84765625 7.09765625 C0.12234375 7.09765625 3.09234375 7.09765625 6.15234375 7.09765625 C6.15234375 7.75765625 6.15234375 8.41765625 6.15234375 9.09765625 C0.70734375 9.59265625 0.70734375 9.59265625 -4.84765625 10.09765625 C-5.17765625 11.41765625 -5.50765625 12.73765625 -5.84765625 14.09765625 C-7.16765625 14.09765625 -8.48765625 14.09765625 -9.84765625 14.09765625 C-9.84765625 13.43765625 -9.84765625 12.77765625 -9.84765625 12.09765625 C-8.85765625 11.76765625 -7.86765625 11.43765625 -6.84765625 11.09765625 C-5.6382181 8.80737883 -5.6382181 8.80737883 -4.72265625 6.09765625 C-2.53714795 0.13409873 -2.53714795 0.13409873 0 0 Z " fill="#D2453F" transform="translate(32.84765625,22.90234375)"/>
<path d="M0 0 C0.33 1.98 0.66 3.96 1 6 C-4.28 5.67 -9.56 5.34 -15 5 C-15 3.68 -15 2.36 -15 1 C-13.25021843 0.83105557 -11.50016388 0.66493691 -9.75 0.5 C-8.77546875 0.4071875 -7.8009375 0.314375 -6.796875 0.21875 C-4.53697847 0.04199832 -2.26679807 0 0 0 Z " fill="#DCDCDB" transform="translate(27,7)"/>
<path d="M0 0 C0.763125 0.20625 1.52625 0.4125 2.3125 0.625 C2.69313221 2.9510857 3.02519945 5.28555264 3.3125 7.625 C2.9825 7.955 2.6525 8.285 2.3125 8.625 C0.78730724 8.53562197 -0.73431929 8.37962854 -2.25 8.1875 C-3.07628906 8.08566406 -3.90257812 7.98382813 -4.75390625 7.87890625 C-5.39199219 7.79511719 -6.03007812 7.71132813 -6.6875 7.625 C-6.375 4.75 -6.375 4.75 -5.6875 1.625 C-2.6875 -0.375 -2.6875 -0.375 0 0 Z " fill="#F8BB17" transform="translate(35.6875,15.375)"/>
<path d="M0 0 C1.65 0 3.3 0 5 0 C7 2 7 2 7.1953125 3.9453125 C7.13020833 5.96354167 7.06510417 7.98177083 7 10 C5.68 10 4.36 10 3 10 C3 10.66 3 11.32 3 12 C1.68 11.67 0.36 11.34 -1 11 C-0.34 10.67 0.32 10.34 1 10 C0.67 6.7 0.34 3.4 0 0 Z " fill="#374350" transform="translate(43,30)"/>
<path d="M0 0 C6.75 -0.125 6.75 -0.125 9 1 C9.66796875 3.03125 9.66796875 3.03125 10.1875 5.5 C10.45626953 6.72203125 10.45626953 6.72203125 10.73046875 7.96875 C10.81941406 8.6390625 10.90835938 9.309375 11 10 C10 11 10 11 8.15234375 11.09765625 C6.1015625 11.06510417 4.05078125 11.03255208 2 11 C2 10.01 2 9.02 2 8 C3.65 8 5.3 8 7 8 C7 6.35 7 4.7 7 3 C4.69 3 2.38 3 0 3 C0 2.01 0 1.02 0 0 Z " fill="#9CA5B0" transform="translate(39,14)"/>
<path d="M0 0 C0 1.32 0 2.64 0 4 C-5.61 4 -11.22 4 -17 4 C-16.67 3.01 -16.34 2.02 -16 1 C-10.63904667 -0.12862175 -5.44693314 -0.09688221 0 0 Z " fill="#EBE7EA" transform="translate(44,32)"/>
<path d="M0 0 C5.44693314 -0.09688221 10.63904667 -0.12862175 16 1 C16 1.99 16 2.98 16 4 C10.72 4 5.44 4 0 4 C0 2.68 0 1.36 0 0 Z " fill="#EBE7EB" transform="translate(6,32)"/>
<path d="M0 0 C0.33 0.66 0.66 1.32 1 2 C5.455 1.505 5.455 1.505 10 1 C10 3.64 10 6.28 10 9 C9.0925 8.814375 8.185 8.62875 7.25 8.4375 C3.8491925 7.77576292 3.8491925 7.77576292 0 9 C0 6.03 0 3.06 0 0 Z " fill="#64707E" transform="translate(40,23)"/>
<path d="M0 0 C0 0.99 0 1.98 0 3 C-2.31 3 -4.62 3 -7 3 C-7 4.98 -7 6.96 -7 9 C-5.35 9 -3.7 9 -2 9 C-2 9.66 -2 10.32 -2 11 C-4.64 11 -7.28 11 -10 11 C-10 7.56169885 -9.62599243 4.38035912 -9 1 C-6.04335481 -0.4783226 -3.25770263 -0.06032783 0 0 Z " fill="#B1B9C3" transform="translate(11,14)"/>
<path d="M0 0 C5.445 1.485 5.445 1.485 11 3 C11.33 2.01 11.66 1.02 12 0 C12.66 0 13.32 0 14 0 C14 0.99 14 1.98 14 3 C13.34 3 12.68 3 12 3 C11.67 3.99 11.34 4.98 11 6 C8.03 6 5.06 6 2 6 C2 5.01 2 4.02 2 3 C1.34 3 0.68 3 0 3 C0 2.01 0 1.02 0 0 Z " fill="#6289AE" transform="translate(18,14)"/>
<path d="M0 0 C4.95 0 9.9 0 15 0 C15.33 1.32 15.66 2.64 16 4 C9.375 4.125 9.375 4.125 6 3 C4.00038436 2.96079185 1.99950636 2.95556653 0 3 C0 2.01 0 1.02 0 0 Z " fill="#E7E9EC" transform="translate(12,12)"/>
<path d="M0 0 C0.33 0 0.66 0 1 0 C1 1.98 1 3.96 1 6 C1.99 6 2.98 6 4 6 C4 5.01 4 4.02 4 3 C5.32 3 6.64 3 8 3 C8.66 4.65 9.32 6.3 10 8 C4.375 9.125 4.375 9.125 1 8 C0.67 8.66 0.34 9.32 0 10 C-0.95024979 6.30458414 -0.95024979 3.69541586 0 0 Z " fill="#494652" transform="translate(10,22)"/>
<path d="M0 0 C-0.42656082 3.09415757 -0.92998438 6.05880129 -2 9 C-4.625 10.5625 -4.625 10.5625 -7 11 C-7 9.35 -7 7.7 -7 6 C-6.34 6 -5.68 6 -5 6 C-4.87625 5.195625 -4.7525 4.39125 -4.625 3.5625 C-4.41875 2.716875 -4.2125 1.87125 -4 1 C-2 0 -2 0 0 0 Z " fill="#F6564B" transform="translate(29,25)"/>
<path d="M0 0 C0.33 0.66 0.66 1.32 1 2 C3.31 2 5.62 2 8 2 C8 3.65 8 5.3 8 7 C5.66705225 7.04241723 3.33297433 7.04092937 1 7 C0 6 0 6 -0.0625 2.9375 C-0.041875 1.968125 -0.02125 0.99875 0 0 Z " fill="#616D7C" transform="translate(38,15)"/>
<path d="M0 0 C0.66 0.33 1.32 0.66 2 1 C2.625 4.0625 2.625 4.0625 3 7 C2.01 6.67 1.02 6.34 0 6 C0 5.34 0 4.68 0 4 C-1.65 4 -3.3 4 -5 4 C-5.33 2.68 -5.66 1.36 -6 0 C-3.4832097 -1.25839515 -2.62168527 -0.81927665 0 0 Z " fill="#FBCD0D" transform="translate(18,16)"/>
<path d="M0 0 C0.33 0 0.66 0 1 0 C1 2.64 1 5.28 1 8 C1.66 8.33 2.32 8.66 3 9 C1.35 9.33 -0.3 9.66 -2 10 C-2 9.34 -2 8.68 -2 8 C-2.99 8 -3.98 8 -5 8 C-5 7.34 -5 6.68 -5 6 C-4.01 5.67 -3.02 5.34 -2 5 C-0.78130071 2.49552484 -0.78130071 2.49552484 0 0 Z " fill="#5F6972" transform="translate(5,32)"/>
<path d="M0 0 C2.97 0.495 2.97 0.495 6 1 C6.33 1.99 6.66 2.98 7 4 C6 5 6 5 2.9375 5.0625 C1.968125 5.041875 0.99875 5.02125 0 5 C-0.33 4.01 -0.66 3.02 -1 2 C-0.67 1.34 -0.34 0.68 0 0 Z " fill="#F49584" transform="translate(12,19)"/>
<path d="M0 0 C6.75 -0.125 6.75 -0.125 9 1 C8.67 2.32 8.34 3.64 8 5 C7.67 4.67 7.34 4.34 7 4 C4.67182036 3.63239269 2.3381615 3.29758419 0 3 C0 2.01 0 1.02 0 0 Z " fill="#ABB4C2" transform="translate(39,14)"/>
<path d="M0 0 C2 3.75 2 3.75 2 6 C3.32 6 4.64 6 6 6 C6 6.66 6 7.32 6 8 C4.68 8 3.36 8 2 8 C2 8.66 2 9.32 2 10 C0.68 9.67 -0.64 9.34 -2 9 C-1.34 8.67 -0.68 8.34 0 8 C0 5.36 0 2.72 0 0 Z " fill="#58616B" transform="translate(44,32)"/>
<path d="M0 0 C1.98 0 3.96 0 6 0 C6 1.32 6 2.64 6 4 C4.02 4 2.04 4 0 4 C-0.33 3.34 -0.66 2.68 -1 2 C-0.67 1.34 -0.34 0.68 0 0 Z " fill="#F28A76" transform="translate(32,20)"/>
<path d="M0 0 C2.31 0.33 4.62 0.66 7 1 C6.01 1.495 6.01 1.495 5 2 C4.34444881 4.52733235 4.34444881 4.52733235 4 7 C3.34 7 2.68 7 2 7 C1.34 4.69 0.68 2.38 0 0 Z " fill="#FBA695" transform="translate(20,24)"/>
<path d="M0 0 C1.32 0 2.64 0 4 0 C4.33 1.98 4.66 3.96 5 6 C3.35 5.67 1.7 5.34 0 5 C0 3.35 0 1.7 0 0 Z " fill="#C89B2A" transform="translate(23,7)"/>
<path d="M0 0 C4.455 0.99 4.455 0.99 9 2 C7.02 2.99 7.02 2.99 5 4 C5 4.66 5 5.32 5 6 C4.01 6 3.02 6 2 6 C2 5.01 2 4.02 2 3 C1.34 3 0.68 3 0 3 C0 2.01 0 1.02 0 0 Z " fill="#A9B6B6" transform="translate(18,14)"/>
<path d="M0 0 C0.33 1.32 0.66 2.64 1 4 C-1.64 4.33 -4.28 4.66 -7 5 C-7 4.01 -7 3.02 -7 2 C-4.69 2 -2.38 2 0 2 C0 1.34 0 0.68 0 0 Z " fill="#7C8797" transform="translate(11,15)"/>
<path d="M0 0 C0.33 0.66 0.66 1.32 1 2 C0.22265625 3.7265625 0.22265625 3.7265625 -0.9375 5.625 C-1.618125 6.73875 -2.29875 7.8525 -3 9 C-3.66 8.01 -4.32 7.02 -5 6 C-4.34 6 -3.68 6 -3 6 C-2.87625 5.195625 -2.7525 4.39125 -2.625 3.5625 C-2.41875 2.716875 -2.2125 1.87125 -2 1 C-1.34 0.67 -0.68 0.34 0 0 Z " fill="#FB7462" transform="translate(27,25)"/>
<path d="M0 0 C1.4540625 0.0309375 1.4540625 0.0309375 2.9375 0.0625 C2.9375 0.7225 2.9375 1.3825 2.9375 2.0625 C1.2875 2.0625 -0.3625 2.0625 -2.0625 2.0625 C-2.3925 3.0525 -2.7225 4.0425 -3.0625 5.0625 C-3.625 3.125 -3.625 3.125 -4.0625 1.0625 C-3.0625 0.0625 -3.0625 0.0625 0 0 Z " fill="#5A6776" transform="translate(4.0625,26.9375)"/>
<path d="M0 0 C1.98 0 3.96 0 6 0 C5.67 0.99 5.34 1.98 5 3 C3.02 3 1.04 3 -1 3 C-0.67 2.01 -0.34 1.02 0 0 Z " fill="#FDD73B" transform="translate(22,21)"/>
<path d="M0 0 C0.66 0 1.32 0 2 0 C2.33 1.98 2.66 3.96 3 6 C2.01 5.67 1.02 5.34 0 5 C0 4.34 0 3.68 0 3 C-0.66 2.67 -1.32 2.34 -2 2 C-1.34 1.34 -0.68 0.68 0 0 Z " fill="#F9C52F" transform="translate(18,17)"/>
</svg>
