<?xml version="1.0" encoding="UTF-8"?>
<svg version="1.1" xmlns="http://www.w3.org/2000/svg" width="100" height="100">
<path d="M0 0 C0.91120605 0.00202423 1.82241211 0.00404846 2.76123047 0.00613403 C3.71562012 0.00438171 4.67000977 0.00262939 5.65332031 0.00082397 C8.82472524 -0.0035963 11.99607492 -0.00065593 15.16748047 0.00271606 C17.36083995 0.00204308 19.55419937 0.00107309 21.74755859 -0.00018311 C26.35108142 -0.00166032 30.95458489 0.00049523 35.55810547 0.00515747 C41.47352642 0.01085477 47.388902 0.00757589 53.30432129 0.00158501 C57.83545273 -0.00201998 62.36657332 -0.00088231 66.89770508 0.0017128 C69.07950852 0.00238224 71.26131293 0.00155305 73.44311523 -0.00076675 C76.48668036 -0.00329225 79.53017093 0.00054587 82.57373047 0.00613403 C83.48493652 0.0041098 84.39614258 0.00208557 85.33496094 0 C91.55321817 0.02126627 91.55321817 0.02126627 92.66748047 1.13552856 C92.76562034 2.57293209 92.79546327 4.01509183 92.796875 5.45584106 C92.80002716 6.37349243 92.80317932 7.2911438 92.806427 8.23660278 C92.80339066 9.73344604 92.80339066 9.73344604 92.80029297 11.26052856 C92.80124969 12.27776001 92.80220642 13.29499146 92.80319214 14.3430481 C92.80387408 16.49848492 92.80201882 18.65392378 92.79785156 20.80935669 C92.79250352 24.12125227 92.7977961 27.43301223 92.80419922 30.74490356 C92.80353844 32.83344553 92.80225728 34.92198742 92.80029297 37.01052856 C92.8023172 38.00842407 92.80434143 39.00631958 92.806427 40.03445435 C92.80169876 41.4109314 92.80169876 41.4109314 92.796875 42.81521606 C92.79607941 43.62716431 92.79528381 44.43911255 92.79446411 45.27566528 C92.66748047 47.13552856 92.66748047 47.13552856 91.66748047 48.13552856 C88.62882286 48.23617055 85.61285317 48.27167446 82.57373047 48.2649231 C81.61934082 48.26667542 80.66495117 48.26842773 79.68164062 48.27023315 C76.51023569 48.27465343 73.33888602 48.27171306 70.16748047 48.26834106 C67.97412098 48.26901405 65.78076157 48.26998404 63.58740234 48.27124023 C58.98387952 48.27271745 54.38037605 48.2705619 49.77685547 48.26589966 C43.86143452 48.26020236 37.94605893 48.26348124 32.03063965 48.26947212 C27.49950821 48.27307711 22.96838762 48.27193944 18.43725586 48.26934433 C16.25545242 48.26867489 14.07364801 48.26950408 11.8918457 48.27182388 C8.84828057 48.27434938 5.80479001 48.27051126 2.76123047 48.2649231 C1.85002441 48.26694733 0.93881836 48.26897156 0 48.27105713 C-6.21825724 48.24979086 -6.21825724 48.24979086 -7.33251953 47.13552856 C-7.4306594 45.69812504 -7.46050233 44.25596529 -7.46191406 42.81521606 C-7.46506622 41.8975647 -7.46821838 40.97991333 -7.47146606 40.03445435 C-7.46944183 39.03655884 -7.4674176 38.03866333 -7.46533203 37.01052856 C-7.46628876 35.99329712 -7.46724548 34.97606567 -7.4682312 33.92800903 C-7.46891314 31.77257221 -7.46705788 29.61713334 -7.46289062 27.46170044 C-7.45754258 24.14980485 -7.46283516 20.8380449 -7.46923828 17.52615356 C-7.4685775 15.4376116 -7.46729635 13.34906971 -7.46533203 11.26052856 C-7.46735626 10.26263306 -7.46938049 9.26473755 -7.47146606 8.23660278 C-7.4683139 7.31895142 -7.46516174 6.40130005 -7.46191406 5.45584106 C-7.46111847 4.64389282 -7.46032288 3.83194458 -7.45950317 2.99539185 C-7.16489502 -1.31958042 -3.49383824 0.01194883 0 0 Z " fill="#C3C3C3" transform="translate(7.33251953125,22.864471435546875)"/>
<path d="M0 0 C30.36 0 60.72 0 92 0 C92 5.28 92 10.56 92 16 C87.05 16 82.1 16 77 16 C76.505 15.01 76.505 15.01 76 14 C76.66 14 77.32 14 78 14 C78.33 10.04 78.66 6.08 79 2 C76.03 2.2475 76.03 2.2475 73 2.5 C67.97118895 2.88851533 63.04034516 3.09164264 58 3 C56.68 3 55.36 3 54 3 C46 3 46 3 43.4375 2.9375 C40.99092493 2.82781247 40.99092493 2.82781247 39 4 C39 3.34 39 2.68 39 2 C38.34 2.33 37.68 2.66 37 3 C36.34786708 5.02463255 36.34786708 5.02463255 36 7 C35.34 7 34.68 7 34 7 C34 5.35 34 3.7 34 2 C31.76660104 2.83254913 31.76660104 2.83254913 31.1484375 5.28515625 C30.76558594 6.65994141 30.76558594 6.65994141 30.375 8.0625 C30.11460938 8.98160156 29.85421875 9.90070312 29.5859375 10.84765625 C29.39257812 11.55792969 29.19921875 12.26820312 29 13 C29.66 13 30.32 13 31 13 C31.33 12.01 31.66 11.02 32 10 C32.495 11.485 32.495 11.485 33 13 C33.99 13 34.98 13 36 13 C36.33 12.34 36.66 11.68 37 11 C37 11.99 37 12.98 37 14 C37.66 13.67 38.32 13.34 39 13 C39.33 12.01 39.66 11.02 40 10 C40.66 10 41.32 10 42 10 C42 11.32 42 12.64 42 14 C42.66 14.33 43.32 14.66 44 15 C41.26893489 15.91035504 39.70106761 16.12215713 36.89575195 16.11352539 C35.6648156 16.11341209 35.6648156 16.11341209 34.40901184 16.11329651 C33.0870002 16.10555458 33.0870002 16.10555458 31.73828125 16.09765625 C30.83248825 16.0962413 29.92669525 16.09482635 28.99345398 16.09336853 C26.09976909 16.08777001 23.20616151 16.07521781 20.3125 16.0625 C18.35091258 16.05748481 16.38932394 16.05292193 14.42773438 16.04882812 C9.61845979 16.03780107 4.809243 16.02053747 0 16 C0 10.72 0 5.44 0 0 Z " fill="#020202" transform="translate(4,27)"/>
<path d="M0 0 C0.66 0 1.32 0 2 0 C2 1.65 2 3.3 2 5 C2.66 5 3.32 5 4 5 C4.33 3.35 4.66 1.7 5 0 C19 0 33 0 47 0 C46.85923685 1.9587043 46.7122324 3.91696093 46.5625 5.875 C46.48128906 6.96554688 46.40007812 8.05609375 46.31640625 9.1796875 C46 12 46 12 45 14 C33.12 14 21.24 14 9 14 C9.33 12.02 9.66 10.04 10 8 C9.34 8 8.68 8 8 8 C7.67 9.32 7.34 10.64 7 12 C4.0625 11.625 4.0625 11.625 1 11 C0.67 10.34 0.34 9.68 0 9 C-0.33 9.66 -0.66 10.32 -1 11 C-1.66 11 -2.32 11 -3 11 C-2.69217504 9.35328588 -2.37860766 7.70764424 -2.0625 6.0625 C-1.88847656 5.14597656 -1.71445312 4.22945312 -1.53515625 3.28515625 C-1 1 -1 1 0 0 Z " fill="#0F0F0F" transform="translate(36,29)"/>
<path d="M0 0 C0.91120605 0.00202423 1.82241211 0.00404846 2.76123047 0.00613403 C3.71562012 0.00438171 4.67000977 0.00262939 5.65332031 0.00082397 C8.82472524 -0.0035963 11.99607492 -0.00065593 15.16748047 0.00271606 C17.36083995 0.00204308 19.55419937 0.00107309 21.74755859 -0.00018311 C26.35108142 -0.00166032 30.95458489 0.00049523 35.55810547 0.00515747 C41.47352642 0.01085477 47.388902 0.00757589 53.30432129 0.00158501 C57.83545273 -0.00201998 62.36657332 -0.00088231 66.89770508 0.0017128 C69.07950852 0.00238224 71.26131293 0.00155305 73.44311523 -0.00076675 C76.48668036 -0.00329225 79.53017093 0.00054587 82.57373047 0.00613403 C83.48493652 0.0041098 84.39614258 0.00208557 85.33496094 0 C91.55321817 0.02126627 91.55321817 0.02126627 92.66748047 1.13552856 C92.76562034 2.57293209 92.79546327 4.01509183 92.796875 5.45584106 C92.80002716 6.37349243 92.80317932 7.2911438 92.806427 8.23660278 C92.80339066 9.73344604 92.80339066 9.73344604 92.80029297 11.26052856 C92.80124969 12.27776001 92.80220642 13.29499146 92.80319214 14.3430481 C92.80387408 16.49848492 92.80201882 18.65392378 92.79785156 20.80935669 C92.79250352 24.12125227 92.7977961 27.43301223 92.80419922 30.74490356 C92.80353844 32.83344553 92.80225728 34.92198742 92.80029297 37.01052856 C92.8023172 38.00842407 92.80434143 39.00631958 92.806427 40.03445435 C92.80169876 41.4109314 92.80169876 41.4109314 92.796875 42.81521606 C92.79607941 43.62716431 92.79528381 44.43911255 92.79446411 45.27566528 C92.66748047 47.13552856 92.66748047 47.13552856 91.66748047 48.13552856 C88.62882286 48.23617055 85.61285317 48.27167446 82.57373047 48.2649231 C81.61934082 48.26667542 80.66495117 48.26842773 79.68164062 48.27023315 C76.51023569 48.27465343 73.33888602 48.27171306 70.16748047 48.26834106 C67.97412098 48.26901405 65.78076157 48.26998404 63.58740234 48.27124023 C58.98387952 48.27271745 54.38037605 48.2705619 49.77685547 48.26589966 C43.86143452 48.26020236 37.94605893 48.26348124 32.03063965 48.26947212 C27.49950821 48.27307711 22.96838762 48.27193944 18.43725586 48.26934433 C16.25545242 48.26867489 14.07364801 48.26950408 11.8918457 48.27182388 C8.84828057 48.27434938 5.80479001 48.27051126 2.76123047 48.2649231 C1.85002441 48.26694733 0.93881836 48.26897156 0 48.27105713 C-6.21825724 48.24979086 -6.21825724 48.24979086 -7.33251953 47.13552856 C-7.4306594 45.69812504 -7.46050233 44.25596529 -7.46191406 42.81521606 C-7.46506622 41.8975647 -7.46821838 40.97991333 -7.47146606 40.03445435 C-7.46944183 39.03655884 -7.4674176 38.03866333 -7.46533203 37.01052856 C-7.46628876 35.99329712 -7.46724548 34.97606567 -7.4682312 33.92800903 C-7.46891314 31.77257221 -7.46705788 29.61713334 -7.46289062 27.46170044 C-7.45754258 24.14980485 -7.46283516 20.8380449 -7.46923828 17.52615356 C-7.4685775 15.4376116 -7.46729635 13.34906971 -7.46533203 11.26052856 C-7.46735626 10.26263306 -7.46938049 9.26473755 -7.47146606 8.23660278 C-7.4683139 7.31895142 -7.46516174 6.40130005 -7.46191406 5.45584106 C-7.46111847 4.64389282 -7.46032288 3.83194458 -7.45950317 2.99539185 C-7.16489502 -1.31958042 -3.49383824 0.01194883 0 0 Z M-5.33251953 3.13552856 C-5.43368874 6.22634322 -5.47220511 9.29435412 -5.46533203 12.38552856 C-5.46628876 13.31397583 -5.46724548 14.2424231 -5.4682312 15.19900513 C-5.46891308 17.16612821 -5.46705825 19.13325353 -5.46289062 21.10037231 C-5.45754248 24.12255883 -5.46283535 27.14459671 -5.46923828 30.16677856 C-5.4685775 32.07302889 -5.46729634 33.97927913 -5.46533203 35.88552856 C-5.46735626 36.79592896 -5.46938049 37.70632935 -5.47146606 38.64431763 C-5.87143285 42.71216534 -5.87143285 42.71216534 -4.33251953 46.13552856 C-1.41594324 46.236111 1.47698992 46.27168067 4.39404297 46.2649231 C5.30941833 46.26667542 6.2247937 46.26842773 7.16790771 46.27023315 C10.20945096 46.27465317 13.25093658 46.27171315 16.29248047 46.26834106 C18.39615897 46.26901406 20.49983739 46.26998405 22.60351562 46.27124023 C27.01872496 46.27271741 31.4339141 46.27056202 35.84912109 46.26589966 C41.52240608 46.26020236 47.19564376 46.26348126 52.868927 46.26947212 C57.21476603 46.2730772 61.56059375 46.27193939 65.90643311 46.26934433 C67.99892177 46.26867491 70.09141144 46.26950399 72.18389893 46.27182388 C75.10293313 46.27434954 78.02188959 46.27051104 80.94091797 46.2649231 C82.25162262 46.26795944 82.25162262 46.26795944 83.58880615 46.27105713 C87.43824288 46.63663746 87.43824288 46.63663746 90.66748047 45.13552856 C90.76864967 42.04471391 90.80716604 38.97670301 90.80029297 35.88552856 C90.80172806 34.49285767 90.80172806 34.49285767 90.80319214 33.072052 C90.80387402 31.10492892 90.80201919 29.1378036 90.79785156 27.17068481 C90.79250342 24.1484983 90.79779629 21.12646042 90.80419922 18.10427856 C90.80353844 16.19802823 90.80225728 14.291778 90.80029297 12.38552856 C90.80332932 11.01992798 90.80332932 11.01992798 90.806427 9.6267395 C91.20639379 5.55889179 91.20639379 5.55889179 89.66748047 2.13552856 C86.75090418 2.03494613 83.85797101 1.99937646 80.94091797 2.00613403 C80.0255426 2.00438171 79.11016724 2.00262939 78.16705322 2.00082397 C75.12550998 1.99640396 72.08402436 1.99934397 69.04248047 2.00271606 C66.93880197 2.00204307 64.83512354 2.00107308 62.73144531 1.99981689 C58.31623598 1.99833972 53.90104684 2.00049511 49.48583984 2.00515747 C43.81255486 2.01085477 38.13931718 2.00757587 32.46603394 2.00158501 C28.12019491 1.99797993 23.77436719 1.99911774 19.42852783 2.0017128 C17.33603917 2.00238222 15.2435495 2.00155314 13.15106201 1.99923325 C10.23202781 1.99670759 7.31307135 2.00054609 4.39404297 2.00613403 C3.52023987 2.0041098 2.64643677 2.00208557 1.74615479 2 C-2.10328194 1.63441967 -2.10328194 1.63441967 -5.33251953 3.13552856 Z " fill="#222222" transform="translate(7.33251953125,22.864471435546875)"/>
<path d="M0 0 C1.66663526 0.0149667 3.33322433 0.03564971 4.9997406 0.06056213 C6.36058273 0.07497345 6.36058273 0.07497345 7.74891663 0.0896759 C10.76285768 0.12279089 13.77665935 0.16307529 16.79051208 0.2033844 C18.87416078 0.22767332 20.9578147 0.25151747 23.04147339 0.27493286 C28.53738847 0.33789609 34.03321148 0.40692784 39.52903748 0.47718811 C45.13242891 0.54776132 50.73588585 0.61264408 56.33934021 0.67799377 C67.34266739 0.80716376 78.34590576 0.94273945 89.34910583 1.08229065 C89.34910583 1.41229065 89.34910583 1.74229065 89.34910583 2.08229065 C58.98910583 2.08229065 28.62910583 2.08229065 -2.65089417 2.08229065 C-2.65089417 7.36229065 -2.65089417 12.64229065 -2.65089417 18.08229065 C10.54910583 18.08229065 23.74910583 18.08229065 37.34910583 18.08229065 C37.34910583 18.41229065 37.34910583 18.74229065 37.34910583 19.08229065 C54.50910583 19.41229065 71.66910583 19.74229065 89.34910583 20.08229065 C89.34910583 20.74229065 89.34910583 21.40229065 89.34910583 22.08229065 C58.32910583 22.41229065 27.30910583 22.74229065 -4.65089417 23.08229065 C-4.65089417 0.10483051 -4.65089417 0.10483051 0 0 Z " fill="#777677" transform="translate(6.6508941650390625,24.917709350585938)"/>
<path d="M0 0 C1.50046875 0.00386719 1.50046875 0.00386719 3.03125 0.0078125 C4.0315625 0.00523438 5.031875 0.00265625 6.0625 0 C8.53125 0.1328125 8.53125 0.1328125 9.53125 1.1328125 C11.53083364 1.17362033 13.53170254 1.17535606 15.53125 1.1328125 C14.54125 4.7628125 13.55125 8.3928125 12.53125 12.1328125 C13.19125 12.1328125 13.85125 12.1328125 14.53125 12.1328125 C14.86125 11.1428125 15.19125 10.1528125 15.53125 9.1328125 C16.02625 10.6178125 16.02625 10.6178125 16.53125 12.1328125 C17.52125 12.1328125 18.51125 12.1328125 19.53125 12.1328125 C19.86125 11.4728125 20.19125 10.8128125 20.53125 10.1328125 C20.53125 11.1228125 20.53125 12.1128125 20.53125 13.1328125 C21.19125 12.8028125 21.85125 12.4728125 22.53125 12.1328125 C22.86125 11.1428125 23.19125 10.1528125 23.53125 9.1328125 C24.19125 9.1328125 24.85125 9.1328125 25.53125 9.1328125 C25.53125 10.4528125 25.53125 11.7728125 25.53125 13.1328125 C26.19125 13.4628125 26.85125 13.7928125 27.53125 14.1328125 C24.80018489 15.04316754 23.23231761 15.25496963 20.42700195 15.24633789 C19.1960656 15.24622459 19.1960656 15.24622459 17.94026184 15.24610901 C16.6182502 15.23836708 16.6182502 15.23836708 15.26953125 15.23046875 C14.36373825 15.2290538 13.45794525 15.22763885 12.52470398 15.22618103 C9.63101909 15.22058251 6.73741151 15.20803031 3.84375 15.1953125 C1.88216258 15.19029731 -0.07942606 15.18573443 -2.04101562 15.18164062 C-6.85029021 15.17061357 -11.659507 15.15334997 -16.46875 15.1328125 C-16.46875 14.8028125 -16.46875 14.4728125 -16.46875 14.1328125 C-10.52875 13.6378125 -10.52875 13.6378125 -4.46875 13.1328125 C-4.324375 11.1734375 -4.18 9.2140625 -4.03125 7.1953125 C-3.51500263 0.18909824 -3.51500263 0.18909824 0 0 Z " fill="#080607" transform="translate(20.46875,27.8671875)"/>
<path d="M0 0 C30.36 0 60.72 0 92 0 C92 0.99 92 1.98 92 3 C61.64 3 31.28 3 0 3 C0 2.01 0 1.02 0 0 Z " fill="#111111" transform="translate(4,64)"/>
<path d="M0 0 C8.06652174 -0.02312737 16.13302972 -0.04091709 24.19957638 -0.05181217 C27.94483037 -0.05704014 31.69006176 -0.06413622 35.43530273 -0.07543945 C39.04681687 -0.08627141 42.65830921 -0.09227749 46.26983833 -0.09487724 C47.65060329 -0.09673094 49.031367 -0.10035049 50.41212273 -0.10573006 C52.33975952 -0.11294447 54.26741807 -0.11340809 56.19506836 -0.11352539 C57.29427109 -0.115746 58.39347382 -0.11796661 59.52598572 -0.12025452 C62 0 62 0 63 1 C63.09813987 2.43740353 63.1279828 3.87956327 63.12939453 5.3203125 C63.13254669 6.23796387 63.13569885 7.15561523 63.13894653 8.10107422 C63.13591019 9.59791748 63.13591019 9.59791748 63.1328125 11.125 C63.13376923 12.14223145 63.13472595 13.15946289 63.13571167 14.20751953 C63.13639361 16.36295636 63.13453835 18.51839522 63.13037109 20.67382812 C63.12502305 23.98572371 63.13031563 27.29748367 63.13671875 30.609375 C63.13605797 32.69791697 63.13477681 34.78645885 63.1328125 36.875 C63.13483673 37.87289551 63.13686096 38.87079102 63.13894653 39.89892578 C63.13421829 41.27540283 63.13421829 41.27540283 63.12939453 42.6796875 C63.12859894 43.49163574 63.12780334 44.30358398 63.12698364 45.14013672 C63 47 63 47 62 48 C59.04753646 48.09526806 56.11851579 48.12552452 53.16577148 48.11352539 C52.23903625 48.11367142 51.31230103 48.11381744 50.35748291 48.1139679 C47.27866313 48.11326838 44.19990303 48.10547421 41.12109375 48.09765625 C38.99259982 48.09579221 36.86410547 48.09436824 34.73561096 48.09336853 C29.1213768 48.08954228 23.50716832 48.07971108 17.89294434 48.06866455 C12.16886747 48.05845273 6.44478647 48.0538714 0.72070312 48.04882812 C-10.51954256 48.03808891 -21.75976915 48.0210112 -33 48 C-33 47.67 -33 47.34 -33 47 C-31.8496376 46.98969254 -30.69927521 46.97938507 -29.51405334 46.96876526 C-18.69794341 46.87120916 -7.8818933 46.76849244 2.93411922 46.66066074 C8.49536549 46.60538471 14.05661696 46.55195737 19.61791992 46.50268555 C24.9801209 46.45511085 30.34225573 46.40277082 35.70437813 46.34705925 C37.75498378 46.32660435 39.80560759 46.30789658 41.85624504 46.29092598 C44.7179512 46.26695112 47.57953107 46.2368875 50.44116211 46.20532227 C51.29783478 46.1995668 52.15450745 46.19381134 53.03713989 46.18788147 C56.82674975 46.50510072 56.82674975 46.50510072 60 45 C60.0927833 43.61839885 60.11747043 42.23211962 60.11352539 40.84741211 C60.11334412 39.50761292 60.11334412 39.50761292 60.11315918 38.14074707 C60.10804321 37.19582397 60.10292725 36.25090088 60.09765625 35.27734375 C60.09664917 34.41338989 60.09564209 33.54943604 60.09460449 32.65930176 C60.0893555 29.41868775 60.07539436 26.1780926 60.0625 22.9375 C60.041875 15.698125 60.02125 8.45875 60 1 C40.2 1 20.4 1 0 1 C0 0.67 0 0.34 0 0 Z " fill="#080808" transform="translate(37,23)"/>
<path d="M0 0 C0.33 0.99 0.66 1.98 1 3 C31.36 3 61.72 3 93 3 C93.33 2.01 93.66 1.02 94 0 C94.5625 1.9375 94.5625 1.9375 95 4 C93.12211328 5.87788672 90.40834091 5.12008587 87.91021729 5.12442017 C87.03484314 5.12082489 86.15946899 5.11722961 85.25756836 5.11352539 C83.88209587 5.11374443 83.88209587 5.11374443 82.47883606 5.1139679 C79.43248164 5.1132684 76.38618755 5.10547428 73.33984375 5.09765625 C71.23377007 5.0957922 69.12769597 5.09436824 67.0216217 5.09336853 C61.46657117 5.08954231 55.91154659 5.07971114 50.35650635 5.06866455 C44.6927526 5.05845267 39.02899467 5.05387139 33.36523438 5.04882812 C22.24347815 5.03808896 11.12174123 5.0210113 0 5 C-0.33 4.34 -0.66 3.68 -1 3 C-0.67 2.01 -0.34 1.02 0 0 Z " fill="#BCBCBC" transform="translate(3,64)"/>
<path d="M0 0 C4.29 0 8.58 0 13 0 C13.85439685 5.12638109 13.89038866 8.05339631 13 13 C8.71 13 4.42 13 0 13 C0 8.71 0 4.42 0 0 Z " fill="#FCFCFC" transform="translate(3,47)"/>
<path d="M0 0 C6 0 12 0 18 0 C18 0.66 18 1.32 18 2 C16.68 2 15.36 2 14 2 C14 2.66 14 3.32 14 4 C14.99 4 15.98 4 17 4 C17 4.99 17 5.98 17 7 C15.35 7 13.7 7 12 7 C12 7.66 12 8.32 12 9 C12.99 9 13.98 9 15 9 C15 9.66 15 10.32 15 11 C10.71 11 6.42 11 2 11 C2 10.01 2 9.02 2 8 C1.34 8 0.68 8 0 8 C0 8.99 0 9.98 0 11 C-0.66 11 -1.32 11 -2 11 C-1.125 3.375 -1.125 3.375 0 0 Z " fill="#7B7B7B" transform="translate(59,48)"/>
<path d="M0 0 C1.51400391 0.01740234 1.51400391 0.01740234 3.05859375 0.03515625 C4.07050781 0.04417969 5.08242188 0.05320312 6.125 0.0625 C7.29869141 0.07990234 7.29869141 0.07990234 8.49609375 0.09765625 C9.68023669 3.65008507 9.19144907 4.79596187 8.05859375 8.28515625 C7.77113281 9.18621094 7.48367187 10.08726563 7.1875 11.015625 C6.95933594 11.70269531 6.73117188 12.38976563 6.49609375 13.09765625 C2.4756839 13.79349642 -0.58654044 14.26766595 -4.50390625 13.09765625 C-4.36357514 11.11809184 -4.21649395 9.13900484 -4.06640625 7.16015625 C-3.98519531 6.05800781 -3.90398438 4.95585938 -3.8203125 3.8203125 C-3.39171788 0.13228229 -3.39171788 0.13228229 0 0 Z " fill="#421615" transform="translate(20.50390625,27.90234375)"/>
<path d="M0 0 C0.66 0 1.32 0 2 0 C2 1.65 2 3.3 2 5 C2.66 5 3.32 5 4 5 C4.33 3.35 4.66 1.7 5 0 C8 0 11 0 14 0 C13.85831863 1.43791516 13.71148957 2.8753237 13.5625 4.3125 C13.48128906 5.11300781 13.40007813 5.91351563 13.31640625 6.73828125 C13 9 13 9 12 12 C11.34 12 10.68 12 10 12 C10 10.68 10 9.36 10 8 C9.34 8 8.68 8 8 8 C7.67 9.32 7.34 10.64 7 12 C4.0625 11.625 4.0625 11.625 1 11 C0.67 10.34 0.34 9.68 0 9 C-0.33 9.66 -0.66 10.32 -1 11 C-1.66 11 -2.32 11 -3 11 C-2.69217504 9.35328588 -2.37860766 7.70764424 -2.0625 6.0625 C-1.88847656 5.14597656 -1.71445312 4.22945312 -1.53515625 3.28515625 C-1 1 -1 1 0 0 Z " fill="#7E7F7D" transform="translate(36,29)"/>
<path d="M0 0 C0.94875 0.165 1.8975 0.33 2.875 0.5 C6.02003644 1.25006513 6.02003644 1.25006513 9 0 C8.34 2.97 7.68 5.94 7 9 C9.17038477 8.20700294 9.17038477 8.20700294 9.6328125 6.15234375 C9.79523437 5.42144531 9.95765625 4.69054688 10.125 3.9375 C10.29257812 3.20402344 10.46015625 2.47054687 10.6328125 1.71484375 C10.75398438 1.14894531 10.87515625 0.58304688 11 0 C11.66 0 12.32 0 13 0 C12.53199289 4.05606165 12.12046792 7.46588679 10 11 C5.66666667 11 1.33333333 11 -3 11 C-3.6875 9.375 -3.6875 9.375 -4 7 C-1.72413793 1.72413793 -1.72413793 1.72413793 0 0 Z " fill="#3C3C3C" transform="translate(19,48)"/>
<path d="M0 0 C0.19622241 4.21878192 -0.19769832 7.17010894 -2 11 C-2.66 11 -3.32 11 -4 11 C-4 10.01 -4 9.02 -4 8 C-4.66 8 -5.32 8 -6 8 C-6 9.32 -6 10.64 -6 12 C-8.97 11.505 -8.97 11.505 -12 11 C-12 10.01 -12 9.02 -12 8 C-12.45375 8.495 -12.9075 8.99 -13.375 9.5 C-15 11 -15 11 -17 11 C-16.34 8.69 -15.68 6.38 -15 4 C-14.67 4.66 -14.34 5.32 -14 6 C-13.01 5.67 -12.02 5.34 -11 5 C-10.67 4.01 -10.34 3.02 -10 2 C-10.66 1.67 -11.32 1.34 -12 1 C-7.93631321 0.22596442 -4.13574827 -0.0984702 0 0 Z " fill="#757575" transform="translate(83,29)"/>
<path d="M0 0 C1.76923828 0.05414062 1.76923828 0.05414062 3.57421875 0.109375 C4.92966797 0.17898437 4.92966797 0.17898437 6.3125 0.25 C5.6525 0.91 4.9925 1.57 4.3125 2.25 C3.6699765 4.31874034 3.6699765 4.31874034 3.3125 6.25 C1.9925 5.92 0.6725 5.59 -0.6875 5.25 C-1.6775 7.56 -2.6675 9.87 -3.6875 12.25 C-5.6675 12.25 -7.6475 12.25 -9.6875 12.25 C-10.0501943 4.99611399 -10.0501943 4.99611399 -8.59375 2 C-5.80122222 -0.56363206 -3.71495033 -0.14712675 0 0 Z " fill="#2C2C2C" transform="translate(68.6875,28.75)"/>
<path d="M0 0 C2.31 0 4.62 0 7 0 C7.33 0.99 7.66 1.98 8 3 C6.35 2.67 4.7 2.34 3 2 C3 2.99 3 3.98 3 5 C4.32 5 5.64 5 7 5 C6.25 9.75 6.25 9.75 4 12 C1.1796875 12.1953125 1.1796875 12.1953125 -2.125 12.125 C-3.22070312 12.10695313 -4.31640625 12.08890625 -5.4453125 12.0703125 C-6.28835937 12.04710937 -7.13140625 12.02390625 -8 12 C-8 11.67 -8 11.34 -8 11 C-6.35 11 -4.7 11 -3 11 C-3 10.34 -3 9.68 -3 9 C-3.99 9 -4.98 9 -6 9 C-6 8.34 -6 7.68 -6 7 C-4.35 7 -2.7 7 -1 7 C-1 6.01 -1 5.02 -1 4 C-1.99 4 -2.98 4 -4 4 C-4 3.34 -4 2.68 -4 2 C-2.68 2 -1.36 2 0 2 C0 1.34 0 0.68 0 0 Z " fill="#D3D3D3" transform="translate(77,48)"/>
<path d="M0 0 C9.24 0 18.48 0 28 0 C28 3.10551666 27.4606285 4.35261084 26 7 C25.34 6.67 24.68 6.34 24 6 C24 4.35 24 2.7 24 1 C22.02 1 20.04 1 18 1 C17.67 2.65 17.34 4.3 17 6 C16.67 6 16.34 6 16 6 C16 4.35 16 2.7 16 1 C15.34 1 14.68 1 14 1 C13.67 3.64 13.34 6.28 13 9 C12.01 9.33 11.02 9.66 10 10 C10.66 7.03 11.32 4.06 12 1 C9.66924071 1.95865509 9.66924071 1.95865509 8 5 C7.67 4.01 7.34 3.02 7 2 C5.02 2.33 3.04 2.66 1 3 C0.67 2.01 0.34 1.02 0 0 Z " fill="#EBEAEB" transform="translate(16,47)"/>
<path d="M0 0 C8.58 0 17.16 0 26 0 C26 0.66 26 1.32 26 2 C24.35 2.66 22.7 3.32 21 4 C20.67 3.67 20.34 3.34 20 3 C18.33391013 2.95615553 16.66619446 2.9603287 15 3 C13.1457163 3 11.29123241 2.98271299 9.4375 2.9375 C6.99092493 2.82781247 6.99092493 2.82781247 5 4 C5 3.34 5 2.68 5 2 C4.01 2.495 4.01 2.495 3 3 C2.34786708 5.02463255 2.34786708 5.02463255 2 7 C1.34 7 0.68 7 0 7 C0 4.69 0 2.38 0 0 Z " fill="#060606" transform="translate(38,27)"/>
<path d="M0 0 C1.98 0 3.96 0 6 0 C5.01 3.63 4.02 7.26 3 11 C3.66 11.33 4.32 11.66 5 12 C2.36 12 -0.28 12 -3 12 C-2.69106068 10.3743193 -2.3777305 8.74947252 -2.0625 7.125 C-1.88847656 6.22007813 -1.71445312 5.31515625 -1.53515625 4.3828125 C-1 2 -1 2 0 0 Z " fill="#1A5880" transform="translate(30,29)"/>
<path d="M0 0 C1.98 0 3.96 0 6 0 C6.125 2.875 6.125 2.875 6 6 C5.34 6.66 4.68 7.32 4 8 C2.68 8 1.36 8 0 8 C0 8.99 0 9.98 0 11 C-0.66 11 -1.32 11 -2 11 C-1.85892253 9.54119891 -1.71197585 8.08296449 -1.5625 6.625 C-1.48128906 5.81289063 -1.40007813 5.00078125 -1.31640625 4.1640625 C-1 2 -1 2 0 0 Z " fill="#282828" transform="translate(34,48)"/>
<path d="M0 0 C0.66 0 1.32 0 2 0 C2 1.65 2 3.3 2 5 C2.66 5 3.32 5 4 5 C4.33 3.35 4.66 1.7 5 0 C6.60080151 4.00200378 5.29279692 7.04556236 4 11 C3.01 11 2.02 11 1 11 C0.67 10.34 0.34 9.68 0 9 C-0.33 9.66 -0.66 10.32 -1 11 C-1.66 11 -2.32 11 -3 11 C-2.69217504 9.35328588 -2.37860766 7.70764424 -2.0625 6.0625 C-1.88847656 5.14597656 -1.71445312 4.22945312 -1.53515625 3.28515625 C-1 1 -1 1 0 0 Z " fill="#D1D3D4" transform="translate(36,29)"/>
<path d="M0 0 C1.65 0 3.3 0 5 0 C5.33 0.99 5.66 1.98 6 3 C4.35 3 2.7 3 1 3 C0.67 3.66 0.34 4.32 0 5 C1.32 5 2.64 5 4 5 C4.042721 6.66611905 4.04063832 8.33382885 4 10 C3 11 3 11 -0.0625 11.0625 C-1.031875 11.041875 -2.00125 11.02125 -3 11 C-3 10.01 -3 9.02 -3 8 C-0.525 8.495 -0.525 8.495 2 9 C2 8.34 2 7.68 2 7 C0.68 6.67 -0.64 6.34 -2 6 C-1.34 4.02 -0.68 2.04 0 0 Z " fill="#DCDCDC" transform="translate(53,29)"/>
<path d="M0 0 C1.2065625 0.0309375 1.2065625 0.0309375 2.4375 0.0625 C2.4375 1.0525 2.4375 2.0425 2.4375 3.0625 C1.1175 3.0625 -0.2025 3.0625 -1.5625 3.0625 C-1.8925 3.7225 -2.2225 4.3825 -2.5625 5.0625 C-1.2425 5.0625 0.0775 5.0625 1.4375 5.0625 C0.5625 9.9375 0.5625 9.9375 -0.5625 11.0625 C-2.22867115 11.10313832 -3.89638095 11.105221 -5.5625 11.0625 C-5.5625 10.0725 -5.5625 9.0825 -5.5625 8.0625 C-4.2425 8.0625 -2.9225 8.0625 -1.5625 8.0625 C-2.5525 7.4025 -3.5425 6.7425 -4.5625 6.0625 C-3.48963568 0.08511307 -3.48963568 0.08511307 0 0 Z " fill="#252525" transform="translate(47.5625,47.9375)"/>
<path d="M0 0 C2.625 0.375 2.625 0.375 5 1 C5 1.66 5 2.32 5 3 C3.35 2.67 1.7 2.34 0 2 C0 2.99 0 3.98 0 5 C1.32 5 2.64 5 4 5 C3.125 9.875 3.125 9.875 2 11 C0.33382885 11.04063832 -1.33388095 11.042721 -3 11 C-3.33 10.01 -3.66 9.02 -4 8 C-1.525 8.495 -1.525 8.495 1 9 C1 8.34 1 7.68 1 7 C0.01 7 -0.98 7 -2 7 C-2.125 4.625 -2.125 4.625 -2 2 C-1.34 1.34 -0.68 0.68 0 0 Z " fill="#303030" transform="translate(80,48)"/>
<path d="M0 0 C1.98 0 3.96 0 6 0 C6 0.66 6 1.32 6 2 C4.68 2 3.36 2 2 2 C2 2.66 2 3.32 2 4 C2.99 4 3.98 4 5 4 C5 4.99 5 5.98 5 7 C3.35 7 1.7 7 0 7 C0 7.66 0 8.32 0 9 C0.99 9 1.98 9 3 9 C3 9.66 3 10.32 3 11 C1.35 11 -0.3 11 -2 11 C-1 3.57142857 -1 3.57142857 0 0 Z " fill="#3D3D3D" transform="translate(71,48)"/>
<path d="M0 0 C1.98 0 3.96 0 6 0 C6 1.65 6 3.3 6 5 C5.67 4.01 5.34 3.02 5 2 C4.01 2 3.02 2 2 2 C1.67 3.32 1.34 4.64 1 6 C1.99 6 2.98 6 4 6 C4 7.65 4 9.3 4 11 C3.34 11 2.68 11 2 11 C2 10.01 2 9.02 2 8 C1.34 8 0.68 8 0 8 C0 8.99 0 9.98 0 11 C-0.66 11 -1.32 11 -2 11 C-1.125 3.375 -1.125 3.375 0 0 Z " fill="#262626" transform="translate(59,48)"/>
<path d="M0 0 C0.33 0.99 0.66 1.98 1 3 C1.99 3 2.98 3 4 3 C4.33 2.34 4.66 1.68 5 1 C5 1.99 5 2.98 5 4 C5.66 3.67 6.32 3.34 7 3 C7.33 2.01 7.66 1.02 8 0 C8.66 0 9.32 0 10 0 C10 1.32 10 2.64 10 4 C10.66 4.33 11.32 4.66 12 5 C9.11788698 5.96070434 7.30149956 6.10581883 4.3125 6.0625 C3.10013672 6.04896484 3.10013672 6.04896484 1.86328125 6.03515625 C0.94095703 6.01775391 0.94095703 6.01775391 0 6 C-0.38218767 4.34385343 -0.71395102 2.67542976 -1 1 C-0.67 0.67 -0.34 0.34 0 0 Z " fill="#121213" transform="translate(36,37)"/>
<path d="M0 0 C1.65 0.33 3.3 0.66 5 1 C5 1.99 5 2.98 5 4 C4.34 4 3.68 4 3 4 C3 3.34 3 2.68 3 2 C2.01 2 1.02 2 0 2 C-0.33 4.31 -0.66 6.62 -1 9 C0.32 8.67 1.64 8.34 3 8 C2.67 8.99 2.34 9.98 2 11 C0.35 11 -1.3 11 -3 11 C-3.36923077 4.6 -3.36923077 4.6 -1.5 1.5625 C-1.005 1.046875 -0.51 0.53125 0 0 Z " fill="#D4D4D4" transform="translate(62,29)"/>
<path d="M0 0 C1.98 0 3.96 0 6 0 C6 0.66 6 1.32 6 2 C5.360625 2.12375 4.72125 2.2475 4.0625 2.375 C3.381875 2.58125 2.70125 2.7875 2 3 C1.67 3.66 1.34 4.32 1 5 C1.99 5 2.98 5 4 5 C4 5.66 4 6.32 4 7 C2.68 7 1.36 7 0 7 C0 7.66 0 8.32 0 9 C0.99 9 1.98 9 3 9 C3 9.66 3 10.32 3 11 C1.35 11 -0.3 11 -2 11 C-1.125 3.375 -1.125 3.375 0 0 Z " fill="#202020" transform="translate(52,48)"/>
<path d="M0 0 C1.32 0 2.64 0 4 0 C3.54177532 3.46941546 3.10868317 6.67395049 2 10 C1.34 10 0.68 10 0 10 C0 9.01 0 8.02 0 7 C-0.45375 7.495 -0.9075 7.99 -1.375 8.5 C-3 10 -3 10 -5 10 C-4.34 7.69 -3.68 5.38 -3 3 C-2.67 3.66 -2.34 4.32 -2 5 C-1.01 4.67 -0.02 4.34 1 4 C1.33 3.01 1.66 2.02 2 1 C1.34 0.67 0.68 0.34 0 0 Z " fill="#E7E7E7" transform="translate(71,30)"/>
<path d="M0 0 C1.32 0 2.64 0 4 0 C3.46274105 3.37705625 2.88935377 6.696686 2 10 C0.68 9.67 -0.64 9.34 -2 9 C-1.125 2.25 -1.125 2.25 0 0 Z " fill="#9F0D29" transform="translate(24,30)"/>
<path d="M0 0 C1.32 0 2.64 0 4 0 C3.125 7.625 3.125 7.625 2 11 C1.34 11 0.68 11 0 11 C0 9.68 0 8.36 0 7 C-0.66 7 -1.32 7 -2 7 C-2 7.99 -2 8.98 -2 10 C-2.66 10 -3.32 10 -4 10 C-4 8.35 -4 6.7 -4 5 C-2.02 5 -0.04 5 2 5 C2 3.68 2 2.36 2 1 C1.34 0.67 0.68 0.34 0 0 Z " fill="#DDDDDD" transform="translate(46,30)"/>
<path d="M0 0 C1.65 0.33 3.3 0.66 5 1 C5 1.99 5 2.98 5 4 C4.34 4 3.68 4 3 4 C3 3.34 3 2.68 3 2 C2.01 2 1.02 2 0 2 C-0.33 4.64 -0.66 7.28 -1 10 C-0.34 10.33 0.32 10.66 1 11 C-0.65 10.67 -2.3 10.34 -4 10 C-3.43454163 6.04179141 -2.19097652 3.3340947 0 0 Z " fill="#272727" transform="translate(19,48)"/>
<path d="M0 0 C1.32 0 2.64 0 4 0 C4.22036864 3.85645121 3.60355101 6.49223216 2 10 C1.34 10 0.68 10 0 10 C0 9.01 0 8.02 0 7 C-0.66 7 -1.32 7 -2 7 C-2.33 7.99 -2.66 8.98 -3 10 C-3.93065133 7.39417629 -4.14917407 6.35801776 -3.0625 3.75 C-2.711875 3.1725 -2.36125 2.595 -2 2 C-2 2.99 -2 3.98 -2 5 C-0.68 5 0.64 5 2 5 C2 3.68 2 2.36 2 1 C1.34 0.67 0.68 0.34 0 0 Z " fill="#EAEAEA" transform="translate(79,30)"/>
<path d="M0 0 C1.98 0 3.96 0 6 0 C5.88637738 1.4800841 5.75877092 2.95910074 5.625 4.4375 C5.55539063 5.26121094 5.48578125 6.08492187 5.4140625 6.93359375 C5.27742188 7.61550781 5.14078125 8.29742187 5 9 C2.29120665 10.35439668 -0.00933268 10.06501451 -3 10 C-3 9.67 -3 9.34 -3 9 C-1.35 8.67 0.3 8.34 2 8 C2.33 6.35 2.66 4.7 3 3 C1.68 3 0.36 3 -1 3 C-0.67 2.01 -0.34 1.02 0 0 Z " fill="#4A4A4A" transform="translate(54,31)"/>
<path d="M0 0 C1.32 0 2.64 0 4 0 C3.01 3.63 2.02 7.26 1 11 C0.01 11 -0.98 11 -2 11 C-1 3.57142857 -1 3.57142857 0 0 Z " fill="#A18850" transform="translate(19,29)"/>
<path d="M0 0 C1.65 0 3.3 0 5 0 C4.34 2.97 3.68 5.94 3 9 C2.34 9 1.68 9 1 9 C1 8.34 1 7.68 1 7 C0.01 7 -0.98 7 -2 7 C-2 6.34 -2 5.68 -2 5 C-0.68 5 0.64 5 2 5 C2 4.34 2 3.68 2 3 C1.01 3 0.02 3 -1 3 C-0.67 2.01 -0.34 1.02 0 0 Z " fill="#CACACA" transform="translate(54,50)"/>
<path d="M0 0 C0.66 0 1.32 0 2 0 C1.34 3.3 0.68 6.6 0 10 C-0.66 9.34 -1.32 8.68 -2 8 C-1.625 5.875 -1.625 5.875 -1 4 C-2.32 4 -3.64 4 -5 4 C-4.67 3.01 -4.34 2.02 -4 1 C-2.02 1.495 -2.02 1.495 0 2 C0 1.34 0 0.68 0 0 Z " fill="#BCBCBC" transform="translate(50,49)"/>
<path d="M0 0 C0.99 0 1.98 0 3 0 C3 0.66 3 1.32 3 2 C3.66 2 4.32 2 5 2 C5 2.99 5 3.98 5 5 C3.68 5 2.36 5 1 5 C1 5.66 1 6.32 1 7 C0.34 7 -0.32 7 -1 7 C-0.67 4.69 -0.34 2.38 0 0 Z " fill="#E8E7E7" transform="translate(19,50)"/>
<path d="M0 0 C0.66 0 1.32 0 2 0 C2 1.98 2 3.96 2 6 C1.01 6.495 1.01 6.495 0 7 C-0.65213292 9.02463255 -0.65213292 9.02463255 -1 11 C-1.66 11 -2.32 11 -3 11 C-2.69217504 9.35328588 -2.37860766 7.70764424 -2.0625 6.0625 C-1.88847656 5.14597656 -1.71445312 4.22945312 -1.53515625 3.28515625 C-1 1 -1 1 0 0 Z " fill="#E5E8E9" transform="translate(36,29)"/>
<path d="M0 0 C1.98 0 3.96 0 6 0 C5.34 0.66 4.68 1.32 4 2 C3.3574765 4.06874034 3.3574765 4.06874034 3 6 C2.01 6 1.02 6 0 6 C-1.125 2.25 -1.125 2.25 0 0 Z " fill="#737373" transform="translate(34,48)"/>
<path d="M0 0 C0.66 0.33 1.32 0.66 2 1 C2 2.32 2 3.64 2 5 C2.99 5.33 3.98 5.66 5 6 C5 6.66 5 7.32 5 8 C3.35 7.67 1.7 7.34 0 7 C-0.33 7.99 -0.66 8.98 -1 10 C-2.27351308 7.45297384 -1.80191925 6.5717055 -1.0625 3.875 C-0.86785156 3.15054688 -0.67320313 2.42609375 -0.47265625 1.6796875 C-0.31667969 1.12539063 -0.16070312 0.57109375 0 0 Z " fill="#3C3C3C" transform="translate(50,30)"/>
<path d="M0 0 C0.78375 0.04125 1.5675 0.0825 2.375 0.125 C1.715 0.785 1.055 1.445 0.375 2.125 C-0.2675235 4.19374034 -0.2675235 4.19374034 -0.625 6.125 C-1.615 6.125 -2.605 6.125 -3.625 6.125 C-4.25 4.25 -4.25 4.25 -4.625 2.125 C-2.625 0.125 -2.625 0.125 0 0 Z " fill="#868686" transform="translate(72.625,28.875)"/>
<path d="M0 0 C1.65 0 3.3 0 5 0 C5.33 0.99 5.66 1.98 6 3 C4.35 3 2.7 3 1 3 C0.67 3.99 0.34 4.98 0 6 C-0.66 6 -1.32 6 -2 6 C-1.34 4.02 -0.68 2.04 0 0 Z " fill="#D3D3D3" transform="translate(53,29)"/>
<path d="M0 0 C1.98 0 3.96 0 6 0 C6 0.66 6 1.32 6 2 C5.360625 2.12375 4.72125 2.2475 4.0625 2.375 C3.381875 2.58125 2.70125 2.7875 2 3 C1.67 3.66 1.34 4.32 1 5 C1.99 5.33 2.98 5.66 4 6 C2.68 6 1.36 6 0 6 C0 4.02 0 2.04 0 0 Z " fill="#1F1F1F" transform="translate(71,48)"/>
<path d="M0 0 C0.5625 1.9375 0.5625 1.9375 1 4 C0 5 0 5 -2.5625 5.0625 C-3.7690625 5.0315625 -3.7690625 5.0315625 -5 5 C-5.33 4.01 -5.66 3.02 -6 2 C-3.525 2.495 -3.525 2.495 -1 3 C-0.67 2.01 -0.34 1.02 0 0 Z " fill="#222222" transform="translate(82,54)"/>
<path d="M0 0 C0.66 0 1.32 0 2 0 C1.67 2.31 1.34 4.62 1 7 C0.01 7.33 -0.98 7.66 -2 8 C-1.125 1.125 -1.125 1.125 0 0 Z " fill="#E2E2E2" transform="translate(28,49)"/>
<path d="M0 0 C2.625 0.375 2.625 0.375 5 1 C5 1.99 5 2.98 5 4 C4.34 4 3.68 4 3 4 C3 3.34 3 2.68 3 2 C2.01 2 1.02 2 0 2 C-0.33 3.32 -0.66 4.64 -1 6 C-1.625 4.125 -1.625 4.125 -2 2 C-1.34 1.34 -0.68 0.68 0 0 Z " fill="#323131" transform="translate(19,48)"/>
<path d="M0 0 C2.97 0 5.94 0 9 0 C9.33 0.66 9.66 1.32 10 2 C9.01 3.485 9.01 3.485 8 5 C7.67 4.01 7.34 3.02 7 2 C5.02 2.33 3.04 2.66 1 3 C0.67 2.01 0.34 1.02 0 0 Z " fill="#E3E2E3" transform="translate(16,47)"/>
<path d="M0 0 C0.66 0 1.32 0 2 0 C2 0.99 2 1.98 2 3 C2.99 2.67 3.98 2.34 5 2 C5 2.66 5 3.32 5 4 C2.69 4.33 0.38 4.66 -2 5 C-2.33 4.34 -2.66 3.68 -3 3 C-2.34 3 -1.68 3 -1 3 C-0.67 2.01 -0.34 1.02 0 0 Z " fill="#2D2D2D" transform="translate(69,37)"/>
<path d="M0 0 C0.66 0 1.32 0 2 0 C1.25 6.75 1.25 6.75 -1 9 C-0.67 6.03 -0.34 3.06 0 0 Z " fill="#353434" transform="translate(30,48)"/>
<path d="M0 0 C1.32 0.33 2.64 0.66 4 1 C3.34 2.98 2.68 4.96 2 7 C1.34 7 0.68 7 0 7 C0 4.69 0 2.38 0 0 Z " fill="#232524" transform="translate(38,27)"/>
<path d="M0 0 C0.33 0.99 0.66 1.98 1 3 C4.63 3 8.26 3 12 3 C12 3.33 12 3.66 12 4 C6.06 4.495 6.06 4.495 0 5 C-0.33 4.34 -0.66 3.68 -1 3 C-0.67 2.01 -0.34 1.02 0 0 Z " fill="#939393" transform="translate(3,64)"/>
<path d="M0 0 C1.65 0 3.3 0 5 0 C5 0.99 5 1.98 5 3 C2.69 3.33 0.38 3.66 -2 4 C-1.34 2.68 -0.68 1.36 0 0 Z " fill="#323232" transform="translate(45,48)"/>
<path d="M0 0 C1.67542976 0.28604898 3.34385343 0.61781233 5 1 C5 1.99 5 2.98 5 4 C4.34 4 3.68 4 3 4 C3 3.34 3 2.68 3 2 C2.01 2 1.02 2 0 2 C-0.33 2.66 -0.66 3.32 -1 4 C-1 1 -1 1 0 0 Z " fill="#DDDDDD" transform="translate(62,29)"/>
</svg>
