<svg version="1.2" xmlns="http://www.w3.org/2000/svg" viewBox="0 0 500 500" width="500" height="500">
	<style>
		.s0 { opacity: 1;fill: #fee500 } 
		.s1 { opacity: .99;fill: #d20200 } 
		.s2 { fill: #fee500 } 
		.s3 { opacity: .99;fill: #fee500 } 
	</style>
	<g>
		<path fill-rule="evenodd" class="s0" d="m225.5-0.5q24 0 48 0 12.31 1.98 25 4-18.73 79.41-37 159-12-2-24 0-18.02-79.64-37-159 12.69-2.02 25-4z"/>
	</g>
	<g>
		<path fill-rule="evenodd" class="s1" d="m200.5 3.5q18.98 79.36 37 159 12-2 24 0 18.27-79.59 37-159 95.46 20.06 153 98-66.77 46.5-134 92.5 5.34 6.84 9.5 14.5 1.57 1.53 3.5 0.5 71.54-35.77 143-71.5 21.27 40.83 25 87-80.49 8.1-161 16 0 9 0 18 80.54 7.7 161 16-3.74 46.19-25 87-71.46-35.73-143-71.5-1.93-1.03-3.5 0.5-4.16 7.66-9.5 14.5 67.23 46 134 92.5-57.55 77.96-153 98-18.02-79.09-37-158-1-0.5-2-1-10.26 1.97-20.5 0-1.42 0.61-2 2-18.26 78.57-36.5 157-95.46-20.06-153-98 67.22-45.87 134-92.5-5.34-6.84-9.5-14.5-1.57-1.53-3.5-0.5-71.54 35.77-143 71.5-21.1-40.87-25-87 80.44-8.49 161-16-0.21-9.05 1-18-81.02-7.3-162-15 3.66-46.66 25-88 72.83 36.29 145.5 73 4.31-8.88 10.5-16.5-67.23-46-134-92.5 57.99-77.28 153-98z"/>
	</g>
	<g>
		<path fill-rule="evenodd" class="s0" d="m47.5 101.5q66.77 46.5 134 92.5-6.19 7.62-10.5 16.5-72.67-36.71-145.5-73 9.23-19.19 22-36z"/>
	</g>
	<g>
		<path fill-rule="evenodd" class="s0" d="m451.5 101.5q12.77 16.81 22 36-71.46 35.73-143 71.5-1.93 1.03-3.5-0.5-4.16-7.66-9.5-14.5 67.23-46 134-92.5z"/>
	</g>
	<g>
		<path fill-rule="evenodd" class="s2" d="m238.5 176.5q50.95-3.7 76.5 40 21.04 50.28-17.5 88.5-38.63 29.71-83 9-46.77-29.82-35.5-84.5 14.92-43.31 59.5-53z"/>
	</g>
	<g>
		<path fill-rule="evenodd" class="s0" d="m-0.5 225.5q0.5 0 1 0 80.98 7.7 162 15-1.21 8.95-1 18-80.56 7.51-161 16 0-1-1-1 0-24 0-48z"/>
	</g>
	<g>
		<path fill-rule="evenodd" class="s0" d="m498.5 224.5q0.5 0 1 0 0 25 0 50-0.5 0-1 0-80.46-8.3-161-16 0-9 0-18 80.51-7.9 161-16z"/>
	</g>
	<g>
		<path fill-rule="evenodd" class="s3" d="m47.5 397.5q-12.77-16.81-22-36 71.46-35.73 143-71.5 1.93-1.03 3.5 0.5 4.16 7.66 9.5 14.5-66.78 46.63-134 92.5z"/>
	</g>
	<g>
		<path fill-rule="evenodd" class="s0" d="m473.5 361.5q-8.75 19.51-22 36-66.77-46.5-134-92.5 5.34-6.84 9.5-14.5 1.57-1.53 3.5-0.5 71.54 35.77 143 71.5z"/>
	</g>
	<g>
		<path fill-rule="evenodd" class="s0" d="m298.5 495.5q-12.19 2.03-24 4-25 0-50 0-11.81-1.97-24-4 18.24-78.43 36.5-157 0.58-1.39 2-2 10.24 1.97 20.5 0 1 0.5 2 1 18.98 78.91 37 158z"/>
	</g>
</svg>