<?xml version="1.0" encoding="UTF-8"?>
<svg version="1.1" xmlns="http://www.w3.org/2000/svg" width="100" height="100">
<path d="M0 0 C0.96134857 -0.00637985 1.92269714 -0.0127597 2.91317749 -0.01933289 C3.94552521 -0.02044571 4.97787292 -0.02155853 6.04150391 -0.02270508 C7.64307846 -0.02769768 7.64307846 -0.02769768 9.27700806 -0.03279114 C11.53476532 -0.03785162 13.79253004 -0.04019973 16.05029297 -0.04003906 C19.49801001 -0.04222362 22.94540605 -0.06038357 26.39306641 -0.0793457 C28.58837781 -0.08228021 30.78369074 -0.08426462 32.97900391 -0.08520508 C34.00730316 -0.09239059 35.03560242 -0.09957611 36.09506226 -0.10697937 C42.71488491 -0.0859318 47.80348565 0.06563634 52.95556641 4.64526367 C56.48730884 8.68154074 56.31210735 11.72018386 56.35180664 16.88037109 C56.36159042 17.67896545 56.37137421 18.47755981 56.38145447 19.300354 C56.41143383 21.95046314 56.43280345 24.60052161 56.45166016 27.25073242 C56.45823198 28.1558639 56.46480381 29.06099537 56.47157478 29.99355507 C56.50418307 34.78670311 56.52862764 39.5798288 56.5480957 44.37304688 C56.56589534 48.33756957 56.60069138 52.30137917 56.65063477 56.265625 C56.71088136 61.05314756 56.74157795 65.84000986 56.75126839 70.62789345 C56.75981862 72.4503478 56.77862621 74.27278472 56.80801201 76.0950222 C56.84701619 78.65185328 56.84795032 81.20612456 56.84008789 83.76318359 C56.87008881 84.88488701 56.87008881 84.88488701 56.9006958 86.0292511 C56.82856995 91.27589192 55.25035583 93.96563808 51.72403049 97.81103992 C48.6901064 100.37146087 45.6408209 100.28306759 41.84887695 100.32226562 C40.22655403 100.34151848 40.22655403 100.34151848 38.57145691 100.36116028 C37.40270523 100.36854721 36.23395355 100.37593414 35.02978516 100.38354492 C33.22632378 100.39565254 33.22632378 100.39565254 31.38642883 100.40800476 C28.8402348 100.42184339 26.29402223 100.43256653 23.74780273 100.44042969 C19.85641318 100.4576493 15.96587159 100.50154014 12.07470703 100.5456543 C9.60140599 100.55578064 7.12809772 100.56429692 4.65478516 100.57104492 C3.49210617 100.58855301 2.32942719 100.6060611 1.1315155 100.62409973 C-9.29778842 100.59613319 -9.29778842 100.59613319 -13.85693359 96.14526367 C-16.68992403 91.51635609 -17.29074749 87.62511916 -17.24511719 82.30737305 C-17.25037415 81.54560257 -17.2556311 80.78383209 -17.26104736 79.99897766 C-17.27418861 77.49544416 -17.26553044 74.99255299 -17.25537109 72.48901367 C-17.25739352 70.74076211 -17.26030637 68.99251138 -17.2640686 67.2442627 C-17.26848399 63.58601829 -17.26208627 59.92799413 -17.24804688 56.26977539 C-17.2309554 51.58905251 -17.24080081 46.90884575 -17.25876427 42.22814178 C-17.26962337 38.6198134 -17.26614602 35.01160665 -17.25838089 31.40327454 C-17.25638476 29.67775918 -17.25881747 27.95223265 -17.26581955 26.22673035 C-17.27346919 23.81190893 -17.26178138 21.39791439 -17.24511719 18.9831543 C-17.25118988 18.27544388 -17.25726257 17.56773346 -17.26351929 16.83857727 C-17.20465941 12.21650064 -16.26927753 9.07870149 -13.85693359 5.14526367 C-9.39540111 0.91252772 -6.00537837 0.02713846 0 0 Z " fill="#254476" transform="translate(28.85693359375,-0.145263671875)"/>
<path d="M0 0 C0.96134857 -0.00637985 1.92269714 -0.0127597 2.91317749 -0.01933289 C3.94552521 -0.02044571 4.97787292 -0.02155853 6.04150391 -0.02270508 C7.64307846 -0.02769768 7.64307846 -0.02769768 9.27700806 -0.03279114 C11.53476532 -0.03785162 13.79253004 -0.04019973 16.05029297 -0.04003906 C19.49801001 -0.04222362 22.94540605 -0.06038357 26.39306641 -0.0793457 C28.58837781 -0.08228021 30.78369074 -0.08426462 32.97900391 -0.08520508 C34.00730316 -0.09239059 35.03560242 -0.09957611 36.09506226 -0.10697937 C42.71488491 -0.0859318 47.80348565 0.06563634 52.95556641 4.64526367 C56.48730884 8.68154074 56.31210735 11.72018386 56.35180664 16.88037109 C56.36159042 17.67896545 56.37137421 18.47755981 56.38145447 19.300354 C56.41143383 21.95046314 56.43280345 24.60052161 56.45166016 27.25073242 C56.45823198 28.1558639 56.46480381 29.06099537 56.47157478 29.99355507 C56.50418307 34.78670311 56.52862764 39.5798288 56.5480957 44.37304688 C56.56589534 48.33756957 56.60069138 52.30137917 56.65063477 56.265625 C56.71088136 61.05314756 56.74157795 65.84000986 56.75126839 70.62789345 C56.75981862 72.4503478 56.77862621 74.27278472 56.80801201 76.0950222 C56.84701619 78.65185328 56.84795032 81.20612456 56.84008789 83.76318359 C56.87008881 84.88488701 56.87008881 84.88488701 56.9006958 86.0292511 C56.82856995 91.27589192 55.25035583 93.96563808 51.72403049 97.81103992 C48.6901064 100.37146087 45.6408209 100.28306759 41.84887695 100.32226562 C40.22655403 100.34151848 40.22655403 100.34151848 38.57145691 100.36116028 C37.40270523 100.36854721 36.23395355 100.37593414 35.02978516 100.38354492 C33.22632378 100.39565254 33.22632378 100.39565254 31.38642883 100.40800476 C28.8402348 100.42184339 26.29402223 100.43256653 23.74780273 100.44042969 C19.85641318 100.4576493 15.96587159 100.50154014 12.07470703 100.5456543 C9.60140599 100.55578064 7.12809772 100.56429692 4.65478516 100.57104492 C3.49210617 100.58855301 2.32942719 100.6060611 1.1315155 100.62409973 C-9.29778842 100.59613319 -9.29778842 100.59613319 -13.85693359 96.14526367 C-16.68992403 91.51635609 -17.29074749 87.62511916 -17.24511719 82.30737305 C-17.25037415 81.54560257 -17.2556311 80.78383209 -17.26104736 79.99897766 C-17.27418861 77.49544416 -17.26553044 74.99255299 -17.25537109 72.48901367 C-17.25739352 70.74076211 -17.26030637 68.99251138 -17.2640686 67.2442627 C-17.26848399 63.58601829 -17.26208627 59.92799413 -17.24804688 56.26977539 C-17.2309554 51.58905251 -17.24080081 46.90884575 -17.25876427 42.22814178 C-17.26962337 38.6198134 -17.26614602 35.01160665 -17.25838089 31.40327454 C-17.25638476 29.67775918 -17.25881747 27.95223265 -17.26581955 26.22673035 C-17.27346919 23.81190893 -17.26178138 21.39791439 -17.24511719 18.9831543 C-17.25118988 18.27544388 -17.25726257 17.56773346 -17.26351929 16.83857727 C-17.20465941 12.21650064 -16.26927753 9.07870149 -13.85693359 5.14526367 C-9.39540111 0.91252772 -6.00537837 0.02713846 0 0 Z M-10.16355896 8.20767212 C-12.23740464 11.80528805 -12.42794658 14.73708239 -12.39038086 18.77783203 C-12.39899643 19.52970291 -12.407612 20.28157379 -12.41648865 21.05622864 C-12.4391256 23.53287533 -12.43241419 26.0083883 -12.42333984 28.48510742 C-12.42857673 30.21237015 -12.43485344 31.93963001 -12.44212341 33.66688538 C-12.45252358 37.28408276 -12.44797222 40.90088667 -12.43334961 44.51806641 C-12.41616805 49.14641281 -12.43965047 53.77351703 -12.47483921 58.40172482 C-12.49683391 61.96806516 -12.49536669 65.53410928 -12.4870739 69.10049629 C-12.48625539 70.80648727 -12.49309955 72.51250021 -12.50784492 74.21842766 C-12.52532895 76.60748772 -12.5107193 78.99432869 -12.48803711 81.38330078 C-12.49972931 82.08323151 -12.51142151 82.78316223 -12.52346802 83.50430298 C-12.4163057 89.0709867 -10.69701782 91.40007993 -6.85693359 95.14526367 C-4.27775335 95.95727302 -4.27775335 95.95727302 -1.55615234 95.73120117 C-0.5796875 95.71186523 0.39677734 95.6925293 1.40283203 95.67260742 C2.41023438 95.62233398 3.41763672 95.57206055 4.45556641 95.52026367 C5.48230469 95.49319336 6.50904297 95.46612305 7.56689453 95.43823242 C10.09444217 95.36769621 12.61766683 95.26919797 15.14306641 95.14526367 C15.23740967 94.52748047 15.33175293 93.90969727 15.42895508 93.27319336 C16.6363102 86.60323588 16.6363102 86.60323588 19.13134766 84.34838867 C19.89833984 84.03385742 20.66533203 83.71932617 21.45556641 83.39526367 C26.27708552 81.12814035 29.90252993 78.84525482 32.20556641 73.83276367 C32.12501794 70.36917958 30.78211052 68.38094494 29.11962891 65.39526367 C28.00405611 62.82498394 27.80076056 60.74646024 27.64306641 57.95776367 C27.36404382 53.36784215 26.06530076 51.70673679 23.14306641 48.14526367 C22.51132479 45.16234456 22.3517452 42.18208932 22.14306641 39.14526367 C21.83601786 37.47355494 21.5174379 35.80319457 21.14306641 34.14526367 C22.79306641 33.81526367 24.44306641 33.48526367 26.14306641 33.14526367 C27.13306641 34.46526367 28.12306641 35.78526367 29.14306641 37.14526367 C34.35599776 35.77997213 37.46323585 34.00032425 41.14306641 30.14526367 C42.05973307 27.14526367 42.05973307 27.14526367 41.14306641 24.14526367 C37.44191475 19.36958412 32.19449735 16.34780486 27.14306641 13.14526367 C29.2224459 14.4644076 31.30614659 15.7756458 33.39306641 17.08276367 C34.27285156 17.64253906 34.27285156 17.64253906 35.17041016 18.21362305 C38.10212905 20.04182977 40.6978687 21.60801749 44.14306641 22.14526367 C43.77848334 30.02025799 41.8676721 35.83155404 36.83056641 41.95776367 C34.27680869 46.78152825 35.10488372 50.90388303 36.14306641 56.14526367 C36.6397785 57.71559826 37.16042221 59.27857854 37.70556641 60.83276367 C40.44196128 69.17543096 41.15657949 84.1182375 37.14306641 92.14526367 C37.47306641 93.13526367 37.80306641 94.12526367 38.14306641 95.14526367 C39.35994141 95.24838867 40.57681641 95.35151367 41.83056641 95.45776367 C42.51505859 95.51577148 43.19955078 95.5737793 43.90478516 95.63354492 C47.47885108 94.85386213 48.87279373 92.94576759 51.14306641 90.14526367 C51.63365488 87.32486554 51.81960573 85.11003923 51.77416992 82.29736328 C51.78132523 81.52277267 51.78848053 80.74818207 51.79585266 79.95011902 C51.81271367 77.3986755 51.79335582 74.84899542 51.77197266 72.29760742 C51.77280152 70.52071487 51.77526155 68.7438224 51.77928162 66.9669342 C51.78213771 63.24708923 51.76745569 59.52784701 51.73999023 55.80810547 C51.70588263 51.04067646 51.71193551 46.27432336 51.73065281 41.50684261 C51.74122137 37.83935073 51.73228677 34.17210918 51.71726799 30.50464058 C51.71208631 28.74677842 51.71256782 26.98889012 51.71881294 25.23103142 C51.72426455 22.77470539 51.70389474 20.31991997 51.67651367 17.86376953 C51.68303955 17.13794678 51.68956543 16.41212402 51.69628906 15.66430664 C51.6339182 12.37331204 51.3392291 10.42896664 49.44969177 7.69619751 C46.64499777 5.81037119 45.06780888 5.63362663 41.70361328 5.61181641 C40.61568481 5.59598007 39.52775635 5.58014374 38.40686035 5.56382751 C37.23699585 5.56878738 36.06713135 5.57374725 34.86181641 5.57885742 C33.65618042 5.57265884 32.45054443 5.56646027 31.20837402 5.56007385 C28.65975757 5.552971 26.11109476 5.55615769 23.5625 5.56884766 C19.65749992 5.58271243 15.75489525 5.54864526 11.85009766 5.51049805 C9.37483665 5.50954689 6.89957264 5.5114055 4.42431641 5.51635742 C3.2544519 5.50309921 2.0845874 5.489841 0.87927246 5.47618103 C-0.75262024 5.4949807 -0.75262024 5.4949807 -2.41748047 5.51416016 C-3.85166321 5.5156028 -3.85166321 5.5156028 -5.31481934 5.51707458 C-8.0322288 5.97807968 -8.0322288 5.97807968 -10.16355896 8.20767212 Z " fill="#B3C7E2" transform="translate(28.85693359375,-0.145263671875)"/>
<path d="M0 0 C4.50505453 1.58192755 8.27229941 3.91697036 12.25 6.5 C12.88679688 6.90347656 13.52359375 7.30695312 14.1796875 7.72265625 C18.87473018 10.74946036 18.87473018 10.74946036 20 13 C20.5625 15.75 20.5625 15.75 20 19 C16.57018636 22.52757554 12.86569602 25.06850414 8 26 C7.01 24.68 6.02 23.36 5 22 C3.35 22.33 1.7 22.66 0 23 C0.144375 23.639375 0.28875 24.27875 0.4375 24.9375 C1 28 1 28 1.1484375 30.16015625 C1.43473299 35.20397085 1.43473299 35.20397085 4 39.4375 C6.6213293 42.79607817 6.41355423 45.28377477 6.6484375 49.4375 C7.02323609 52.16936526 7.79105204 53.91683835 9.125 56.3125 C10.42132064 58.69945204 10.99061609 59.86862528 11.1875 62.625 C8.69969503 67.60060993 4.12646637 70.53457002 -0.8125 72.8125 C-4.3484011 75.23909879 -4.55869011 75.78297788 -5.4375 79.75 C-5.65393685 81.16253523 -5.8511937 82.57874795 -6 84 C-6.33 83.01 -6.66 82.02 -7 81 C-8.98 81 -10.96 81 -13 81 C-13 80.67 -13 80.34 -13 80 C-11.35 80 -9.7 80 -8 80 C-8 78.68 -8 77.36 -8 76 C-8.66 76 -9.32 76 -10 76 C-9.98839844 75.24074219 -9.97679687 74.48148437 -9.96484375 73.69921875 C-9.95582031 72.70535156 -9.94679688 71.71148437 -9.9375 70.6875 C-9.92589844 69.70136719 -9.91429687 68.71523437 -9.90234375 67.69921875 C-9.87670138 64.90036151 -9.87670138 64.90036151 -11 62 C-10.91538508 60.26675881 -10.76395645 58.53607188 -10.5625 56.8125 C-10.46066406 55.91144531 -10.35882813 55.01039062 -10.25390625 54.08203125 C-10.17011719 53.39496094 -10.08632813 52.70789062 -10 52 C-9.34 52 -8.68 52 -8 52 C-8 50.35 -8 48.7 -8 47 C-8.66 47 -9.32 47 -10 47 C-9.85691406 45.98679687 -9.85691406 45.98679687 -9.7109375 44.953125 C-9.60007812 44.06109375 -9.48921875 43.1690625 -9.375 42.25 C-9.20097656 40.92742188 -9.20097656 40.92742188 -9.0234375 39.578125 C-8.99764806 36.74128677 -9.65349006 35.44054927 -11 33 C-10.625 30.75 -10.625 30.75 -10 29 C-10.99 29 -11.98 29 -13 29 C-13 26.36 -13 23.72 -13 21 C-12.67 21.99 -12.34 22.98 -12 24 C-10.68 24 -9.36 24 -8 24 C-8 21.36 -8 18.72 -8 16 C-10.97 15.505 -10.97 15.505 -14 15 C-14 14.67 -14 14.34 -14 14 C-10.7 13.67 -7.4 13.34 -4 13 C-4 12.34 -4 11.68 -4 11 C-3.01 11 -2.02 11 -1 11 C-1 11.66 -1 12.32 -1 13 C-0.01 13 0.98 13 2 13 C1.690625 12.484375 1.38125 11.96875 1.0625 11.4375 C-0.30362618 8.30344583 -0.68583935 5.39293507 -1 2 C-0.67 1.34 -0.34 0.68 0 0 Z " fill="#214073" transform="translate(50,11)"/>
<path d="M0 0 C2.46800047 1.15173355 4.04783565 2.04783565 6 4 C6.21401103 6.53231493 6.30409806 8.95671269 6.30639648 11.49145508 C6.31888176 12.65027443 6.31888176 12.65027443 6.33161926 13.83250427 C6.3557793 16.3948974 6.36449932 18.95703618 6.37109375 21.51953125 C6.38005673 23.29831521 6.38917851 25.07709837 6.39845276 26.85588074 C6.41496246 30.58924188 6.42264625 34.32251315 6.42553711 38.0559082 C6.4309178 42.83791812 6.46857586 47.61908202 6.51428127 52.40085316 C6.5440408 56.07691013 6.55126045 59.75276332 6.55226326 63.42893028 C6.5564691 65.19159501 6.56891807 66.95426014 6.58978081 68.71680641 C6.61666868 71.18528763 6.61187844 73.65180795 6.59936523 76.12036133 C6.61419952 76.84730194 6.62903381 77.57424255 6.64431763 78.32321167 C6.58772703 82.24780882 6.10524345 83.86998203 3.60243225 86.96195984 C-0.25140492 89.98001148 -2.25963878 89.40172553 -7 89 C-7.5625 87.0625 -7.5625 87.0625 -8 85 C-7.505 84.505 -7.505 84.505 -7 84 C-4.68146633 71.37687222 -5.588011 59.62642392 -9.125 47.42578125 C-10.27333876 42.92982993 -10.81824985 40.48335133 -8.5390625 36.3515625 C-7.90742187 35.45179687 -7.27578125 34.55203125 -6.625 33.625 C-2.738645 27.78369067 -0.56498058 23.17782042 -1 16 C-2.51787109 15.38705078 -2.51787109 15.38705078 -4.06640625 14.76171875 C-7.92147379 13.10954695 -11.40269077 11.0567589 -14.9375 8.8125 C-15.52595703 8.44447266 -16.11441406 8.07644531 -16.72070312 7.69726562 C-18.14989413 6.80256882 -19.57535509 5.90191805 -21 5 C-18.33956681 1.95600742 -16.31016848 1.495605 -12.26953125 1.11328125 C-9.10381883 0.95526807 -5.95299792 0.97556095 -2.78515625 1.0625 C-0.97495365 1.20226448 -0.97495365 1.20226448 0 0 Z " fill="#1E3E71" transform="translate(74,6)"/>
<path d="M0 0 C0.96134857 -0.00637985 1.92269714 -0.0127597 2.91317749 -0.01933289 C3.94552521 -0.02044571 4.97787292 -0.02155853 6.04150391 -0.02270508 C7.64307846 -0.02769768 7.64307846 -0.02769768 9.27700806 -0.03279114 C11.53476532 -0.03785162 13.79253004 -0.04019973 16.05029297 -0.04003906 C19.49801001 -0.04222362 22.94540605 -0.06038357 26.39306641 -0.0793457 C28.58837781 -0.08228021 30.78369074 -0.08426462 32.97900391 -0.08520508 C34.00730316 -0.09239059 35.03560242 -0.09957611 36.09506226 -0.10697937 C42.71488491 -0.0859318 47.80348565 0.06563634 52.95556641 4.64526367 C56.48730884 8.68154074 56.31210735 11.72018386 56.35180664 16.88037109 C56.36159042 17.67896545 56.37137421 18.47755981 56.38145447 19.300354 C56.41143383 21.95046314 56.43280345 24.60052161 56.45166016 27.25073242 C56.45823198 28.1558639 56.46480381 29.06099537 56.47157478 29.99355507 C56.50418307 34.78670311 56.52862764 39.5798288 56.5480957 44.37304688 C56.56589534 48.33756957 56.60069138 52.30137917 56.65063477 56.265625 C56.71088136 61.05314756 56.74157795 65.84000986 56.75126839 70.62789345 C56.75981862 72.4503478 56.77862621 74.27278472 56.80801201 76.0950222 C56.84701619 78.65185328 56.84795032 81.20612456 56.84008789 83.76318359 C56.87008881 84.88488701 56.87008881 84.88488701 56.9006958 86.0292511 C56.82856995 91.27589192 55.25035583 93.96563808 51.72403049 97.81103992 C48.6901064 100.37146087 45.6408209 100.28306759 41.84887695 100.32226562 C40.22655403 100.34151848 40.22655403 100.34151848 38.57145691 100.36116028 C37.40270523 100.36854721 36.23395355 100.37593414 35.02978516 100.38354492 C33.22632378 100.39565254 33.22632378 100.39565254 31.38642883 100.40800476 C28.8402348 100.42184339 26.29402223 100.43256653 23.74780273 100.44042969 C19.85641318 100.4576493 15.96587159 100.50154014 12.07470703 100.5456543 C9.60140599 100.55578064 7.12809772 100.56429692 4.65478516 100.57104492 C3.49210617 100.58855301 2.32942719 100.6060611 1.1315155 100.62409973 C-9.29778842 100.59613319 -9.29778842 100.59613319 -13.85693359 96.14526367 C-16.68992403 91.51635609 -17.29074749 87.62511916 -17.24511719 82.30737305 C-17.25037415 81.54560257 -17.2556311 80.78383209 -17.26104736 79.99897766 C-17.27418861 77.49544416 -17.26553044 74.99255299 -17.25537109 72.48901367 C-17.25739352 70.74076211 -17.26030637 68.99251138 -17.2640686 67.2442627 C-17.26848399 63.58601829 -17.26208627 59.92799413 -17.24804688 56.26977539 C-17.2309554 51.58905251 -17.24080081 46.90884575 -17.25876427 42.22814178 C-17.26962337 38.6198134 -17.26614602 35.01160665 -17.25838089 31.40327454 C-17.25638476 29.67775918 -17.25881747 27.95223265 -17.26581955 26.22673035 C-17.27346919 23.81190893 -17.26178138 21.39791439 -17.24511719 18.9831543 C-17.25118988 18.27544388 -17.25726257 17.56773346 -17.26351929 16.83857727 C-17.20465941 12.21650064 -16.26927753 9.07870149 -13.85693359 5.14526367 C-9.39540111 0.91252772 -6.00537837 0.02713846 0 0 Z M-12.85693359 9.14526367 C-13.05529526 11.71388275 -13.1297069 14.17467576 -13.11572266 16.74438477 C-13.11922729 17.52829086 -13.12273193 18.31219696 -13.12634277 19.11985779 C-13.13516808 21.71956151 -13.12930706 24.31899452 -13.12255859 26.91870117 C-13.12390529 28.72230074 -13.12584586 30.52589996 -13.12835693 32.32949829 C-13.1313095 36.11415047 -13.12700732 39.89870837 -13.11767578 43.68334961 C-13.10629747 48.53467529 -13.11282957 53.3857793 -13.12482071 58.23709679 C-13.13204966 61.96371122 -13.12974633 65.69027317 -13.12456512 69.41688919 C-13.12323065 71.20546113 -13.12486929 72.99403784 -13.12952423 74.78260422 C-13.13460463 77.28431551 -13.12685725 79.78566886 -13.11572266 82.28735352 C-13.11977112 83.02724014 -13.12381958 83.76712677 -13.12799072 84.5294342 C-13.09756439 88.22050139 -12.96961881 91.04888753 -10.85693359 94.14526367 C-6.1883887 98.36582895 -0.31258004 97.57719713 5.61181641 97.54370117 C6.72488159 97.54657135 7.83794678 97.54944153 8.98474121 97.55239868 C11.33488474 97.55443752 13.68504531 97.54892031 16.03515625 97.53637695 C19.63010646 97.52032155 23.22393236 97.53623261 26.81884766 97.55541992 C29.10400638 97.55343746 31.38916441 97.54959372 33.67431641 97.54370117 C34.74838745 97.54977386 35.8224585 97.55584656 36.92907715 97.56210327 C44.10048914 97.62631618 44.10048914 97.62631618 50.14306641 94.14526367 C53.2528228 90.00397008 53.57881927 86.4250315 53.54711914 81.4050293 C53.55741402 80.26018318 53.55741402 80.26018318 53.56791687 79.09220886 C53.58616418 76.57845264 53.58235092 74.06532168 53.57666016 71.55151367 C53.58122256 69.79943642 53.58652831 68.04736095 53.59254456 66.29528809 C53.60147127 62.62687907 53.5990571 58.95868781 53.58911133 55.2902832 C53.57761489 50.59251314 53.59784539 45.89549399 53.62702847 41.19782257 C53.6453849 37.58094522 53.64509927 33.96424807 53.63939095 30.34733582 C53.6392377 28.61540167 53.64528468 26.88345533 53.65768242 25.15156555 C53.6725827 22.72906511 53.6619242 20.30795535 53.64477539 17.88549805 C53.65444336 17.17262131 53.66411133 16.45974457 53.67407227 15.7252655 C53.60319962 10.93731586 52.53118973 8.50926178 49.14306641 5.14526367 C46.64393049 3.89569572 44.92666465 4.00484064 42.13012695 3.98413086 C40.56291145 3.96971954 40.56291145 3.96971954 38.96403503 3.95501709 C37.83073257 3.95076721 36.69743011 3.94651733 35.52978516 3.94213867 C34.36808304 3.9364386 33.20638092 3.93073853 32.00947571 3.92486572 C29.54726068 3.91540571 27.08503293 3.90887778 24.62280273 3.9050293 C20.85654568 3.89533057 17.09083575 3.86431859 13.32470703 3.83276367 C10.93473632 3.82623312 8.5447617 3.82098286 6.15478516 3.81713867 C5.02755539 3.80479187 3.90032562 3.79244507 2.73893738 3.77972412 C1.15753716 3.78422577 1.15753716 3.78422577 -0.45581055 3.78881836 C-1.38021439 3.78517273 -2.30461823 3.7815271 -3.2570343 3.777771 C-7.34387522 4.3554411 -9.98115063 6.26948071 -12.85693359 9.14526367 Z " fill="#234078" transform="translate(28.85693359375,-0.145263671875)"/>
<path d="M0 0 C1.58206057 0.00667536 3.16410534 0.0186375 4.74609375 0.03515625 C5.55240234 0.03966797 6.35871094 0.04417969 7.18945312 0.04882812 C9.18753131 0.06065107 11.18557158 0.07858711 13.18359375 0.09765625 C13.18359375 2.73765625 13.18359375 5.37765625 13.18359375 8.09765625 C11.86359375 8.09765625 10.54359375 8.09765625 9.18359375 8.09765625 C8.85359375 9.74765625 8.52359375 11.39765625 8.18359375 13.09765625 C9.17359375 13.09765625 10.16359375 13.09765625 11.18359375 13.09765625 C11.14234375 13.86078125 11.10109375 14.62390625 11.05859375 15.41015625 C10.96278551 18.32484041 10.96278551 18.32484041 13.18359375 21.09765625 C13.52065583 25.05813571 13.27788836 27.69442751 11.18359375 31.09765625 C11.84359375 31.09765625 12.50359375 31.09765625 13.18359375 31.09765625 C13.18359375 32.74765625 13.18359375 34.39765625 13.18359375 36.09765625 C12.52359375 36.09765625 11.86359375 36.09765625 11.18359375 36.09765625 C11.15672822 38.07675023 11.13726 40.05594596 11.12109375 42.03515625 C11.10949219 43.13730469 11.09789062 44.23945312 11.0859375 45.375 C10.87096804 48.01213259 10.87096804 48.01213259 12.18359375 49.09765625 C12.09375074 50.95537787 11.93747514 52.8101361 11.74609375 54.66015625 C11.64425781 55.67207031 11.54242188 56.68398437 11.4375 57.7265625 C11.31181641 58.90025391 11.31181641 58.90025391 11.18359375 60.09765625 C11.84359375 60.09765625 12.50359375 60.09765625 13.18359375 60.09765625 C13.18359375 61.41765625 13.18359375 62.73765625 13.18359375 64.09765625 C7.24359375 64.09765625 1.30359375 64.09765625 -4.81640625 64.09765625 C-4.81640625 62.77765625 -4.81640625 61.45765625 -4.81640625 60.09765625 C-4.15640625 60.09765625 -3.49640625 60.09765625 -2.81640625 60.09765625 C-3.3359891 55.71831506 -3.87316367 51.40962234 -4.81640625 47.09765625 C-3.82640625 47.09765625 -2.83640625 47.09765625 -1.81640625 47.09765625 C-2.14640625 46.43765625 -2.47640625 45.77765625 -2.81640625 45.09765625 C-2.88591166 43.55741629 -2.90092982 42.01430637 -2.87890625 40.47265625 C-2.86988281 39.65539062 -2.86085938 38.838125 -2.8515625 37.99609375 C-2.83996094 37.36960938 -2.82835938 36.743125 -2.81640625 36.09765625 C-3.47640625 36.09765625 -4.13640625 36.09765625 -4.81640625 36.09765625 C-4.81640625 34.44765625 -4.81640625 32.79765625 -4.81640625 31.09765625 C-4.15640625 30.76765625 -3.49640625 30.43765625 -2.81640625 30.09765625 C-3.47640625 29.10765625 -4.13640625 28.11765625 -4.81640625 27.09765625 C-5.15598188 23.02274873 -5.12973111 21.56764354 -2.81640625 18.09765625 C-2.43140734 16.44216094 -2.0884749 14.77541295 -1.81640625 13.09765625 C-0.82640625 13.09765625 0.16359375 13.09765625 1.18359375 13.09765625 C0.85359375 11.11765625 0.52359375 9.13765625 0.18359375 7.09765625 C-1.46640625 7.42765625 -3.11640625 7.75765625 -4.81640625 8.09765625 C-4.85882348 5.7647085 -4.85733562 3.43063058 -4.81640625 1.09765625 C-3.81640625 0.09765625 -3.81640625 0.09765625 0 0 Z " fill="#CEA9B9" transform="translate(28.81640625,26.90234375)"/>
<path d="M0 0 C4.54089927 1.68661973 8.40627318 4.00392074 12.5 6.5625 C14.94360101 7.96757058 17.36108429 9.01983131 20 10 C19.63541693 17.87499432 17.7246057 23.68629037 12.6875 29.8125 C10.13374228 34.63626458 10.96181731 38.75861936 12 44 C12.49671209 45.57033458 13.01735581 47.13331487 13.5625 48.6875 C15.03965132 53.19860427 15.29906361 57.53597858 15.3125 62.25 C15.32035522 63.26066528 15.32035522 63.26066528 15.32836914 64.29174805 C15.26891448 68.54565022 14.54188523 72.04392793 13 76 C11.68 76 10.36 76 9 76 C8.505 73.03 8.505 73.03 8 70 C5.03 70.495 5.03 70.495 2 71 C3 68 3 68 4.5703125 66.5859375 C6.20310011 65.09538116 6.20310011 65.09538116 6.1796875 62.9140625 C5.55541907 58.00639801 5.55541907 58.00639801 3.5 53.5625 C1.84775163 50.73990903 1.75677428 49.21737156 1.5625 46 C1.23943838 41.33279066 -0.02990658 39.61980136 -3 36 C-3.48557186 33.70725637 -3.68819255 31.48959446 -3.84375 29.15234375 C-3.95444332 26.8487109 -3.95444332 26.8487109 -4.6875 24.0625 C-4.790625 23.381875 -4.89375 22.70125 -5 22 C-4.34 21.34 -3.68 20.68 -3 20 C-0.5 20.1875 -0.5 20.1875 2 21 C2.66 21.99 3.32 22.98 4 24 C8.46619746 22.75361931 11.78175791 21.40755044 15 18 C15.75 15 15.75 15 15 12 C12.17053563 8.6956605 8.94533706 6.56587352 5.25 4.3125 C3.48448382 3.23331668 1.72945652 2.13607402 0 1 C0 0.67 0 0.34 0 0 Z " fill="#F4F7FB" transform="translate(54,12)"/>
<path d="M0 0 C0.66 0.33 1.32 0.66 2 1 C2.13919337 11.7007926 2.24571912 22.40136885 2.31087303 33.10288334 C2.34214846 38.07241418 2.38455184 43.04132438 2.45263672 48.01049805 C2.51796475 52.80864473 2.55373454 57.60619554 2.56926346 62.40475273 C2.58032574 64.23280655 2.60192855 66.06082878 2.63438034 67.88862801 C2.67812455 70.45518854 2.68392693 73.01930661 2.68115234 75.58618164 C2.702724 76.33712601 2.72429565 77.08807037 2.746521 77.86177063 C2.68524759 83.12140793 1.11859679 85.81280205 -2.41847801 89.66689205 C-5.49548122 92.26058184 -8.55082743 92.12230932 -12.3894043 92.11352539 C-13.49031906 92.11344986 -14.59123383 92.11337433 -15.72550964 92.11329651 C-16.91308365 92.10813522 -18.10065765 92.10297394 -19.32421875 92.09765625 C-20.54075638 92.0962413 -21.75729401 92.09482635 -23.01069641 92.09336853 C-26.9029891 92.08776312 -30.79522464 92.07520967 -34.6875 92.0625 C-37.32356688 92.0574857 -39.95963466 92.05292267 -42.59570312 92.04882812 C-49.06382164 92.03779193 -55.53190674 92.0210485 -62 92 C-60.32335352 89.93229134 -59.44132942 89.07507303 -56.77468872 88.62145996 C-55.47493607 88.6183783 -55.47493607 88.6183783 -54.14892578 88.61523438 C-52.67191696 88.60006775 -52.67191696 88.60006775 -51.16506958 88.58459473 C-50.10254974 88.58761597 -49.04002991 88.59063721 -47.9453125 88.59375 C-46.30476395 88.57749573 -46.30476395 88.57749573 -44.631073 88.56091309 C-41.12898869 88.52657862 -37.62723068 88.51104502 -34.125 88.5 C-29.52312287 88.48544311 -24.92197598 88.45176286 -20.3203125 88.40625 C-18.73260544 88.41078186 -18.73260544 88.41078186 -17.11282349 88.41540527 C-10.00466871 88.46123468 -10.00466871 88.46123468 -4 85 C-1.56789842 81.37890697 -1.69405079 77.69082045 -1.68115234 73.47753906 C-1.66608391 72.3501255 -1.66608391 72.3501255 -1.65071106 71.19993591 C-1.61988241 68.72183987 -1.60284496 66.24385186 -1.5859375 63.765625 C-1.56722558 62.04497346 -1.54765215 60.32433109 -1.5272522 58.60369873 C-1.47592747 54.07954313 -1.43630358 49.55535778 -1.39910889 45.03106689 C-1.35907138 40.41256346 -1.30797788 35.79418382 -1.2578125 31.17578125 C-1.16104918 22.11727446 -1.07664567 13.05869778 -1 4 C-0.34 4 0.32 4 1 4 C0.505 2.02 0.505 2.02 0 0 Z " fill="#1C3B6E" transform="translate(83,8)"/>
<path d="M0 0 C0.66 0.33 1.32 0.66 2 1 C3.53668865 1.22467831 5.07968054 1.40796805 6.625 1.5625 C7.44226562 1.64628906 8.25953125 1.73007812 9.1015625 1.81640625 C9.72804688 1.87699219 10.35453125 1.93757813 11 2 C10.01 3.485 10.01 3.485 9 5 C9.33 5.33 9.66 5.66 10 6 C10.07205511 7.68608966 10.08386068 9.37500659 10.0625 11.0625 C10.05347656 11.98160156 10.04445313 12.90070313 10.03515625 13.84765625 C10.02355469 14.55792969 10.01195312 15.26820312 10 16 C8.02 16 6.04 16 4 16 C3.97311849 14.35425434 3.95365877 12.70838587 3.9375 11.0625 C3.92589844 10.14597656 3.91429687 9.22945312 3.90234375 8.28515625 C4 6 4 6 5 5 C3.35 5 1.7 5 0 5 C0.33 5.33 0.66 5.66 1 6 C1.07226502 7.85287502 1.0838122 9.70833878 1.0625 11.5625 C1.05347656 12.57441406 1.04445313 13.58632812 1.03515625 14.62890625 C1.02355469 15.41136719 1.01195312 16.19382812 1 17 C2.15628906 16.94779297 2.15628906 16.94779297 3.3359375 16.89453125 C4.33882812 16.86746094 5.34171875 16.84039062 6.375 16.8125 C7.87160156 16.76029297 7.87160156 16.76029297 9.3984375 16.70703125 C10.25695313 16.80371094 11.11546875 16.90039062 12 17 C14.36574234 20.5486135 14.10865265 21.5764525 13.625 25.6875 C13.45871094 27.17830078 13.45871094 27.17830078 13.2890625 28.69921875 C13.14597656 29.83810547 13.14597656 29.83810547 13 31 C13.66 31 14.32 31 15 31 C15 32.32 15 33.64 15 35 C9.06 35 3.12 35 -3 35 C-3 33.68 -3 32.36 -3 31 C-2.34 31 -1.68 31 -1 31 C-1.51958285 26.62065881 -2.05675742 22.31196609 -3 18 C-2.01 18 -1.02 18 0 18 C-0.33 17.34 -0.66 16.68 -1 16 C-1.06950541 14.45976004 -1.08452357 12.91665012 -1.0625 11.375 C-1.05347656 10.55773437 -1.04445313 9.74046875 -1.03515625 8.8984375 C-1.02355469 8.27195312 -1.01195313 7.64546875 -1 7 C-1.66 7 -2.32 7 -3 7 C-3 5.35 -3 3.7 -3 2 C-2.01 2 -1.02 2 0 2 C0 1.34 0 0.68 0 0 Z " fill="#D7ABBC" transform="translate(27,56)"/>
<path d="M0 0 C4.50505453 1.58192755 8.27229941 3.91697036 12.25 6.5 C12.88679688 6.90347656 13.52359375 7.30695312 14.1796875 7.72265625 C18.87473018 10.74946036 18.87473018 10.74946036 20 13 C20.5625 15.75 20.5625 15.75 20 19 C16.57018636 22.52757554 12.86569602 25.06850414 8 26 C7.67 25.360625 7.34 24.72125 7 24.0625 C3.97670168 20.9447236 1.26343276 21.27956936 -3 21 C-4 14.375 -4 14.375 -4 11 C-3.01 11 -2.02 11 -1 11 C-1 11.66 -1 12.32 -1 13 C-0.01 13 0.98 13 2 13 C1.690625 12.484375 1.38125 11.96875 1.0625 11.4375 C-0.30362618 8.30344583 -0.68583935 5.39293507 -1 2 C-0.67 1.34 -0.34 0.68 0 0 Z " fill="#1D3D6E" transform="translate(50,11)"/>
<path d="M0 0 C0 1.66666667 0 3.33333333 0 5 C-0.99 5 -1.98 5 -3 5 C-2.67 5.66 -2.34 6.32 -2 7 C-0.35 6.67 1.3 6.34 3 6 C3.33 7.98 3.66 9.96 4 12 C4.99 12.33 5.98 12.66 7 13 C7.33 12.34 7.66 11.68 8 11 C7.67 13.97 7.34 16.94 7 20 C9.64 20 12.28 20 15 20 C15 20.33 15 20.66 15 21 C4.77 21 -5.46 21 -16 21 C-16 13 -16 13 -13.875 10.125 C-10.93046396 7.9486038 -8.43611046 7.14537015 -5 6 C-3.77472052 4.04978917 -3.77472052 4.04978917 -3 2 C-2.01 1.34 -1.02 0.68 0 0 Z " fill="#E2ECF5" transform="translate(60,75)"/>
<path d="M0 0 C0.99 0 1.98 0 3 0 C3.01030746 0.9683075 3.02061493 1.93661499 3.03123474 2.93426514 C3.12896669 12.05709086 3.23170064 21.17984834 3.33933926 30.30256271 C3.39451706 34.99270039 3.44792886 39.68284435 3.49731445 44.37304688 C3.54503382 48.898851 3.59737939 53.42458008 3.65294075 57.95029449 C3.67332999 59.67744326 3.6920487 61.40461259 3.70907402 63.13179779 C3.73319404 65.54985482 3.76323813 67.96777079 3.79467773 70.38574219 C3.8004332 71.10071869 3.80618866 71.81569519 3.81211853 72.55233765 C3.81634653 77.3787254 3.81634653 77.3787254 5 82 C7.49034386 83.29660434 7.49034386 83.29660434 10 84 C10 84.99 10 85.98 10 87 C6.20481045 86.74123708 4.45858036 86.4461863 1.6875 83.75 C-1.30374379 78.87538048 -1.12605378 74.03775976 -1.02172852 68.45581055 C-1.01212097 67.71380905 -1.00251343 66.97180756 -0.99261475 66.20732117 C-0.95976599 63.7670195 -0.91938046 61.32690485 -0.87890625 58.88671875 C-0.85459131 57.18993275 -0.83074844 55.49313993 -0.80735779 53.79634094 C-0.74465357 49.33946941 -0.6755485 44.88271935 -0.60510254 40.42596436 C-0.53429542 35.8745271 -0.46955262 31.32300401 -0.40429688 26.77148438 C-0.27546074 17.8475619 -0.1398612 8.92375602 0 0 Z " fill="#2D4A7D" transform="translate(13,12)"/>
<path d="M0 0 C0.33 0 0.66 0 1 0 C0.83923477 1.1554834 0.67846954 2.3109668 0.51283264 3.50146484 C-0.00478619 7.6601239 -0.1704511 11.78845328 -0.20532227 15.9765625 C-0.21522186 16.72875565 -0.22512146 17.48094879 -0.23532104 18.25593567 C-0.26660311 20.71225976 -0.29155995 23.16860312 -0.31640625 25.625 C-0.33700463 27.33992989 -0.35800181 29.05485503 -0.37937927 30.76977539 C-0.43430231 35.261008 -0.48384157 39.75228414 -0.53222656 44.24359131 C-0.58266037 48.83561022 -0.63823168 53.42756672 -0.69335938 58.01953125 C-0.80057627 67.01296738 -0.90210063 76.00645795 -1 85 C-1.99 84.67 -2.98 84.34 -4 84 C-4.06957695 74.06411636 -4.12285037 64.1282909 -4.15543652 54.19221306 C-4.17107796 49.57824968 -4.19228842 44.96445325 -4.22631836 40.35058594 C-4.25896611 35.89613331 -4.27686446 31.44184105 -4.28463173 26.98727798 C-4.29016552 25.28964845 -4.30097173 23.59202748 -4.31719017 21.8944664 C-4.33903674 19.5126234 -4.34196395 17.13143914 -4.34057617 14.74951172 C-4.351362 14.05107651 -4.36214783 13.3526413 -4.3732605 12.63304138 C-4.3434183 7.88507093 -3.48342703 3.48342703 0 0 Z " fill="#1A396B" transform="translate(16,4)"/>
<path d="M0 0 C2 1 2 1 3 3 C3.51981506 6.56444611 3.63102777 9.73794446 2 13 C-1.26205554 14.63102777 -4.43555389 14.51981506 -8 14 C-10 13 -10 13 -11 11 C-11.51981506 7.43555389 -11.63102777 4.26205554 -10 1 C-6.73794446 -0.63102777 -3.56444611 -0.51981506 0 0 Z " fill="#C3494F" transform="translate(37,44)"/>
<path d="M0 0 C4.54089927 1.68661973 8.40627318 4.00392074 12.5 6.5625 C14.94360101 7.96757058 17.36108429 9.01983131 20 10 C19.57208453 19.24297418 16.22057075 25.54204178 11 33 C10.67 32.34 10.34 31.68 10 31 C9.01 30.67 8.02 30.34 7 30 C7.33 28.35 7.66 26.7 8 25 C7.34 24.67 6.68 24.34 6 24 C6.6496875 23.63648437 7.299375 23.27296875 7.96875 22.8984375 C13.24094813 19.97941133 13.24094813 19.97941133 15.8125 14.875 C14.28222081 9.46016596 9.8622478 7.12499502 5.25 4.3125 C3.48448382 3.23331668 1.72945652 2.13607402 0 1 C0 0.67 0 0.34 0 0 Z " fill="#F1F4F9" transform="translate(54,12)"/>
<path d="M0 0 C4.29 0 8.58 0 13 0 C14 5 14 5 13 7 C12.9603287 8.66619446 12.95615553 10.33391013 13 12 C13.66 12 14.32 12 15 12 C15 12.66 15 13.32 15 14 C10.125 13.125 10.125 13.125 9 12 C8.95936168 10.33382885 8.957279 8.66611905 9 7 C8.01 7.33 7.02 7.66 6 8 C5.26676204 10.01508358 5.26676204 10.01508358 5 12 C5.99 12 6.98 12 8 12 C8 12.66 8 13.32 8 14 C5.36 14 2.72 14 0 14 C0 13.34 0 12.68 0 12 C0.66 12 1.32 12 2 12 C2 8.37 2 4.74 2 1 C1.34 0.67 0.68 0.34 0 0 Z " fill="#BF464A" transform="translate(26,76)"/>
<path d="M0 0 C5.33333333 0 10.66666667 0 16 0 C15.67 0.66 15.34 1.32 15 2 C14.01 2 13.02 2 12 2 C12 3.32 12 4.64 12 6 C12.66 6.33 13.32 6.66 14 7 C14 6.01 14 5.02 14 4 C14.99 4 15.98 4 17 4 C17.33 4.66 17.66 5.32 18 6 C18.99 4.02 19.98 2.04 21 0 C22.32 0 23.64 0 25 0 C25.99 2.64 26.98 5.28 28 8 C26.35 8 24.7 8 23 8 C23.33 7.01 23.66 6.02 24 5 C23.01 5 22.02 5 21 5 C21.33 5.99 21.66 6.98 22 8 C20.06318839 8.08107583 18.1254066 8.13922475 16.1875 8.1875 C15.10855469 8.22230469 14.02960937 8.25710937 12.91796875 8.29296875 C10 8 10 8 8.11328125 6.48828125 C7.74589844 5.99714844 7.37851562 5.50601562 7 5 C6.01 5.495 6.01 5.495 5 6 C5 6.66 5 7.32 5 8 C3.02 8 1.04 8 -1 8 C-0.835 6.865625 -0.67 5.73125 -0.5 4.5625 C-0.14367797 2.28867481 -0.14367797 2.28867481 0 0 Z " fill="#BBD1E7" transform="translate(25,17)"/>
<path d="M0 0 C1.79093191 -0.08086147 3.58289628 -0.13912702 5.375 -0.1875 C6.87160156 -0.23970703 6.87160156 -0.23970703 8.3984375 -0.29296875 C9.25695313 -0.19628906 10.11546875 -0.09960938 11 0 C13.36574234 3.5486135 13.10865265 4.5764525 12.625 8.6875 C12.45871094 10.17830078 12.45871094 10.17830078 12.2890625 11.69921875 C12.14597656 12.83810547 12.14597656 12.83810547 12 14 C12.66 14 13.32 14 14 14 C14 15.32 14 16.64 14 18 C8.06 18 2.12 18 -4 18 C-4 16.68 -4 15.36 -4 14 C-3.34 14 -2.68 14 -2 14 C-2.165 12.7625 -2.33 11.525 -2.5 10.25 C-2.87709444 7.42179168 -3 4.88435938 -3 2 C-2.01 2 -1.02 2 0 2 C0 1.34 0 0.68 0 0 Z M-2 3 C-1.01 3.495 -1.01 3.495 0 4 C0 7.63 0 11.26 0 15 C-0.66 15 -1.32 15 -2 15 C-2 15.66 -2 16.32 -2 17 C0.64 17 3.28 17 6 17 C6 16.34 6 15.68 6 15 C5.01 15 4.02 15 3 15 C3.3125 13.0625 3.3125 13.0625 4 11 C4.99 10.67 5.98 10.34 7 10 C6.95875 10.78375 6.9175 11.5675 6.875 12.375 C6.71271266 15.16116119 6.71271266 15.16116119 9 17 C10.32 17 11.64 17 13 17 C13 16.34 13 15.68 13 15 C12.34 15 11.68 15 11 15 C10.91046364 11.14993652 11.24729498 7.76352508 12 4 C10.88873341 2.66098208 10.88873341 2.66098208 8.05859375 2.90234375 C6.86363281 2.91394531 5.66867188 2.92554687 4.4375 2.9375 C3.23996094 2.94652344 2.04242188 2.95554687 0.80859375 2.96484375 C-0.58166016 2.98224609 -0.58166016 2.98224609 -2 3 Z " fill="#C2A2BB" transform="translate(28,73)"/>
<path d="M0 0 C2.01362453 4.02724906 0.41158984 9.70117282 0 14 C-5.61 14 -11.22 14 -17 14 C-15 10 -15 10 -13 8 C-12.22269531 8.04125 -11.44539063 8.0825 -10.64453125 8.125 C-7.04705396 7.95495676 -6.08698686 6.60283321 -3.6875 4 C-2.64142578 2.88625 -2.64142578 2.88625 -1.57421875 1.75 C-1.05472656 1.1725 -0.53523438 0.595 0 0 Z " fill="#2E4772" transform="translate(62,81)"/>
<path d="M0 0 C2.31 0 4.62 0 7 0 C6.67 0.66 6.34 1.32 6 2 C5.77377919 3.70363822 5.59111527 5.41328701 5.4375 7.125 C5.35371094 8.03507812 5.26992188 8.94515625 5.18359375 9.8828125 C5.12300781 10.58148438 5.06242187 11.28015625 5 12 C6.98 12 8.96 12 11 12 C10.85904936 10.3745692 10.71207913 8.74965949 10.5625 7.125 C10.48128906 6.22007813 10.40007813 5.31515625 10.31640625 4.3828125 C10.13010715 1.98889139 10.13010715 1.98889139 9 0 C10.98 0 12.96 0 15 0 C14.67 0.66 14.34 1.32 14 2 C13.68744353 4.85207778 13.48962518 7.70496854 13.28125 10.56640625 C13 13 13 13 12 14 C4.47761194 14.23880597 4.47761194 14.23880597 2 13 C1.62109375 10.56640625 1.62109375 10.56640625 1.4375 7.5625 C1.26890634 3.63464783 1.26890634 3.63464783 0 0 Z " fill="#BE5D65" transform="translate(26,60)"/>
<path d="M0 0 C2.5 0.3125 2.5 0.3125 5 1 C5.33 1.66 5.66 2.32 6 3 C4.68 2.67 3.36 2.34 2 2 C2 3.98 2 5.96 2 8 C0.68 8 -0.64 8 -2 8 C-2.1546875 9.175625 -2.1546875 9.175625 -2.3125 10.375 C-3 13 -3 13 -6 15 C-6 14.01 -6 13.02 -6 12 C-6.99 12 -7.98 12 -9 12 C-9 12.99 -9 13.98 -9 15 C-9.99 14.67 -10.98 14.34 -12 14 C-11.67 12.35 -11.34 10.7 -11 9 C-9.68 8.67 -8.36 8.34 -7 8 C-8.65 8 -10.3 8 -12 8 C-12 7.67 -12 7.34 -12 7 C-10.35 7 -8.7 7 -7 7 C-6.67 6.34 -6.34 5.68 -6 5 C-5.360625 5.185625 -4.72125 5.37125 -4.0625 5.5625 C-3.0415625 5.7790625 -3.0415625 5.7790625 -2 6 C-1.67 5.67 -1.34 5.34 -1 5 C-1 3.68 -1 2.36 -1 1 C-0.67 0.67 -0.34 0.34 0 0 Z " fill="#294674" transform="translate(48,9)"/>
<path d="M0 0 C4.95 0 9.9 0 15 0 C15 1.65 15 3.3 15 5 C14.34 5 13.68 5 13 5 C12.67 4.01 12.34 3.02 12 2 C11.01 1.67 10.02 1.34 9 1 C9 4.63 9 8.26 9 12 C9.99 12.33 10.98 12.66 12 13 C8.7 13 5.4 13 2 13 C2.99 12.67 3.98 12.34 5 12 C5 8.37 5 4.74 5 1 C3.35 2.32 1.7 3.64 0 5 C0 3.35 0 1.7 0 0 Z " fill="#BC5357" transform="translate(26,29)"/>
<path d="M0 0 C5.61 0 11.22 0 17 0 C17 2.64 17 5.28 17 8 C15.68 8 14.36 8 13 8 C12.67 9.65 12.34 11.3 12 13 C12.66 13.33 13.32 13.66 14 14 C12.68 14 11.36 14 10 14 C10 10.37 10 6.74 10 3 C11.32 3.33 12.64 3.66 14 4 C14 4.99 14 5.98 14 7 C14.66 7 15.32 7 16 7 C16 5.35 16 3.7 16 2 C11.05 2 6.1 2 1 2 C0.67 1.34 0.34 0.68 0 0 Z " fill="#C79FB3" transform="translate(25,27)"/>
<path d="M0 0 C4.54089927 1.68661973 8.40627318 4.00392074 12.5 6.5625 C14.94360101 7.96757058 17.36108429 9.01983131 20 10 C19.88541307 11.43836751 19.75790884 12.87570966 19.625 14.3125 C19.55539063 15.11300781 19.48578125 15.91351563 19.4140625 16.73828125 C19 19 19 19 17 22 C16.67 21.34 16.34 20.68 16 20 C15.01 20 14.02 20 13 20 C13.66 19.34 14.32 18.68 15 18 C15.50042146 15.08461971 15.50042146 15.08461971 15 12 C12.18996705 8.6820503 8.94159261 6.5635902 5.25 4.3125 C3.48448382 3.23331668 1.72945652 2.13607402 0 1 C0 0.67 0 0.34 0 0 Z " fill="#B7CBE2" transform="translate(54,12)"/>
<path d="M0 0 C1.32 0.33 2.64 0.66 4 1 C4 4.3 4 7.6 4 11 C2.68 11.33 1.36 11.66 0 12 C-2 10 -2 10 -2.265625 8.125 C-2.26046875 7.42375 -2.2553125 6.7225 -2.25 6 C-2.25515625 5.29875 -2.2603125 4.5975 -2.265625 3.875 C-2 2 -2 2 0 0 Z " fill="#E4B5C7" transform="translate(32,45)"/>
<path d="M0 0 C8.58 0 17.16 0 26 0 C25.67 0.66 25.34 1.32 25 2 C24.20335938 1.97679687 23.40671875 1.95359375 22.5859375 1.9296875 C16.86843613 1.83230913 12.41103023 2.02035479 7 4 C4.25 3.8125 4.25 3.8125 2 3 C1.34 2.01 0.68 1.02 0 0 Z " fill="#173966" transform="translate(48,6)"/>
<path d="M0 0 C0.33 0 0.66 0 1 0 C1 1.98 1 3.96 1 6 C1.66 6 2.32 6 3 6 C3 7.32 3 8.64 3 10 C-1.95 10 -6.9 10 -12 10 C-12 9.67 -12 9.34 -12 9 C-9.69 9 -7.38 9 -5 9 C-5 8.34 -5 7.68 -5 7 C-5.99 7 -6.98 7 -8 7 C-7.67 5.35 -7.34 3.7 -7 2 C-6.01 2 -5.02 2 -4 2 C-3.7525 2.969375 -3.505 3.93875 -3.25 4.9375 C-2.63125 6.4534375 -2.63125 6.4534375 -2 8 C0.03243548 8.96877057 0.03243548 8.96877057 2 9 C2 8.34 2 7.68 2 7 C1.34 7 0.68 7 0 7 C-0.38133299 5.0085944 -0.71325582 3.00720923 -1 1 C-0.67 0.67 -0.34 0.34 0 0 Z " fill="#DAB0BC" transform="translate(39,81)"/>
<path d="M0 0 C0.33 0 0.66 0 1 0 C1.35820896 7.28358209 1.35820896 7.28358209 0 10 C-3.2409814 11.6204907 -6.46451649 11.69973111 -10 11 C-12 9 -12 9 -13 7 C-8.545 7.99 -8.545 7.99 -4 9 C-3.67 6.36 -3.34 3.72 -3 1 C-2.34 1.33 -1.68 1.66 -1 2 C-0.67 1.34 -0.34 0.68 0 0 Z " fill="#C05158" transform="translate(39,47)"/>
<path d="M0 0 C2.31 0 4.62 0 7 0 C7.33 0.99 7.66 1.98 8 3 C7.505 3.45375 7.01 3.9075 6.5 4.375 C4.77390663 5.87635519 4.77390663 5.87635519 5 8 C3.02 8 1.04 8 -1 8 C-0.835 6.865625 -0.67 5.73125 -0.5 4.5625 C-0.14367797 2.28867481 -0.14367797 2.28867481 0 0 Z " fill="#BCCCE2" transform="translate(25,17)"/>
<path d="M0 0 C0 0.99 0 1.98 0 3 C-2.95918198 2.88641524 -5.91676783 2.75966914 -8.875 2.625 C-9.71675781 2.5940625 -10.55851562 2.563125 -11.42578125 2.53125 C-12.23144531 2.49257812 -13.03710938 2.45390625 -13.8671875 2.4140625 C-14.61081543 2.3826416 -15.35444336 2.3512207 -16.12060547 2.31884766 C-18 2 -18 2 -20 0 C-13.12631267 -0.74464946 -6.83079148 -1.18225237 0 0 Z " fill="#1C3962" transform="translate(43,92)"/>
<path d="M0 0 C0.66 0.99 1.32 1.98 2 3 C2.33 2.34 2.66 1.68 3 1 C5.475 1.99 5.475 1.99 8 3 C7.2884375 3.7734375 7.2884375 3.7734375 6.5625 4.5625 C4.57190593 7.66782675 4.34939182 10.36632504 4 14 C3.67 13.01 3.34 12.02 3 11 C1.02 11 -0.96 11 -3 11 C-3 10.67 -3 10.34 -3 10 C-1.35 10 0.3 10 2 10 C2 8.68 2 7.36 2 6 C1.34 6 0.68 6 0 6 C0 4.02 0 2.04 0 0 Z " fill="#50628A" transform="translate(40,81)"/>
<path d="M0 0 C0.66 0.33 1.32 0.66 2 1 C1.625 3.4375 1.625 3.4375 1 6 C-1 7 -1 7 -4.125 6.0625 C-5.07375 5.711875 -6.0225 5.36125 -7 5 C-7 3.68 -7 2.36 -7 1 C-5.00045254 0.95745644 -2.99958364 0.95919217 -1 1 C-0.67 1.33 -0.34 1.66 0 2 C0 1.34 0 0.68 0 0 Z " fill="#CE777F" transform="translate(38,76)"/>
<path d="M0 0 C2.31 0 4.62 0 7 0 C6.67 0.66 6.34 1.32 6 2 C5.77532169 3.53668865 5.59203195 5.07968054 5.4375 6.625 C5.31181641 7.85089844 5.31181641 7.85089844 5.18359375 9.1015625 C5.12300781 9.72804688 5.06242187 10.35453125 5 11 C4.01 11.33 3.02 11.66 2 12 C1.93941406 11.30132812 1.87882812 10.60265625 1.81640625 9.8828125 C1.73261719 8.97273438 1.64882813 8.06265625 1.5625 7.125 C1.48128906 6.22007813 1.40007813 5.31515625 1.31640625 4.3828125 C1.13010715 1.98889139 1.13010715 1.98889139 0 0 Z " fill="#BD4745" transform="translate(26,60)"/>
<path d="M0 0 C0.515625 0.639375 1.03125 1.27875 1.5625 1.9375 C4.65935623 4.55791681 7.02067623 4.69389817 11 5 C11 5.33 11 5.66 11 6 C5.39 6 -0.22 6 -6 6 C-5.67 5.34 -5.34 4.68 -5 4 C-4.01 4 -3.02 4 -2 4 C-2.33 3.01 -2.66 2.02 -3 1 C-2.01 0.67 -1.02 0.34 0 0 Z " fill="#1F3967" transform="translate(32,21)"/>
<path d="M0 0 C1.32 0 2.64 0 4 0 C4.38218767 1.65614657 4.71395102 3.32457024 5 5 C4 6 4 6 1.4375 6.0625 C0.2309375 6.0315625 0.2309375 6.0315625 -1 6 C-1.625 4.125 -1.625 4.125 -2 2 C-1.34 1.34 -0.68 0.68 0 0 Z " fill="#183C73" transform="translate(86,94)"/>
<path d="M0 0 C1.79093191 -0.08086147 3.58289628 -0.13912702 5.375 -0.1875 C6.87160156 -0.23970703 6.87160156 -0.23970703 8.3984375 -0.29296875 C9.25695313 -0.19628906 10.11546875 -0.09960938 11 0 C13.1519437 3.22791555 13.20086443 4.28400809 13 8 C12.80664062 7.35546875 12.61328125 6.7109375 12.4140625 6.046875 C11.11291753 3.65648799 11.11291753 3.65648799 7.9609375 3.390625 C6.18589844 3.32101563 6.18589844 3.32101563 4.375 3.25 C3.18648437 3.19328125 1.99796875 3.1365625 0.7734375 3.078125 C-0.14179688 3.05234375 -1.05703125 3.0265625 -2 3 C-1.34 2.67 -0.68 2.34 0 2 C0 1.34 0 0.68 0 0 Z " fill="#E1ADB8" transform="translate(28,73)"/>
<path d="M0 0 C0.99 0.99 1.98 1.98 3 3 C1.71700242 5.86207152 0.469364 8.0245088 -2 10 C-2.99 10 -3.98 10 -5 10 C-3.66511872 6.40608886 -2.03977277 3.24509304 0 0 Z " fill="#274478" transform="translate(81,89)"/>
<path d="M0 0 C2.5625 0.25 2.5625 0.25 5 1 C5.33 1.66 5.66 2.32 6 3 C4.68 2.67 3.36 2.34 2 2 C2 3.98 2 5.96 2 8 C0.68 8 -0.64 8 -2 8 C-2.33 8.99 -2.66 9.98 -3 11 C-3 9.68 -3 8.36 -3 7 C-2.01 6.67 -1.02 6.34 0 6 C-0.66 4.68 -1.32 3.36 -2 2 C-1.34 1.34 -0.68 0.68 0 0 Z " fill="#6D88B1" transform="translate(48,9)"/>
<path d="M0 0 C0.99 0.33 1.98 0.66 3 1 C3 3.31 3 5.62 3 8 C1.68 7.67 0.36 7.34 -1 7 C-1.04254356 5.00045254 -1.04080783 2.99958364 -1 1 C-0.67 0.67 -0.34 0.34 0 0 Z " fill="#3F5079" transform="translate(32,47)"/>
<path d="M0 0 C0.66 0.99 1.32 1.98 2 3 C1.67 3.66 1.34 4.32 1 5 C0.01 4.67 -0.98 4.34 -2 4 C-2 4.99 -2 5.98 -2 7 C-2.99 6.67 -3.98 6.34 -5 6 C-4.67 4.35 -4.34 2.7 -4 1 C-2.68 0.67 -1.36 0.34 0 0 Z " fill="#4D608A" transform="translate(41,17)"/>
<path d="M0 0 C2.0625 0.4375 2.0625 0.4375 4 1 C4 1.99 4 2.98 4 4 C6.64 4 9.28 4 12 4 C12 4.33 12 4.66 12 5 C8.04 5 4.08 5 0 5 C-0.33 3.68 -0.66 2.36 -1 1 C-0.67 0.67 -0.34 0.34 0 0 Z " fill="#E6F1F9" transform="translate(63,91)"/>
<path d="M0 0 C0.66 0.33 1.32 0.66 2 1 C0.6875 4.4375 0.6875 4.4375 -1 8 C-1.99 8.33 -2.98 8.66 -4 9 C-3.67 7.35 -3.34 5.7 -3 4 C-3.66 3.67 -4.32 3.34 -5 3 C-2.625 1.4375 -2.625 1.4375 0 0 Z " fill="#CFD6DF" transform="translate(65,33)"/>
<path d="M0 0 C0.99 0 1.98 0 3 0 C3.99 2.64 4.98 5.28 6 8 C4.35 8 2.7 8 1 8 C0.67 5.36 0.34 2.72 0 0 Z " fill="#C8E0EE" transform="translate(47,17)"/>
<path d="M0 0 C0.99 0 1.98 0 3 0 C3 2.64 3 5.28 3 8 C2.01 8 1.02 8 0 8 C0 5.36 0 2.72 0 0 Z " fill="#384368" transform="translate(33,63)"/>
<path d="M0 0 C3.3 0 6.6 0 10 0 C10 0.99 10 1.98 10 3 C9.01 3 8.02 3 7 3 C7 5.31 7 7.62 7 10 C6.67 10 6.34 10 6 10 C6 7.36 6 4.72 6 2 C3.03 1.505 3.03 1.505 0 1 C0 0.67 0 0.34 0 0 Z " fill="#354879" transform="translate(36,25)"/>
<path d="M0 0 C0.33 0 0.66 0 1 0 C1 2.64 1 5.28 1 8 C-0.65 8.33 -2.3 8.66 -4 9 C-4.33 8.01 -4.66 7.02 -5 6 C-4.01 6 -3.02 6 -2 6 C-2 5.34 -2 4.68 -2 4 C-1.34 4 -0.68 4 0 4 C0 2.68 0 1.36 0 0 Z " fill="#2A3D62" transform="translate(29,32)"/>
<path d="M0 0 C0 0.66 0 1.32 0 2 C-3.465 3.485 -3.465 3.485 -7 5 C-7.66 4.34 -8.32 3.68 -9 3 C-6.38997624 -0.48003168 -4.1689578 -0.27793052 0 0 Z " fill="#2B4676" transform="translate(55,89)"/>
<path d="M0 0 C0.33 0 0.66 0 1 0 C1 1.65 1 3.3 1 5 C1.66 5 2.32 5 3 5 C3 5.66 3 6.32 3 7 C1.35 6.67 -0.3 6.34 -2 6 C-2.33 4.35 -2.66 2.7 -3 1 C-2.34 1.66 -1.68 2.32 -1 3 C-0.67 2.01 -0.34 1.02 0 0 Z " fill="#C15C5E" transform="translate(38,83)"/>
<path d="M0 0 C1.98 0 3.96 0 6 0 C5.67 0.66 5.34 1.32 5 2 C4.77532169 3.53668865 4.59203195 5.07968054 4.4375 6.625 C4.31181641 7.85089844 4.31181641 7.85089844 4.18359375 9.1015625 C4.12300781 9.72804688 4.06242187 10.35453125 4 11 C3.67 11 3.34 11 3 11 C2.8046875 9.01432292 2.609375 7.02864583 2.4140625 5.04296875 C2.07334609 2.70011858 2.07334609 2.70011858 0 0 Z " fill="#B05058" transform="translate(35,60)"/>
<path d="M0 0 C0.99 0 1.98 0 3 0 C3.33 2.31 3.66 4.62 4 7 C3.34 7 2.68 7 2 7 C1.01 5.02 0.02 3.04 -1 1 C-0.67 0.67 -0.34 0.34 0 0 Z " fill="#283C75" transform="translate(80,5)"/>
<path d="M0 0 C0.66 0 1.32 0 2 0 C1.33333333 4 0.66666667 8 0 12 C-0.33 12 -0.66 12 -1 12 C-1.02698189 10.37509046 -1.04638757 8.75005367 -1.0625 7.125 C-1.07410156 6.22007813 -1.08570312 5.31515625 -1.09765625 4.3828125 C-1 2 -1 2 0 0 Z " fill="#233A6A" transform="translate(24,42)"/>
<path d="M0 0 C1.98 0.66 3.96 1.32 6 2 C4.35 3.32 2.7 4.64 1 6 C-0.0625 4.125 -0.0625 4.125 -1 2 C-0.67 1.34 -0.34 0.68 0 0 Z " fill="#D1DFEE" transform="translate(45,86)"/>
<path d="M0 0 C1.32 0 2.64 0 4 0 C4 0.66 4 1.32 4 2 C3.01 2 2.02 2 1 2 C1 4.64 1 7.28 1 10 C0.67 10 0.34 10 0 10 C-0.19412181 8.52168779 -0.38012131 7.04230684 -0.5625 5.5625 C-0.66691406 4.73878906 -0.77132813 3.91507812 -0.87890625 3.06640625 C-0.91886719 2.38449219 -0.95882813 1.70257813 -1 1 C-0.67 0.67 -0.34 0.34 0 0 Z " fill="#C2A2B9" transform="translate(32,61)"/>
<path d="M0 0 C2.31 0 4.62 0 7 0 C7 1.65 7 3.3 7 5 C6.34 5 5.68 5 5 5 C4.67 4.01 4.34 3.02 4 2 C2.68 2 1.36 2 0 2 C0 1.34 0 0.68 0 0 Z " fill="#B15355" transform="translate(34,29)"/>
<path d="M0 0 C0.66 0 1.32 0 2 0 C2 0.66 2 1.32 2 2 C2.99 2.33 3.98 2.66 5 3 C3.02 3.99 1.04 4.98 -1 6 C-1.042721 4.33388095 -1.04063832 2.66617115 -1 1 C-0.67 0.67 -0.34 0.34 0 0 Z " fill="#314B76" transform="translate(18,2)"/>
</svg>
